<?xml version="1.0" encoding="UTF-8"?>
<svg id="_Слой_2" data-name="Слой 2" xmlns="http://www.w3.org/2000/svg" width="512" height="324.65" xmlns:xlink="http://www.w3.org/1999/xlink" viewBox="0 0 512 324.65">
  <defs>
    <style>
      .cls-1 {
        fill: #dc3b39;
      }

      .cls-2 {
        fill: #cececf;
      }

      .cls-3 {
        letter-spacing: 0em;
      }

      .cls-4 {
        letter-spacing: -.01em;
      }

      .cls-5 {
        fill: #ffdc6e;
        font-family: MyriadPro-BoldIt, 'Myriad Pro';
        font-size: 63.23px;
        font-style: italic;
        font-weight: 700;
      }

      .cls-6 {
        fill: #f7d072;
      }

      .cls-7 {
        fill: #d67261;
      }

      .cls-8, .cls-9 {
        fill: #040000;
      }

      .cls-10 {
        fill: #717070;
      }

      .cls-11 {
        fill: #e6ab2d;
      }

      .cls-12 {
        letter-spacing: -.04em;
      }

      .cls-9, .cls-13, .cls-14 {
        opacity: .2;
      }

      .cls-9, .cls-14 {
        isolation: isolate;
      }

      .cls-15 {
        fill: url(#_Безымянный_градиент_163);
      }

      .cls-16 {
        letter-spacing: 0em;
      }

      .cls-14 {
        fill: #fff;
      }
    </style>
    <linearGradient id="_Безымянный_градиент_163" data-name="Безымянный градиент 163" x1="256" y1="-256.99" x2="256" y2="-581.64" gradientTransform="translate(0 -256.99) scale(1 -1)" gradientUnits="userSpaceOnUse">
      <stop offset="0" stop-color="#735c37"/>
      <stop offset="1" stop-color="#988665"/>
    </linearGradient>
  </defs>
  <g id="design-4">
    <g>
      <g>
        <g>
          <path class="cls-15" d="m512,15.19v294.19c0,8.38-7.38,15.26-16.36,15.26H16.36c-8.98,0-16.36-6.89-16.36-15.26V15.19C0,6.82,7.38,0,16.36,0h479.29c8.98,0,16.36,6.82,16.36,15.19Z"/>
          <g class="cls-13">
            <path class="cls-8" d="m299.37,96.37c-1.11-1.16-1.8-2.19-3.18-1.61-1.38.58-1.38,1.42-2.84.39-1.45-1.03-.83-2.26-4.08-3.36-3.25-1.1-3.94-1.74-7.47-2.19-3.53-.45-6.09-.9-6.29-.9s.76.58-.62,1.23-2.49.77-3.87-.06-1.31-1.1-3.67-.9c-2.35.19-3.73.71-4.77.84-1.04.13,0-.06-1.59-1.1s-.48-1.61-3.25-1.42c-2.77.19-3.94.31-4.63-.04-.69-.35.14-2.16-2.56-2.93s-3.25-.19-4.63-.39c-1.38-.19-1.31-.52-5.26-.77-3.94-.26-3.74.32-6.43,1.1-2.7.77-3.39.77-5.88.65-2.49-.13-1.87,1.29-3.39,1.48-1.52.19-3.94-1.23-4.22-2.07-.28-.84,2.07-1.74,0-2.52-2.07-.77-5.95-2.26-6.71-2s-.35,1.42-1.73,1.74c-1.38.32-3.18.32-5.33-.58-2.14-.9-2.97-1.35-5.26-1.19s-3.53.8-5.46.93c-1.94.13-3.11-.65-1.8-1.23s2.97-2.32,2.97-3.16.97-2.65-1.24-2.84-2.63,1.23-4.7,0-4.77-1.29-5.53-.9-.76,1.03-2.07,1.23c-1.31.19-.83,1.29-2.42,1.68-1.59.39-1.38-.77-5.05-.45s-7.19.77-8.09,1.74c-.9.97.21,2.07-1.73,2.9s-6.36.19-6.92.9,2.42,3.16.41,4.26c-2.01,1.1-3.25-.77-7.88,0-4.63.77-4.08.65-5.81,1.61-1.73.97-2.07.32-3.11,1.68s-4.15,2.58-6.29,2.58-3.04-1.23-5.81-.19c-2.77,1.03-2.35,1.74-6.71,1.42-4.36-.32-6.16-.26-6.99.26-.83.52-.83,1.81-2.97,2.39s-5.46,1.61-6.29,1.42c-.83-.19-3.67,1.1-5.6,1.29-1.94.19-3.04.06-3.67-.65-.62-.71-1.31-1.94-.35-1.55.97.39,1.8.9,3.53.84,1.73-.06,3.67-1.35,3.25-2.07-.42-.71-.07-1.74-3.46-2.52s-4.84-.65-7.4-2.39.97-2.9-5.74-2.26c-6.71.65-8.51,1.29-11.2,3.16-2.7,1.87-3.25,3.49-6.02,5.74-2.77,2.26-1.8,2.9-5.26,4.52-3.46,1.61-4.01.84-5.05,3.29s-1.73,5.29.42,5.81c2.14.52,4.36-.39,5.46-.77s1.94.32,2.07,1.48.21,3.1,1.59,3.36c1.38.26,4.29-1.55,4.15-3.42-.14-1.87-.62-3.16.76-5.03s2.28-3.23,3.74-3.87c1.45-.65,3.46-1.81,2.7-.32-.76,1.48-2.14,3.23-1.18,4.71.97,1.48,3.18.45,3.74,1.94.55,1.48-.76,2.9-1.11,3.42-.35.52.83,1.16-.76,2.19-1.59,1.03-2.63,2.13-4.36,3.36-1.73,1.23-6.85,2.07-8.02,1.81-1.18-.26-3.11,0-3.25-1.48-.14-1.48,1.73-3.1-.21-3.81-1.94-.71-4.08.26-4.7,2.78-.62,2.52-1.59,2.97-3.18,4.19-1.59,1.23-.28,4.97-4.91,5.68-4.63.71-7.26-.32-6.92,1.23.35,1.55,3.25.58,3.32,3.16.07,2.58.76,3.49-1.25,4s-2.49-.45-5.19.39c-2.7.84-2.56,4-3.11,5.36-.55,1.35-.83,2.58.97,3.16,1.8.58,4.7,1.61,6.85.77,2.14-.84,3.39-.97,3.67-2.52s.97-2.52,2.42-2.78c1.45-.26,2.42-1.81,3.25-2.71.83-.9,0-.58,2.14-.52s4.15-2.07,4.91-1.48c.76.58,3.04,1.81,4.5,3.1,1.45,1.29,3.46,1.68,3.11,3.61s-.48,4.18.9,3.61.9-2.32,1.8-3.16c.9-.84,2.07-.06,1.94-1.55s-2.49-1.87-3.74-3.23-2.21-2.84-.69-2.39c1.52.45,4.43,1.68,4.7,2.71s2.84,3.16,3.11,5.16c.28,2,1.8,3.81,2.49,2.78s.07-1.81,1.59-2.07c1.52-.26.97-1.29,1.8-2.65.83-1.35,3.11.65,3.94-1.87.83-2.52-1.04-3.38,1.04-4.76,2.07-1.37,2.97-2.28,3.6-1.05s2.21,2.52,2.97,1.23c.76-1.29-1.38-1.68.42-2.65,1.8-.97,3.39-2.13,2.91-.45s-1.18,2.78.07,3.94,4.91,1.87,2.91,2.9c-2.01,1.03-4.91.45-7.61,1.55-2.7,1.1-3.11.58-3.8,2.65-.69,2.07-.76,2.71,1.52,2.71s3.32-1.48,3.94.39.48,6.07-.48,6.45-1.38-.19-5.67.26c-4.29.45-4.08,1.42-7.54-.19-3.46-1.61-4.29-3.61-5.53-1.61-1.25,2-.35,3.02-3.04,2.51-2.7-.51-.76-1.61-4.36-2.44s-4.29-.58-4.29-2.07.48-3.42-2.35-3.61c-2.84-.19-7.82.9-11.9,2-4.08,1.1-3.25-.26-7.95,1.29-4.7,1.55-7.61,2.07-8.09,4.45s-2.08,3.74-3.11,5.03c-1.04,1.29-1.59,6.97-1.87,10.46-.28,3.49.69,1.87-.35,4.45-1.04,2.58,1.87,6.65,3.04,7.74,1.18,1.1,4.98,4.58,7.4,4.84,2.42.26,2.21-.84,5.95-.32,3.74.52,3.67-1.48,7.47-.58,3.8.9,5.19,1.55,7.4,2.65,2.21,1.1,2.42,2,2.42,4.65s.14.65,2.14,4.39c2.01,3.74,5.53,7.23,3.46,10.46s-2.97,3.81-1.66,6.84c1.31,3.03,4.98,9.16,5.4,12.26.42,3.1-.62,3.29-.21,5.16.42,1.87,4.15,3.94,7.54,2.65s4.43-1.35,7.19-3.74c2.77-2.39,5.53-.58,7.61-5.55,2.07-4.97,1.38-5.55,2.28-7.55.9-2,6.29-4.9,6.5-8.52s-1.18-6.33-.69-9.81c.48-3.49.83-6.52,4.43-9.29s4.43-.06,6.92-5.29,5.46-6.52,2.7-6.45c-2.77.06-8.16,2.13-10.44.97s-6.02-6.45-6.78-8.91-.48-1.23-1.8-4.71c-1.31-3.49-2.56-5.29-3.11-6.65-.55-1.35-.9-3.74.76-1.81,1.66,1.94,3.25,4.84,5.46,9.29,2.21,4.45,3.53,7.87,5.46,8.58s2.56,1.55,5.46.45c2.91-1.1,3.94-1.23,6.71-2.65,2.77-1.42,4.43-1.68,6.43-3.55,2.01-1.87,6.57-2.65,1.52-4.45-5.05-1.81-6.78-.77-8.23-2.84-1.45-2.07-3.8-4.13-1.66-3.81,2.14.32,1.31.9,3.74,1.35s4.15-.57,5.46,1.07c1.31,1.64,3.53,2.8,5.6,1.9,2.07-.9,2.91-1.42,5.12-.26,2.21,1.16.76,4.45,4.08,5.36,3.32.9,3.87-2.45,4.57,1.81s2.01,8.2,3.18,9.04c1.18.84-.62,4.71,3.11,3.68,3.74-1.03,4.84-.9,4.84-4.52s-.14-4.52,1.87-5.81c2.01-1.29,4.77-2.58,6.02-3.94,1.24-1.35.48-2.19,2.97-1.94,2.49.26,8.65,6.71,8.37,8.07-.28,1.35-.55,1.87.62,2.71,1.18.84,1.11,1.1,2.01,4.13.9,3.03.69,2.58,3.53,5.42,2.84,2.84,6.85,4.84,6.5,2.78s-1.73-1.81-2.97-5.1c-1.24-3.29-2.7-6.26-1.04-5.42,1.66.84,1.18,2.07,2.91,2.32,1.73.26,2.01-1.61,3.32-2.19,1.31-.58,3.67-5.29,1.8-7.36-1.87-2.07-3.8-3.49-1.87-4.13,1.94-.65,1.04-.19,3.32.19,2.28.39,1.59-.65,4.36-1.35,2.77-.71,6.78-1.87,8.92-4.45,2.14-2.58,4.5-3.36,3.87-6.78-.62-3.42-1.45-4.9-2.77-5.81-1.31-.9-1.38-1.55-.21-1.94,1.18-.39,4.22-.45,2.49-1.29-1.73-.84-.9-.39-2.91-.84-2.01-.45-4.15.45-2.35-1.1,1.8-1.55,3.18-2.84,3.18-2.84,0,0-.48.32.69,1.48,1.18,1.16,1.94.65,2.49.39.55-.26,2.21-1.35,2.42-.13.21,1.23-2.14,2.13-.76,2.58s2.63-.71,2.07,1.61c-.55,2.32.55,4.45,1.73,3.29,1.18-1.16,2.91-4.58,2.56-6-.35-1.42-1.52-.71.07-3.29,1.59-2.58,1.59-4.39,3.74-4.07,2.14.32,4.22-1.61,5.05-2.39s4.36-2.58,4.91-4.78c.55-2.19.28-2.52,1.04-5.03.76-2.52,2.42-2.52.35-3.68-2.07-1.16-3.67-.9-4.01-2.19-.35-1.29,5.53-7.55,8.09-8.52,2.56-.97,4.36-.52,6.09.19,1.73.71,2.28,1.42,3.87.52,1.59-.9,2.63-1.42,3.53-1.48.9-.06,3.39-1.81,4.43-1.03,1.04.77,1.18,1.61,2.42,1.1s2.91-3.23,3.46-2.26.42,2.13-1.11,4c-1.52,1.87-2.84,2.19-4.77,3.68-1.94,1.48-2.7,3.03-2.7,4.39s-.55,5.87.21,5.94c.76.06.97-.13,2.97-2.52,2.01-2.39,3.04-2.52,4.36-3.42,1.31-.9,1.8-2,2.01-4.13.21-2.13-1.24-2.65.9-3.74,2.14-1.1,4.7-2.26,6.85-1.94,2.14.32,1.66.26,3.25-1.23,1.59-1.48,2.7-2.45,4.36-2.32s4.36.45,4.77-.32.07-1.42.14-2.52c.07-1.1-.07-1.55,1.52-1.94,1.59-.39,1.52-.9,2.28-1.16.76-.26,1.24.52,2.49.97s4.29.52,4.98-.32c.69-.84,1.8-1.55,1.8-1.55Z"/>
            <path class="cls-8" d="m238.65,131.48c.9.31,2.63,1.61,3.67,1.55,1.04-.06,1.59,1.23.76,1.35s-3.6,1.35-3.6,1.35c0,0-.83-.97-1.31,0s-.76,1.68-.62,2.26c.14.58,1.11,2.26.55,3.1-.55.84-1.31,1.29-1.31,2.32s.69,2.13-.28,2.58c-.97.45-1.94.58-2.77.84-.83.26-1.45.32-1.8,1.03-.35.71-1.18,1.74-2.91,1.68s-1.73-1.35-3.32-.13c-1.59,1.23-1.66,1.94-2.49,1.61s-.21-.77,0-2c.21-1.23-2.84-.9-.07-2.32,2.77-1.42,2.77-1.61,4.63-1.87,1.87-.26,2.91.58,3.66-.9.76-1.48,0-2.07,1.52-2.13s2.49.58,2.77-1.03c.28-1.61.07-2.97,0-4s-.48-2,.76-2.39c1.24-.39,1.38.32,1.52-.58.14-.9-.69-2.78.62-2.32Z"/>
            <path class="cls-8" d="m210.85,166.46c1.31.19,1.94,2.39,1.52,3.29-.41.9-.83,1.94.35,2.13,1.18.19,2.01.32,2.01,1.1s.48-.84,1.38,1.23.07,2.39,1.11,3.94c1.04,1.55,2.28,2.32.83,3.1s-.35,1.61-1.87,1.16c-1.52-.45-.9-.19-1.66-1.55-.76-1.35-1.24-.26-1.94-.32-.69-.06-.9-.06-.35-.97.55-.9.83-.84.21-1.87-.62-1.03.35-2.26-.55-2.45-.9-.19-1.18,1.23-2.77,2.13-1.59.9-3.94,1.16-3.87.84s.97-.77,2.42-2.45c1.45-1.68,2.35-.65,2.07-3.23-.28-2.58-1.24-1.87-.35-3.68.9-1.81,1.45-2.39,1.45-2.39Z"/>
            <path class="cls-8" d="m206.42,181.11c1.05.98,2.42.71,2.01,1.68-.41.97-1.65,1.1-.96,2.07.68.97,1.31,2.39,2.21,2.26s.83-.77,3.04-.77,3.6-.45,3.74.39c.14.84-.97.9-2.42,2.13-1.45,1.23-2.91,2.45-1.73,3.23,1.18.77,1.66,2.19,1.24,2.71-.41.52-.83,1.03.14,1.68.97.65,5.6.45,4.5,2-1.11,1.55-3.8,2.39-6.64,2.45-2.84.06-.56-.71-6.3-1.23-5.74-.52-6.71.84-10.72-.97-4.01-1.81-6.64-.26-8.85-3.55-2.21-3.29-1.31-1.68-4.08-5.1-2.77-3.42-1.45-3.42-3.8-4.78-2.35-1.35-4.36-3.29-2.77-3.29s.83-1.74,5.74,2.07,3.6,3.61,7.19,5.87c3.6,2.26,4.77,2.52,6.09,2.26,1.31-.26,3.25,0,2.01-1.48-1.24-1.48-1.94-3.36-.9-3.68,1.04-.32.97,1.29,2.7-.45,1.73-1.74,1.73-2.19,3.25-2.78s.69,0,2.14-.84c1.45-.84,2.01-2.97,3.18-1.87Z"/>
            <path class="cls-8" d="m225.44,188.6c.75.9,2.01,2.07,2.56,3.03s1.59-.82,3.6-.77c2.01.06,4.98,1.09,6.23,1.6,1.25.52,3.39.84,4.7,2.52s2.28.71,2.35,2.39c.07,1.68.35,1.48,1.52,2.45,1.18.97,1.38,2.78-.69,2s-2.7-3.42-4.91-3.16c-2.21.26-1.31.84-3.04,1.16-1.73.32-2.49-.26-4.57-.39s-3.6.52-2.63-1.23c.97-1.74,1.66-1.81-1.73-3.1-3.39-1.29-4.7-.65-4.7-2s.55-1.48-.76-2.65-1.73-2-.9-2.58c.83-.58,2.49.13,2.97.71Z"/>
            <path class="cls-8" d="m229.45,207.18c2.28,1.1,3.18,3.29,4.29,2.9s.69-1.03,1.52-3.36c.83-2.32.9-4.71,1.94-3.74s.07,2.86,1.73,3.46c1.66.6,2.01,1.06,2.35,2.86.35,1.81.69,1.23,2.42,3.1,1.73,1.87,3.28,1.55,3.58,3.68.3,2.13,3.2,4.32,3.34,6.52.14,2.19.55,3.74-1.18,6.52-1.73,2.78-2.42,4.19-2.97,5.36-.55,1.16-2.21,1.74-4.01,1.74s-2.84-.71-3.94-.45c-1.11.26-1.87,1.55-3.18.65s-2.07-2.07-2.49-2.78c-.41-.71-.62-3.1-2.56-2.84-1.94.26-1.66,1.16-2.84,0s-.35-2.13-3.8-2.65c-3.46-.52-4.36-.77-5.81-.45-1.45.32-2.97.77-4.57,1.94s-4.08.58-5.46,1.16c-1.38.58-3.46,1.87-4.98,1.1s-.97-1.16-.9-2.97c.07-1.81-.07-.58-1.04-3.68s-.55-2.65-1.45-4.13c-.9-1.48-1.59-.77-.35-2.9,1.24-2.13.83-2.58,1.52-3.29.69-.71,1.31.19,3.67-1.29,2.35-1.48,3.04-.84,5.19-1.61s2.63-3.74,3.94-4.65c1.31-.9,1.66-1.61,2.63-1.61s2.07.52,3.8,1.16,1.38.71,2.84-.77c1.45-1.48,0-2.9,2.63-2.65,2.63.26,3.6-.13,3.94,1.29.35,1.42.21,2.39.21,2.39Z"/>
            <path class="cls-8" d="m277.45,237.65c1.38-1.68,2.08-1.87,1.59-3.81s-.35-3.45,1.45-1.73,3.8,2.7,5.19,2.76c1.38.06,4.7,1.03,1.31,3.42-3.39,2.39-2.77.71-5.46,4.26-2.7,3.55-.62,3.61-3.87,5.36-3.25,1.74-6.85,2.52-6.16.97.69-1.55.35-1.55,3.32-3.61,2.97-2.07,4.91-3.61,4.91-5.36,0-1.74-2.28-2.26-2.28-2.26Z"/>
            <path class="cls-8" d="m112.29,220.22c-1.25-1.68-1.25-2.19-1.38-4.9-.14-2.71-1.11-4,0-5.55s4.01-4.13,5.12-5.94c1.11-1.81,1.38-5.68,2.07-2.19.69,3.49,2.91,5.55-.42,10.2-3.32,4.65-5.4,8.39-5.4,8.39Z"/>
            <path class="cls-8" d="m45.76,124.18c-.28-.52.97-2.19.97-2.19,0,0,1.52-.77,1.11-3.61s-.69-1.16-1.8-3.87c-1.11-2.71-2.77-2.19-1.11-4,1.66-1.81,3.6-4.52,4.01-2.32s-.55,3.61.42,4.65c.97,1.03,2.91,1.25,4.01,2.95,1.11,1.7,5.53,2.35,2.21,4.54-3.32,2.19-4.84.77-6.09,2.32-1.25,1.55-3.73,1.55-3.73,1.55Z"/>
            <path class="cls-8" d="m41.33,122.12c2.21-1.16,3.02-.9,2.89-2.97-.13-2.07,1.39-3.87-.96-4-2.35-.13-3.04,1.16-3.32,2.07-.28.9-.28,1.16.42,2.07s.83,2.19.55,2.84c-.28.65.42,0,.42,0Z"/>
            <path class="cls-8" d="m33.31,101.98c1.8-1.16,4.7-.13,4.84-2.58.14-2.45.83-3.1-3.18-3.36q-4.01-.26-6.5,0c-2.49.26-4.84-2.07-2.91,1.42,1.94,3.49,2.21,4.26,3.74,4.52,1.52.26,4.01,0,4.01,0Z"/>
            <path class="cls-8" d="m311.75,92.69c-2.16-2.3-5.67-2.45-2.91-3.87,2.77-1.42,4.43-2.32,7.06-2.84,2.63-.52,5.39.52,9.68,1.55,4.29,1.03,11.2.13,14.39,1.03,3.18.9,4.7,2.71,5.67,2.58.97-.13,3.73-2.84,6.5-2.84s4.15-.39,9.82.26c5.67.65,11.2.9,11.34,2.19.14,1.29.14,1.94,2.21,1.94s3.87-1.16,5.12.65c1.24,1.81,3.18,3.1,2.91,1.68-.28-1.42-1.66-2.58-.55-3.1,1.11-.52,4.29-.77,5.12-.52.83.26,3.46.65,4.29.52.83-.13.28-1.42,3.04-.65,2.77.77,3.18,2.71,3.73,2.84.55.13,1.8-1.98,1.94-3.38.14-1.4,1.38-1.4-1.11-3.2-2.49-1.81-.24-4,1.54-3.23s.67,1.81,2.47,3.49c1.8,1.68,2.08,3.1,3.32,2.58,1.24-.52.55-2.71,2.21-1.03s2.08.83,3.6.54c1.52-.29.28-1.19,2.08-.29s4.84,1.94,2.63,3.61c-2.21,1.68-5.53,1.42-7.88,2.71-2.35,1.29-1.66.9-2.35,2.45-.69,1.55-.42,1.68-3.18,2.32-2.77.65-3.6.13-3.46,2.32.14,2.19-.14,2.45-1.11,3.61-.97,1.16-.42,2.19.69,2.71s2.35-.39,2.35,1.16,2.08,2.71,4.84,2.71,4.01.65,5.67,2.58c1.66,1.94-.69,2.07,2.08,4.52,2.77,2.45,5.39,3.61,5.81,1.42s0-2.71.42-5.29,3.04-2.84,1.66-5.16c-1.38-2.32-3.46-3.36-1.52-4.65,1.94-1.29-.42-2.48,2.91-3.11,3.32-.63,5.53-1.15,6.92,1.18s-.14,3.87,1.24,4.9c1.38,1.03,5.67-.52,6.5-1.42.83-.9,3.18-.77,4.01,2.58s1.38,4.26,2.63,4.65,1.24,1.16,2.77,2.45c1.52,1.29,4.43,3.36,0,3.74s-8.02-.13-9.68,1.29-1.8.39-.69,2.32c1.11,1.94.28.65,1.11,3.1s4.98,2.45,1.94,4.13-2.49,2.07-4.29,1.55-2.21-4.22-4.29-1.21c-2.08,3.02-1.8,4.18-3.6,5.08s-1.94-.9-3.6,1.94c-1.66,2.84.97,3.1-2.77,6.33-3.73,3.23-5.53,1.68-5.81,4.39s1.52,5.94.55,6.58c-.97.65-.83.52-1.94-1.29-1.11-1.81-.55-2.84-4.43-3.1-3.87-.26-3.6-1.16-5.12.39s.55,2.07-3.73,1.55-4.84-5.29-5.67.26c-.83,5.55-.97,6.2.42,7.74s5.12,5.29,6.78,3.61c1.66-1.68-.42-3.74,2.77-3.1,3.18.65,4.01-.13,3.46,1.55-.55,1.68-4.84,1.94-1.38,3.49s6.36-.26,6.64,2.19c.28,2.45-.42,3.1-.28,4.52s.83,2.45,4.01,2.45,3.04-1.16,3.87.39c.83,1.55,3.46.77,4.57-1.42s1.94-4.65,3.6-2.07c1.66,2.58,1.94,3.1,3.6,2.07l1.66-1.03s1.8-1.55,3.32-.26c1.52,1.29,4.01-.13,4.57,1.68.55,1.81-.28,2.07,2.08,2.71,2.35.65,5.12-.39,6.5,1.42,1.38,1.81-2.35.65,1.66,2.84,4.01,2.19,5.26,2.45,4.98,3.87-.28,1.42.83,1.68,4.43,2.45s3.04.39,5.95,2.45c2.91,2.07,5.26,1.16,6.23,2.19.97,1.03,2.63,1.29,1.24,4.13-1.38,2.84-2.77,2.19-3.87,4.39-1.11,2.19-2.08,2.71-1.8,6.58s.42,3.49-.42,5.42c-.83,1.94-3.87,2.19-6.36,3.61-2.49,1.42-2.63.26-4.29,4.13-1.66,3.87-.69,1.81-2.08,5.16-1.38,3.36.55,1.68-3.46,3.61-4.01,1.94-5.53.26-5.95,1.42-.42,1.16,2.35.26-.55,2.71-2.91,2.45-4.15,3.1-5.95,4.13-1.8,1.03-2.91,2.19-2.49,4.39s2.49,2.07.14,4.13c-2.35,2.07-3.32,0-4.01,3.36-.69,3.36-1.38,1.81-.69,5.29.69,3.49,4.29,3.49.97,5.42s-6.92,2.84-8.99-1.81c-2.08-4.65-2.08-6.45-2.08-9.55s-.42-.77,1.24-6.07c1.66-5.29-1.11-3.49.28-9.29,1.38-5.81,1.11-12,2.49-16.26,1.38-4.26,4.43-3.1,1.38-6.97-3.04-3.87-3.6-3.23-6.22-5.81-2.63-2.58-.97-2.07-2.49-5.16-1.52-3.1-2.49-2.84-3.73-5.16s-1.94-1.55-.69-5.42c1.24-3.87-1.52-3.74,1.24-4.9s2.35-4,1.94-5.03c-.42-1.03,2.08-1.42-1.8-1.94-3.87-.52-4.98.65-6.36-1.55s-.28-2.58-3.18-3.87c-2.91-1.29-6.09-1.29-7.19-2.32l-1.11-1.03s2.08-.77-2.63-1.29-8.16,0-10.51-3.1c-2.35-3.1-1.8-1.29-2.35-4.13-.55-2.84-1.24-2.84-3.46-4.65-2.21-1.81-2.21-2.84-4.29-3.61-2.08-.77-2.49-.52-2.49-.13s-.14,1.94,1.8,3.36c1.94,1.42,2.08,2.71,2.08,3.36s-2.63,1.42-2.63,1.42c0,0,0-.77-.83-2.58-.83-1.81-1.11-2.71-2.77-4.9s-2.08-2.45-2.08-2.45c0,0-1.94-2.84-5.26-6.58-3.32-3.74-4.29-1.42-4.29-5.68s.83-4.26,0-7.23-2.77-4.39-1.11-4.9c1.66-.52,2.63-1.29-.42-3.74s-4.15-1.16-5.26-4.52c-1.11-3.36,1.24-3.1-3.32-4.65s-5.12-2.84-7.19-3.74-3.32-1.42-3.32-1.42c0,0,.42-.39-4.57-.77s-4.43-2.58-8.16-1.16c-3.73,1.42-4.29,1.68-4.29,1.68,0,0,2.08-2.32-1.52-2.07s-2.77,1.03-2.91,2.58c-.14,1.55.42,3.36-2.08,4.26-2.49.9-6.09,3.36-4.7.77,1.38-2.58,4.84-4.39,3.6-5.03-1.24-.65-3.87,1.42-4.15-.65-.28-2.07.28-3.1-2.63-3.23s-5.26-1.29-3.04-2.19c2.21-.9,4.29-.52,4.98-2.71.69-2.19,5.81-2.71.14-2.58-5.67.13-8.16.13-7.47-.9.69-1.03.42-2.97,4.43-2.45,4.01.51,4.01-1.04,3.04-2.07Z"/>
          </g>
          <g>
            <path class="cls-2" d="m84.9,202.68c-.61-1.28-1.37-2.34-2.36-3.19-1.07-.85-2.21-1.49-3.58-1.99-1.29-.43-2.74-.64-4.18-.64-1.52,0-2.97.21-4.26.64-.15.07-.38.14-.53.21-1.07.5-2.13,1.06-2.97,1.77-1.07.85-1.83,1.92-2.44,3.19-.61,1.21-.91,2.7-.91,4.26v14.34c0,1.63.3,3.05.91,4.33.61,1.28,1.37,2.27,2.44,3.2.99.85,2.21,1.49,3.5,1.92,1.29.43,2.74.64,4.26.64.68,0,1.45-.07,2.13-.14.68-.14,1.45-.28,2.05-.5,1.37-.43,2.51-1.06,3.58-1.92.99-.92,1.75-1.92,2.36-3.2.61-1.28.91-2.7.91-4.33v-14.34c0-1.56-.3-3.05-.91-4.26Zm-5.71,18.53c0,1.49-.46,2.56-1.22,3.41-.76.71-1.67,1.13-2.82,1.21h-.38c-1.37,0-2.44-.43-3.27-1.21-.76-.85-1.22-1.92-1.22-3.41v-14.13c0-.28,0-.5.08-.71,0-.07.08-.14.08-.14.08-1.06.46-1.85,1.07-2.56.15-.14.3-.28.46-.35.76-.64,1.67-.85,2.82-.85,1.29,0,2.36.36,3.2,1.21.76.85,1.22,1.99,1.22,3.41v14.13h0Z"/>
            <path class="cls-2" d="m102.55,197.15l-7.38,6.03v6.67l7.38-6.03v27.26h6.7v-33.93h-6.7Z"/>
            <path class="cls-2" d="m121.5,197.15v10.93h6.32v-5.32h9.66l-11.87,28.33h7.23l11.79-28.33v-5.61h-23.13Z"/>
            <path class="cls-2" d="m172.01,202.68c-.61-1.28-1.37-2.34-2.36-3.19-1.07-.85-2.21-1.49-3.58-1.99-1.37-.43-2.74-.64-4.18-.64-1.52,0-2.97.21-4.26.64-1.37.5-2.51,1.14-3.5,1.99-1.07.85-1.9,1.92-2.44,3.19-.61,1.21-.91,2.7-.91,4.26v14.34c0,1.63.3,3.05.91,4.33.53,1.28,1.37,2.27,2.44,3.2.99.85,2.13,1.49,3.5,1.92,1.29.43,2.74.64,4.26.64s2.82-.21,4.18-.64c1.37-.43,2.51-1.06,3.58-1.92.99-.92,1.75-1.92,2.36-3.2.61-1.28.91-2.7.91-4.33v-14.34c0-1.56-.3-3.05-.91-4.26Zm-5.78,18.53c0,1.49-.38,2.56-1.14,3.41-.84.78-1.9,1.21-3.2,1.21-1.37,0-2.43-.43-3.27-1.21-.76-.85-1.22-1.92-1.22-3.41v-14.13c0-1.42.46-2.56,1.22-3.41.84-.85,1.9-1.21,3.27-1.21,1.29,0,2.36.36,3.2,1.21.76.85,1.14,1.99,1.14,3.41v14.13Z"/>
            <path class="cls-2" d="m227.7,216.6c-.46-1.28-1.22-2.34-2.13-3.19s-1.9-1.49-3.04-1.99c-1.14-.43-2.36-.64-3.58-.64-.46,0-.91,0-1.37.07-.46.07-.91.14-1.29.35l2.51-4.61,5.02-9.44h-7.23l-.76,1.42v.07l-.91,1.7-6.01,11.5c-.08.14-.15.28-.23.43-.76,1.42-1.37,2.77-1.9,4.12-.61,1.42-.91,2.98-.91,4.54s.23,3.12.84,4.47c.61,1.28,1.37,2.41,2.44,3.27.76.71,1.52,1.21,2.51,1.63h.08c.3.14.68.28.99.43,1.37.43,2.89.64,4.49.64s3.04-.21,4.41-.71c1.45-.43,2.59-1.14,3.65-2.06l.08-.07c.99-.92,1.75-1.92,2.28-3.27.61-1.28.91-2.77.91-4.47,0-1.56-.3-2.91-.84-4.19Zm-10.5-.71c1.45,0,2.59.43,3.42,1.35.84.85,1.29,2.13,1.29,3.62s-.46,2.84-1.37,3.69c-.91.85-1.98,1.28-3.35,1.28s-2.51-.43-3.42-1.28c-.84-.85-1.29-2.13-1.29-3.69s.46-2.84,1.29-3.69c.91-.85,2.05-1.28,3.42-1.28Z"/>
            <path class="cls-2" d="m257.07,214.9c-.3-1.49-1.22-2.98-2.66-4.26-.76-.71-1.67-1.28-2.82-1.7-1.14-.43-2.43-.64-4.03-.64-1.22,0-2.28.21-3.27.57-.99.35-1.67.71-2.13,1.14v-7.24h14.68v-5.61h-20.77v19.17h6.09c.23-.64.68-1.28,1.37-1.85.46-.43.99-.71,1.75-.78.38-.14.84-.14,1.29-.14,1.67,0,2.82.57,3.42,1.56.68,1.06,1.07,2.56,1.07,4.54,0,1.06-.15,2.06-.3,2.98,0,.14-.08.21-.15.28v.07c-.23.71-.53,1.28-.99,1.7-.84.78-1.83,1.14-3.2,1.14s-2.44-.36-3.12-1.14c-.68-.71-1.14-1.7-1.29-3.05h-6.7c.15,1.21.38,2.41.76,3.62.38,1.28,1.07,2.34,2.21,3.41.76.78,1.9,1.35,3.27,1.92,1.29.57,2.97.78,4.87.78.68,0,1.22,0,1.75-.14h.08c1.14-.07,2.13-.28,3.04-.64,1.29-.57,2.36-1.21,3.2-1.92,1.29-1.28,2.13-2.63,2.59-4.05.38-1.42.61-3.05.61-4.97,0-1.63-.23-3.2-.61-4.76Z"/>
            <path class="cls-2" d="m263.99,197.15v10.93h6.32v-5.32h9.66l-11.79,28.33h7.15l11.87-28.33v-5.61h-23.2Z"/>
            <path class="cls-2" d="m314.88,202.9c-.53-1.35-1.37-2.41-2.36-3.34-1.07-.85-2.21-1.56-3.65-1.99-1.37-.5-2.82-.71-4.41-.71s-3.12.21-4.49.71c-1.37.5-2.59,1.21-3.65,2.06-.99.92-1.75,2.06-2.36,3.34-.61,1.35-.91,2.84-.91,4.47s.3,3.05.84,4.26c.53,1.21,1.29,2.27,2.13,3.12.91.85,1.98,1.56,3.12,1.99,1.14.5,2.36.71,3.58.71.46,0,.91,0,1.37-.07s.91-.21,1.29-.36l-7.53,13.99h7.23l7.68-14.62c.84-1.56,1.52-3.12,2.13-4.54.61-1.49.91-2.98.91-4.54,0-1.7-.3-3.2-.91-4.47Zm-7.07,8.16c-.91.85-1.98,1.28-3.35,1.28-1.45,0-2.59-.43-3.42-1.28-.91-.92-1.29-2.13-1.29-3.62,0-1.63.46-2.84,1.29-3.69.91-.85,2.05-1.28,3.42-1.28s2.43.43,3.35,1.28,1.29,2.06,1.29,3.69c0,1.56-.38,2.77-1.29,3.62Z"/>
            <path class="cls-2" d="m358.48,197.15l-7.46,6.03v6.67l7.46-6.03v27.26h6.62v-33.93h-6.62Z"/>
            <path class="cls-2" d="m377.34,197.15v10.93h6.39v-5.32h9.59l-11.79,28.33h7.23l11.79-28.33v-5.61h-23.2Z"/>
            <path class="cls-2" d="m416.52,197.15l-7.38,6.03v6.67l7.38-6.03v27.26h6.69v-33.93h-6.69Z"/>
            <path class="cls-2" d="m457.3,202.9c-.53-1.35-1.37-2.41-2.36-3.34-1.07-.85-2.21-1.56-3.65-1.99-1.37-.5-2.82-.71-4.41-.71s-3.12.21-4.49.71c-1.37.5-2.59,1.21-3.65,2.06-.99.92-1.83,2.06-2.36,3.34-.61,1.35-.91,2.84-.91,4.47s.3,3.05.84,4.26c.53,1.21,1.29,2.27,2.13,3.12.91.85,1.9,1.56,3.12,1.99,1.14.5,2.36.71,3.58.71.46,0,.91,0,1.37-.07.46-.07.91-.21,1.29-.36l-7.53,13.99h7.23l7.68-14.62c.84-1.56,1.52-3.12,2.13-4.54.61-1.49.91-2.98.91-4.54,0-1.7-.3-3.2-.91-4.47Zm-7.07,8.16c-.91.85-1.98,1.28-3.35,1.28-1.45,0-2.59-.43-3.42-1.28-.91-.92-1.29-2.13-1.29-3.62,0-1.63.46-2.84,1.29-3.69.91-.85,2.05-1.28,3.42-1.28s2.43.43,3.35,1.28,1.29,2.06,1.29,3.69-.38,2.77-1.29,3.62Z"/>
          </g>
          <g>
            <path class="cls-2" d="m323.4,286.53c-.46-.92-1.07-1.7-1.75-2.34-.76-.64-1.6-1.14-2.59-1.42-.99-.36-2.05-.5-3.12-.5-1.14,0-2.13.14-3.12.5-.99.28-1.83.78-2.59,1.42-.76.64-1.37,1.42-1.83,2.34-.38.92-.61,1.99-.61,3.12v10.51c0,1.21.23,2.27.61,3.2.46.92,1.07,1.7,1.83,2.34.76.64,1.6,1.14,2.59,1.42.99.36,1.98.5,3.12.5,1.07,0,2.13-.14,3.12-.5.99-.28,1.83-.78,2.59-1.42.68-.64,1.29-1.42,1.75-2.34s.61-1.99.61-3.2v-10.51c0-1.13-.15-2.2-.61-3.12Zm-4.26,13.63c0,1.06-.3,1.85-.84,2.49-.61.57-1.37.85-2.36.85s-1.75-.28-2.36-.85c-.61-.64-.91-1.42-.91-2.49v-10.44c0-.99.3-1.85.91-2.49.61-.57,1.37-.85,2.36-.85s1.75.28,2.36.85c.53.64.84,1.49.84,2.49v10.44Z"/>
            <path class="cls-2" d="m345.16,295.54c-.23-1.14-.91-2.2-1.98-3.2-.53-.5-1.22-.92-2.05-1.21-.84-.35-1.83-.5-2.97-.5-.84,0-1.67.14-2.36.43-.76.21-1.29.5-1.6.85v-5.4h10.8v-4.05h-15.29v14.06h4.49c.15-.5.53-.92.99-1.35.53-.43,1.22-.71,2.28-.71,1.14,0,1.98.43,2.51,1.21.46.78.68,1.85.68,3.34,0,.78,0,1.49-.15,2.13-.15.64-.46,1.14-.84,1.56-.61.57-1.37.78-2.36.78s-1.83-.21-2.28-.78c-.53-.57-.84-1.28-.99-2.27h-4.87c.08.92.23,1.77.53,2.7.3.85.84,1.7,1.67,2.48.53.5,1.37.99,2.36,1.42.99.36,2.21.57,3.58.57s2.59-.21,3.58-.57c.91-.43,1.75-.92,2.36-1.49.91-.85,1.6-1.85,1.9-2.91.3-.99.46-2.27.46-3.62,0-1.21-.15-2.34-.46-3.48Z"/>
            <path class="cls-2" d="m359.08,279.86l-10.73,30.17h4.56l10.73-30.17h-4.56Z"/>
            <path class="cls-2" d="m373.77,282.48l-5.48,4.4v4.9l5.48-4.4v20.02h4.87v-24.92h-4.87Z"/>
            <path class="cls-2" d="m395.07,282.48l-5.48,4.4v4.9l5.48-4.4v20.02h4.87v-24.92h-4.87Z"/>
            <path class="cls-2" d="m409.3,295.26v4.26h11.56v-4.26h-11.56Z"/>
            <path class="cls-2" d="m441.71,286.53c-.46-.92-1.07-1.7-1.83-2.34-.68-.64-1.6-1.14-2.59-1.42-.99-.36-1.98-.5-3.04-.5-1.14,0-2.13.14-3.12.5-.99.28-1.83.78-2.59,1.42-.76.64-1.37,1.42-1.83,2.34-.46.92-.61,1.99-.61,3.12v10.51c0,1.21.15,2.27.61,3.2.46.92,1.07,1.7,1.83,2.34.76.64,1.6,1.14,2.59,1.42.99.36,1.98.5,3.12.5,1.07,0,2.05-.14,3.04-.5.99-.28,1.9-.78,2.59-1.42.76-.64,1.37-1.42,1.83-2.34.38-.92.61-1.99.61-3.2v-10.51c0-1.13-.23-2.2-.61-3.12Zm-4.26,13.63c0,1.06-.3,1.85-.91,2.49-.53.57-1.37.85-2.28.85-.99,0-1.83-.28-2.36-.85-.61-.64-.91-1.42-.91-2.49v-10.44c0-.99.3-1.85.91-2.49.53-.57,1.37-.85,2.36-.85.91,0,1.75.28,2.28.85.61.64.91,1.49.91,2.49v10.44Z"/>
            <path class="cls-2" d="m463.01,286.53c-.46-.92-1.07-1.7-1.75-2.34-.76-.64-1.6-1.14-2.59-1.42-.99-.36-2.05-.5-3.12-.5-1.14,0-2.13.14-3.12.5-.99.28-1.83.78-2.59,1.42-.76.64-1.37,1.42-1.83,2.34-.38.92-.61,1.99-.61,3.12v10.51c0,1.21.23,2.27.61,3.2.46.92,1.07,1.7,1.83,2.34.76.64,1.6,1.14,2.59,1.42.99.36,1.98.5,3.12.5,1.07,0,2.13-.14,3.12-.5.99-.28,1.83-.78,2.59-1.42.68-.64,1.29-1.42,1.75-2.34s.61-1.99.61-3.2v-10.51c0-1.13-.15-2.2-.61-3.12Zm-4.26,13.63c0,1.06-.3,1.85-.84,2.49-.61.57-1.37.85-2.36.85s-1.75-.28-2.36-.85c-.61-.64-.91-1.42-.91-2.49v-10.44c0-.99.3-1.85.91-2.49.61-.57,1.37-.85,2.36-.85s1.75.28,2.36.85c.53.64.84,1.49.84,2.49v10.44Z"/>
          </g>
          <g>
            <path class="cls-2" d="m67.48,239.81v2.27h3.65v10.72h2.74v-10.72h3.65v-2.27h-10.04Z"/>
            <path class="cls-2" d="m89.85,243.22c-.15-.43-.23-.78-.46-1.14-.15-.36-.46-.71-.84-1.06-.46-.43-.99-.78-1.6-.99-.61-.21-1.29-.36-2.05-.36-.84,0-1.52.14-2.13.36-.61.21-1.14.57-1.6.99-.38.35-.68.71-.84,1.06-.23.36-.31.71-.46,1.14-.08.43-.08.92-.15,1.42v3.34c.08.5.08.92.15,1.35.15.43.23.85.46,1.21.15.28.46.64.84.99.46.43.99.78,1.6.99.61.28,1.29.36,2.13.36.76,0,1.45-.07,2.05-.36.61-.21,1.14-.57,1.6-.99.38-.35.68-.71.84-.99.23-.35.3-.78.46-1.21.08-.43.15-.85.15-1.35v-3.34c0-.5-.08-.99-.15-1.42Zm-2.59,4.62c0,.43-.08.71-.15.99,0,.28-.08.5-.15.64-.08.14-.23.28-.38.43-.15.21-.38.43-.68.5-.3.14-.61.21-.99.21s-.76-.07-1.07-.21c-.23-.07-.53-.28-.76-.5-.08-.14-.23-.28-.31-.43-.08-.14-.15-.36-.15-.64-.08-.28-.15-.57-.15-.99v-3.12c0-.35.08-.71.15-.99,0-.28.08-.5.15-.64.08-.14.23-.28.31-.43.23-.21.53-.35.76-.5.31-.14.68-.21,1.07-.21s.68.07.99.21.53.28.68.5c.15.14.31.28.38.43.08.14.15.35.15.64.08.28.15.64.15.99v3.12Z"/>
            <path class="cls-2" d="m102.93,242.3c-.15-.5-.46-.92-.91-1.28-.38-.43-.84-.71-1.45-.92-.53-.21-1.22-.28-1.9-.28h-5.4v12.99h2.74v-4.9h2.66c.68,0,1.37-.14,1.9-.36.61-.21,1.07-.5,1.45-.85.46-.35.76-.78.91-1.28.23-.5.3-1.06.3-1.56,0-.57-.07-1.06-.3-1.56Zm-2.89,2.84c-.38.28-.91.5-1.52.5h-2.51v-3.55h2.51c.61,0,1.14.14,1.52.43.3.35.53.78.53,1.35,0,.5-.23.92-.53,1.28Z"/>
            <path class="cls-2" d="m115.18,242.09v-2.27h-9.13v12.99h9.13v-2.27h-6.39v-3.19h5.48v-2.27h-5.48v-2.98h6.39Z"/>
            <path class="cls-2" d="m124.61,250.11c-.38.35-.91.5-1.6.5-.38,0-.68-.07-.99-.14-.3-.14-.53-.28-.76-.5-.08-.14-.23-.28-.3-.5-.08-.14-.15-.36-.23-.64,0-.28-.08-.57-.08-.99s-.08-.92-.08-1.56.08-1.14.08-1.56c0-.35.08-.71.08-.99.08-.28.15-.5.23-.64.08-.14.23-.36.3-.43.23-.21.46-.43.76-.5.3-.14.61-.21.99-.21.68,0,1.22.14,1.6.5.38.35.61.78.76,1.35h2.74c-.23-1.35-.84-2.41-1.75-3.05-.91-.71-2.05-1.07-3.35-1.07-.76,0-1.52.14-2.13.36-.53.21-1.14.57-1.6.99-.31.35-.61.71-.84,1.06-.15.36-.3.71-.38,1.14-.08.43-.15.92-.15,1.42v3.34c0,.5.08.92.15,1.35.08.43.23.85.38,1.21.23.28.53.64.84.99.46.43,1.07.78,1.6.99.61.28,1.37.36,2.13.36,1.29,0,2.44-.36,3.35-.99.91-.71,1.52-1.7,1.75-3.12h-2.74c-.15.57-.38.99-.76,1.35Z"/>
            <path class="cls-2" d="m140.74,244.64c0-.5-.08-.99-.15-1.42-.08-.43-.23-.78-.46-1.14-.15-.36-.46-.71-.76-1.06-.46-.43-.99-.78-1.6-.99-.61-.21-1.29-.36-2.13-.36s-1.52.14-2.13.36c-.61.21-1.14.57-1.6.99-.38.35-.61.71-.84,1.06-.15.36-.3.71-.38,1.14-.08.43-.15.92-.15,1.42s-.08.99-.08,1.63.08,1.21.08,1.7.08.92.15,1.35c.08.43.23.85.38,1.21.23.28.46.64.84.99.46.43.99.78,1.6.99.61.28,1.29.36,2.13.36s1.52-.07,2.13-.36c.61-.21,1.14-.57,1.6-.99.3-.35.61-.71.76-.99.23-.35.38-.78.46-1.21.08-.43.15-.85.15-1.35s.08-1.06.08-1.7-.08-1.14-.08-1.63Zm-2.74,3.2c0,.43-.08.71-.08.99-.08.28-.15.5-.23.64s-.15.28-.3.43c-.23.21-.46.43-.76.5-.3.14-.61.21-.99.21s-.68-.07-.99-.21c-.3-.07-.53-.28-.76-.5-.15-.14-.23-.28-.3-.43-.15-.14-.15-.36-.23-.64-.08-.28-.08-.57-.15-.99v-3.12c.08-.35.08-.71.15-.99.08-.28.08-.5.23-.64.08-.14.15-.28.3-.43.23-.21.46-.35.76-.5.3-.14.61-.21.99-.21s.68.07.99.21c.3.14.53.28.76.5.15.14.23.28.3.43.08.14.15.35.23.64,0,.28.08.64.08.99.08.43.08.92.08,1.56s0,1.14-.08,1.56Z"/>
            <path class="cls-2" d="m152,239.81v7.95l-5.55-7.95h-2.44v12.99h2.74v-8.02l5.55,8.02h2.43v-12.99h-2.74Z"/>
            <path class="cls-2" d="m173.38,247.84c-.15-.36-.38-.71-.68-.99-.15-.14-.3-.28-.46-.35-.15-.14-.3-.21-.61-.35,1.14-.64,1.75-1.49,1.75-2.77,0-.57-.15-1.06-.3-1.49-.23-.43-.53-.78-.91-1.13-.3-.21-.53-.36-.91-.5-.08-.07-.23-.14-.38-.21-.61-.14-1.14-.21-1.83-.21h-5.55v12.99h5.78c.68,0,1.29-.14,1.75-.28.53-.21.99-.43,1.37-.78.38-.28.68-.71.84-1.14.23-.43.3-.99.3-1.56,0-.43-.08-.85-.16-1.21Zm-7.23-5.75h2.66c.15,0,.3,0,.38.07.46,0,.68.07.99.28.3.28.46.64.46,1.14,0,.43-.15.78-.46,1.06-.38.28-.76.43-1.37.43h-2.66v-2.98Zm4.19,8.02c-.3.28-.76.43-1.29.43h-2.89v-3.19h2.89c.53,0,.99.14,1.29.43.3.28.53.64.53,1.14,0,.5-.23.92-.53,1.21Z"/>
            <path class="cls-2" d="m182.51,239.81h-2.13l-5.1,12.99h2.82l.84-2.34h4.95l.84,2.34h2.82l-5.02-12.99Zm-2.82,8.52l1.83-4.69,1.67,4.69h-3.5Z"/>
            <path class="cls-2" d="m197.73,239.81v7.95l-5.55-7.95h-2.36v12.99h2.66v-8.02l5.55,8.02h2.44v-12.99h-2.74Z"/>
            <path class="cls-2" d="m210.51,244.92l4.56-5.11h-3.27l-4.95,5.61v-5.61h-2.66v12.99h2.66v-3.91l1.83-2.06,3.58,5.96h3.2l-4.94-7.88Z"/>
          </g>
          <g>
            <path class="cls-2" d="m355.81,158.46c-.38.36-.91.5-1.6.5-.38,0-.68-.07-.99-.21-.3-.07-.53-.28-.76-.43-.08-.14-.23-.28-.3-.5-.08-.14-.15-.36-.23-.64,0-.28-.08-.64-.08-.99,0-.43-.08-.92-.08-1.56s.08-1.14.08-1.56.08-.71.08-.99c.08-.28.15-.5.23-.64.08-.21.23-.36.3-.5.23-.21.46-.35.76-.5.3-.07.61-.14.99-.14.68,0,1.22.14,1.6.5.38.35.61.78.76,1.35h2.74c-.23-1.42-.84-2.41-1.75-3.12-.91-.64-2.05-.99-3.35-.99-.76,0-1.52.14-2.05.36-.61.21-1.14.57-1.67.99-.3.36-.61.71-.76,1.06-.23.28-.38.71-.46,1.14s-.15.85-.15,1.35v3.41c0,.5.08.92.15,1.35.08.43.23.78.46,1.14.15.36.46.71.76,1.06.53.43,1.07.78,1.67.99.53.21,1.29.35,2.05.35,1.29,0,2.43-.35,3.35-1.06.91-.64,1.52-1.7,1.75-3.05h-2.74c-.15.57-.38.99-.76,1.35Z"/>
            <path class="cls-2" d="m369.58,155.48c.38-.07.68-.21.99-.43.3-.21.61-.43.84-.71.23-.28.38-.64.53-.99.08-.21.15-.5.15-.78.08-.14.08-.36.08-.5,0-.5-.15-1.07-.3-1.49-.23-.5-.53-.92-.91-1.28-.38-.35-.84-.64-1.45-.85-.3-.14-.53-.21-.91-.28h-.08c-.3-.07-.61-.07-.91-.07h-5.4v12.99h2.66v-5.18h1.98l2.74,5.18h3.12l-3.12-5.61Zm-.68-2.13c-.38.28-.84.5-1.45.5h-2.59v-3.48h2.59c.61,0,1.07.14,1.45.5.38.28.53.71.53,1.21,0,.57-.15.92-.53,1.28Z"/>
            <path class="cls-2" d="m384.65,150.36v-2.27h-9.21v12.99h9.21v-2.27h-6.47v-3.12h5.48v-2.27h-5.48v-3.05h6.47Z"/>
            <path class="cls-2" d="m397.81,152.28c0-.14-.08-.28-.08-.35,0-.36-.15-.71-.23-.99-.15-.35-.3-.64-.53-.92-.46-.64-1.07-1.14-1.75-1.42-.68-.28-1.45-.5-2.44-.5h-5.02v12.99h5.02c.99,0,1.75-.14,2.44-.43.38-.14.68-.36.99-.57.3-.21.53-.5.76-.85.23-.28.38-.57.53-.92.08-.28.23-.64.23-.99.08-.36.08-.78.15-1.21v-2.98c-.08-.28-.08-.57-.08-.85Zm-2.66,3.69c0,.35-.08.64-.08.92-.08.28-.08.5-.15.64-.08.21-.23.36-.3.5-.46.57-1.14.78-2.05.78h-2.05v-8.45h2.05c.91,0,1.6.28,2.05.85.08.14.23.28.3.5.08.14.08.36.15.64,0,.28.08.57.08.92v2.7Z"/>
            <path class="cls-2" d="m401.16,148.09v12.99h2.66v-12.99h-2.66Z"/>
            <path class="cls-2" d="m406.56,148.09v2.27h3.65v10.72h2.66v-10.72h3.65v-2.27h-9.97Z"/>
            <path class="cls-2" d="m430.52,158.46c-.38.36-.91.5-1.6.5-.38,0-.68-.07-.99-.21-.3-.07-.53-.28-.76-.43-.08-.14-.23-.28-.3-.5-.08-.14-.15-.36-.23-.64,0-.28-.08-.64-.08-.99-.08-.43-.08-.92-.08-1.56s0-1.14.08-1.56c0-.43.08-.71.08-.99.08-.28.15-.5.23-.64.08-.21.23-.36.3-.5.23-.21.46-.35.76-.5.3-.07.61-.14.99-.14.68,0,1.22.14,1.6.5.38.35.61.78.76,1.35h2.74c-.23-1.42-.84-2.41-1.75-3.12-.91-.64-2.05-.99-3.35-.99-.76,0-1.52.14-2.13.36-.53.21-1.14.57-1.6.99-.38.36-.61.71-.84,1.06-.15.28-.3.71-.38,1.14-.08.43-.15.85-.15,1.35v3.41c0,.5.08.92.15,1.35.08.43.23.78.38,1.14.23.36.46.71.84,1.06.46.43,1.07.78,1.6.99.61.21,1.37.35,2.13.35,1.29,0,2.44-.35,3.35-1.06.91-.64,1.52-1.7,1.75-3.05h-2.74c-.15.57-.38.99-.76,1.35Z"/>
            <path class="cls-2" d="m442.54,148.09h-2.13l-5.1,12.99h2.89l.84-2.27h4.95l.84,2.27h2.82l-5.1-12.99Zm-2.74,8.59l1.75-4.76,1.67,4.76h-3.42Z"/>
            <path class="cls-2" d="m457.22,155.48c.38-.07.68-.21.99-.43.3-.21.61-.43.84-.71.23-.28.38-.64.53-.99.15-.36.23-.78.23-1.28s-.08-1.07-.3-1.49c-.23-.5-.53-.92-.91-1.28-.38-.35-.84-.64-1.45-.85-.53-.21-1.14-.36-1.83-.36h-5.48v12.99h2.74v-5.18h1.9l2.74,5.18h3.12l-3.12-5.61Zm-.68-2.13c-.38.28-.84.5-1.45.5h-2.51v-3.48h2.51c.61,0,1.07.14,1.45.5.38.28.53.71.53,1.21,0,.57-.15.92-.53,1.28Z"/>
            <path class="cls-2" d="m473.12,151.93c-.08-.36-.15-.71-.3-.99-.08-.35-.3-.64-.46-.92-.53-.64-1.14-1.14-1.83-1.42-.61-.28-1.45-.5-2.43-.5h-5.02v12.99h5.02c.99,0,1.83-.14,2.43-.43.68-.28,1.29-.78,1.83-1.42.15-.28.38-.57.46-.92.15-.28.23-.64.3-.99,0-.36.08-.78.08-1.21v-2.98c0-.43-.08-.85-.08-1.21Zm-2.66,4.05c0,.35,0,.64-.08.92,0,.28-.08.5-.15.64-.08.21-.15.36-.3.5-.46.57-1.14.78-2.05.78h-2.05v-8.45h2.05c.91,0,1.6.28,2.05.85.15.14.23.28.3.5.08.14.15.36.15.64.08.28.08.57.08.92v2.7Z"/>
          </g>
          <g>
            <path class="cls-6" d="m474.62,30.44v50.04c0,2.01-1.77,3.66-3.92,3.66h-66.04c-2.16,0-3.92-1.65-3.92-3.66V30.44c0-2.01,1.77-3.66,3.92-3.66h66.04c2.16,0,3.92,1.65,3.92,3.66Z"/>
            <path class="cls-14" d="m460.12,38.9l11.49-10.72h-3.73l-9.89,9.3-1.52,1.42-1.14.99-7.84,7.31h-17.04l-1.52-1.42-6.31-5.89-2.51-2.41-9.97-9.3h-3.73l9.89,9.3,1.52,1.42h-15.75v2.41h18.41l4.87,4.61,1.29,1.28v2.84h-24.57v2.49h24.57v8.73h-24.57v2.41h24.57v2.91h.15l-4.79,4.4-1.52,1.42h-18.41v2.49h15.75l-9.89,9.23h3.73l9.89-9.23,8.9-8.31h17.04l18.87,17.54h3.65l-9.89-9.23h14.53v-2.49h-17.12l-6.24-5.82v-2.91h23.36v-2.41h-23.36v-8.73h23.36v-2.49h-23.36v-2.84l6.24-5.89h17.12v-2.41h-14.53Zm-11.41,25.2h-19.48v-14.48h19.48v14.48Z"/>
            <g>
              <path class="cls-10" d="m429.15,45.79l2.59,2.41h11.87l1.07-.99,1.52-1.42h-17.04Zm0,0l2.59,2.41h11.87l1.07-.99,1.52-1.42h-17.04Zm0,0l2.59,2.41h11.87l1.07-.99,1.52-1.42h-17.04Zm0,0l2.59,2.41h11.87l1.07-.99,1.52-1.42h-17.04Zm15.98,18.32l-1.52-1.42h-11.87l-1.45,1.42h-.08l-1.07,1.06h17.04l-1.07-1.06Zm-15.98-18.32l2.59,2.41h11.87l1.07-.99,1.52-1.42h-17.04Zm-3.8,0v19.38h24.65v-19.38h-24.65Zm22.06,16.9h-19.48v-14.48h19.48v14.48Zm-18.26-16.9l2.59,2.41h11.87l1.07-.99,1.52-1.42h-17.04Zm0,0l2.59,2.41h11.87l1.07-.99,1.52-1.42h-17.04Zm0,0l2.59,2.41h11.87l1.07-.99,1.52-1.42h-17.04Zm0,0l2.59,2.41h11.87l1.07-.99,1.52-1.42h-17.04Zm0,0l2.59,2.41h11.87l1.07-.99,1.52-1.42h-17.04Zm0,0l2.59,2.41h11.87l1.07-.99,1.52-1.42h-17.04Z"/>
              <g>
                <g>
                  <polygon class="cls-10" points="420.23 37.46 422.85 39.9 400.73 39.9 400.73 37.46 420.23 37.46"/>
                  <polygon class="cls-10" points="474.62 37.46 474.62 39.9 452.5 39.9 455.12 37.46 474.62 37.46"/>
                </g>
                <g>
                  <rect class="cls-10" x="400.73" y="48.65" width="27.22" height="2.44"/>
                  <rect class="cls-10" x="447.4" y="48.65" width="27.22" height="2.44"/>
                </g>
                <g>
                  <rect class="cls-10" x="400.73" y="59.84" width="27.22" height="2.44"/>
                  <rect class="cls-10" x="447.4" y="59.84" width="27.22" height="2.44"/>
                </g>
                <g>
                  <polygon class="cls-10" points="422.85 71.02 420.24 73.46 400.73 73.46 400.73 71.02 422.85 71.02"/>
                  <polygon class="cls-10" points="474.62 71.02 474.62 73.46 455.12 73.46 452.5 71.02 474.62 71.02"/>
                </g>
              </g>
              <g>
                <polygon class="cls-10" points="431.76 62.71 408.79 84.14 405.1 84.14 428.07 62.71 431.76 62.71"/>
                <polygon class="cls-10" points="470.26 26.78 447.29 48.21 443.6 48.21 466.56 26.78 470.26 26.78"/>
              </g>
              <g>
                <polygon class="cls-10" points="431.76 48.21 428.06 48.21 405.09 26.78 408.79 26.78 431.76 48.21"/>
                <polygon class="cls-10" points="470.26 84.14 466.56 84.14 446.21 65.15 445.12 64.13 443.59 62.71 447.29 62.71 448.71 64.03 449.91 65.15 451.33 66.48 456.2 71.02 457.73 72.45 458.81 73.46 460.34 74.89 470.26 84.14"/>
              </g>
            </g>
          </g>
          <g>
            <path class="cls-1" d="m79.02,48.65c0-7.64,3.38-14.54,8.81-19.48-5.26-4.79-12.44-7.74-20.37-7.74-16.11,0-29.17,12.19-29.17,27.22s13.06,27.22,29.17,27.22c7.93,0,15.11-2.95,20.37-7.74-5.43-4.94-8.81-11.84-8.81-19.48Z"/>
            <path class="cls-11" d="m108.19,21.42c-7.93,0-15.11,2.95-20.37,7.74,5.43,4.94,8.81,11.84,8.81,19.48s-3.38,14.54-8.81,19.48c5.26,4.79,12.44,7.74,20.37,7.74,16.11,0,29.17-12.19,29.17-27.22,0-15.04-13.06-27.22-29.17-27.22Z"/>
            <path class="cls-7" d="m96.63,48.65c0-7.64-3.38-14.54-8.81-19.48-5.43,4.94-8.81,11.84-8.81,19.48s3.38,14.54,8.81,19.48c5.43-4.94,8.81-11.84,8.81-19.48Z"/>
            <g>
              <path class="cls-11" d="m96.63,48.65c0-.57-.03-1.14-.06-1.71l-13.31-12.42c-.97,1.49-1.8,3.08-2.46,4.75l15.34,14.31c.32-1.6.49-3.25.49-4.93Z"/>
              <path class="cls-11" d="m79.32,44.8c-.19,1.26-.3,2.54-.3,3.85,0,1.05.07,2.08.19,3.09l12.65,11.81c1.02-1.45,1.89-2.99,2.6-4.61l-15.15-14.14Z"/>
            </g>
          </g>
          <rect class="cls-9" y="172.44" width="512" height="5.96"/>
        </g>
        <path class="cls-9" d="m512,13.99v294.2c0,8.38-7.38,15.26-16.36,15.26H82.09l81.4-75.96,2.66-2.49,3.04-2.84,2.05-1.92,42.38-39.54,2.21-2.06v-.07l1.45-1.28.15-.14,6.47-6.1,2.05-1.85,11.56-10.79,6.39-5.96,68.39-63.82,21.99-20.52L428.62,0h1.4s65.73,0,65.73,0c8.85.17,15.38,6.43,16.25,13.99Z"/>
      </g>
      <text class="cls-5" transform="translate(31.91 130.35)"><tspan x="0" y="0">NAE</tspan><tspan class="cls-3" x="113.88" y="0">B</tspan><tspan x="150.3" y="0">A</tspan><tspan class="cls-12" x="189.37" y="0">L</tspan><tspan class="cls-16" x="217.51" y="0">O</tspan><tspan class="cls-4" x="261.52" y="0">V</tspan><tspan x="299.27" y="0">O</tspan></text>
    </g>
  </g>
</svg>