<?xml version="1.0" encoding="UTF-8"?>
<svg id="_Слой_2" data-name="Слой 2" xmlns="http://www.w3.org/2000/svg" width="512" height="324.65" viewBox="0 0 512 324.65">
  <defs>
    <style>
      .cls-1 {
        opacity: .7;
      }

      .cls-2, .cls-3 {
        fill: #fff;
      }

      .cls-4 {
        fill: #cececf;
      }

      .cls-5, .cls-6 {
        opacity: .1;
      }

      .cls-5, .cls-7 {
        fill: #040000;
      }

      .cls-5, .cls-7, .cls-3 {
        isolation: isolate;
      }

      .cls-8 {
        font-family: MyriadPro-BoldIt, 'Myriad Pro';
        font-size: 41.88px;
        font-style: italic;
        font-weight: 700;
      }

      .cls-8, .cls-9 {
        fill: #ff6c6c;
      }

      .cls-10 {
        fill: #717070;
      }

      .cls-11 {
        fill: #e0e0e0;
      }

      .cls-12 {
        letter-spacing: 0em;
      }

      .cls-13 {
        letter-spacing: -.01em;
      }

      .cls-14 {
        fill: #ffd54f;
      }

      .cls-15 {
        fill: #424242;
      }

      .cls-16 {
        fill: #212121;
      }

      .cls-17 {
        fill: #ecedf7;
      }

      .cls-18 {
        letter-spacing: 0em;
      }

      .cls-7, .cls-3 {
        opacity: .2;
      }

      .cls-19 {
        letter-spacing: -.04em;
      }

      .cls-20 {
        letter-spacing: 0em;
      }
    </style>
  </defs>
  <g id="design-1">
    <g>
      <g class="cls-1">
        <path class="cls-16" d="m473.31,294.38h-158.48l-54.39-31.73c-10.7-6.24-15.02-19.5-10.06-30.84l25.98-59.37c4.85-11.09,15.81-18.26,27.92-18.26h179.57c12.11,0,23.07,7.17,27.92,18.26l.23,59.37"/>
        <path class="cls-15" d="m304.62,111.49c-.01,7.23,2.27,14.27,6.52,20.12l55.3,76.04c11.09,15.26,32.45,18.63,47.71,7.54,2.89-2.1,5.44-4.65,7.54-7.54l55.29-76.03c4.25-5.85,6.54-12.89,6.53-20.12-26.89-16.47-57.92-24.92-89.45-24.35-31.53-.57-62.56,7.88-89.45,24.35h0Z"/>
        <path class="cls-16" d="m421.69,15.4c-11.09-15.26-32.45-18.63-47.71-7.54-2.89,2.1-5.44,4.65-7.54,7.54l-55.29,76.03c-4.24,5.83-6.53,12.85-6.53,20.05,26.89-16.47,57.92-24.92,89.45-24.35,31.53-.57,62.56,7.88,89.45,24.35,0-7.21-2.28-14.23-6.52-20.05l-55.3-76.04Z"/>
        <path class="cls-11" d="m460.97,288.29h-133.81c-6.02,0-11.14-4.39-12.05-10.34l-10.32-67.05c-1.02-6.65,3.54-12.88,10.2-13.9.61-.09,1.23-.14,1.85-.14h154.46c6.73,0,12.19,5.46,12.19,12.19,0,.62-.05,1.24-.14,1.85l-10.32,67.05c-.92,5.95-6.04,10.34-12.06,10.34Z"/>
        <path class="cls-15" d="m327.01,288.29h134.1v12.19c0,3.37-2.73,6.1-6.1,6.1h-121.91c-3.37,0-6.1-2.73-6.1-6.1v-12.19Z"/>
        <path class="cls-14" d="m327.91,99.52c5.04,37.87,32.7,66.86,66.16,66.86s61.11-29,66.16-66.86c-21.06-8.31-43.52-12.51-66.16-12.38-22.64-.13-45.1,4.07-66.16,12.38Z"/>
        <circle class="cls-15" cx="394.06" cy="239.52" r="12.19"/>
        <g>
          <path d="m259.96,300.48h53.21l-55.82-32.56c-13.37-7.8-18.77-24.37-12.56-38.55l25.97-59.37c5.83-13.31,18.98-21.92,33.51-21.91h11.32l-9.38-12.9c-10.3-14.1-10.3-33.25,0-47.35l55.3-76.03c2.48-3.41,5.48-6.41,8.89-8.89,1.51-1.1,3.08-2.07,4.68-2.93H16.28C7.34,0,0,7.34,0,16.27v292.33c.15,8.79,7.34,15.89,16.05,16.05h226.64c-.65-1.88-1-3.89-1-5.96.02-10.08,8.2-18.23,18.28-18.21Z"/>
          <path d="m426.61,11.81l55.3,76.03c10.3,14.1,10.3,33.25,0,47.35l-9.39,12.9h11.31c11.06,0,21.32,4.99,28.16,13.24V16.27C512,7.34,504.59,0,495.65,0h-82.57c5.19,2.78,9.84,6.73,13.54,11.81Z"/>
          <rect x="333.11" y="294.38" width="121.92" height="6.1"/>
          <path d="m506.19,174.89c-3.88-8.87-12.65-14.61-22.33-14.61h-20.19l-22.16,30.48h29.79c.85,0,1.69.07,2.53.19,10.06,1.47,17.02,10.82,15.54,20.87l-10.32,67.05c-.35,2.27-1.12,4.45-2.27,6.43l35.23-20.55v-76.57l-5.82-13.29Z"/>
          <path d="m253.87,318.77c0,2.82,1.92,5.19,4.53,5.88h237.26c7.44,0,13.8-5.08,15.73-11.98h-251.42c-3.37,0-6.1,2.73-6.1,6.1Z"/>
          <polygon points="512 300.48 512 278.87 474.95 300.48 512 300.48"/>
          <path d="m474.66,99.47c-.73-1.56-1.6-3.06-2.61-4.46l-55.3-76.03c-1.73-2.38-3.82-4.47-6.19-6.19-12.53-9.11-30.08-6.34-39.19,6.19h0s-55.29,76.03-55.29,76.03c-1,1.4-1.88,2.9-2.61,4.46,25.04-12.41,52.66-18.72,80.6-18.43,27.94-.29,55.56,6.03,80.6,18.43Z"/>
          <path d="m327.15,282.19h133.83c3.01.01,5.58-2.19,6.02-5.17l10.31-67.05c.04-.28.06-.57.07-.86.02-3.38-2.7-6.14-6.09-6.16h-154.46c-.29,0-.57.02-.85.07-3.35.49-5.66,3.61-5.16,6.96l10.31,67.05c.45,2.98,3.01,5.18,6.02,5.17Zm66.91-60.96c10.1,0,18.29,8.19,18.29,18.29s-8.19,18.29-18.29,18.29c-10.1-.01-18.28-8.19-18.29-18.29,0-10.1,8.19-18.29,18.29-18.29Z"/>
          <path d="m298.77,211.83c-.12-.84-.19-1.68-.19-2.53-.07-10.16,8.1-18.46,18.27-18.54h29.79l-22.17-30.48h-20.18c-9.69,0-18.46,5.73-22.35,14.6l-25.97,59.37h0c-3.72,8.51-.48,18.46,7.55,23.13l47.85,27.92c-1.15-1.98-1.92-4.16-2.27-6.43l-10.32-67.05Z"/>
          <path d="m394.06,245.62c3.37,0,6.1-2.73,6.1-6.1s-2.73-6.1-6.1-6.1c-3.37,0-6.09,2.73-6.1,6.1,0,3.37,2.73,6.1,6.1,6.1Z"/>
          <path d="m361.7,190.76h64.72l45.63-62.74c2.82-3.9,4.59-8.46,5.13-13.24-3.98-2.46-8.1-4.69-12.33-6.69-8.04,36.94-36.68,64.38-70.8,64.38s-62.76-27.44-70.8-64.38c-4.23,2-8.34,4.24-12.33,6.69.54,4.78,2.31,9.34,5.13,13.24l45.63,62.74Z"/>
          <path d="m334.72,103.38c6.18,32.52,30.39,56.9,59.34,56.9s53.15-24.38,59.34-56.9c-38.4-13.53-80.28-13.53-118.68,0Z"/>
        </g>
      </g>
      <g class="cls-6">
        <path class="cls-2" d="m307.69,128.21s-1.3.92-2.06,1.99c-.31.46-1.15.69-1.99.76h-.08c-1.37.15-2.98,0-3.82-.38-1.53-.53-2.06-1.53-2.98-1.22-.23.08-.3.15-.46.23-.54.38-.76.84-2.22,1.3-1.91.46-1.76,1.07-1.83,2.45-.08,1.37.38,2.22-.15,3.13-.46.99-3.67.61-5.65.46-.54-.08-1.07,0-1.53.23h-.08v.08c-1.15.38-2.14,1.3-3.52,2.6-1.91,1.91-1.3,1.99-3.82,1.6-.61-.15-1.3-.08-2.06.08-1.99.23-4.13,1.3-6.04,2.37-2.52,1.38-.84,1.99-1.07,4.74-.23,2.68-.84,4.05-2.37,5.2-1.53,1.15-2.75,1.3-5.12,4.36-.23.23-.38.46-.54.69-1.91,2.37-2.22,2.6-2.98,2.45-.92-.08-.31-5.73-.31-7.49s.92-3.67,3.21-5.58l.08-.08c2.22-1.76,3.74-2.14,5.58-4.51,1.76-2.45,1.99-3.9,1.3-5.12-.69-1.22-2.6,2.22-4.05,2.9-1.53.61-1.68-.38-2.83-1.38l-.08-.08c-.53-.38-1.37-.23-2.22.08v.08c-1.15.38-2.37,1.15-2.98,1.22-.99.08-2.14.61-3.9,1.68-.08,0-.23.08-.31.15-1.83,1.15-2.52.23-4.58-.61-1.99-.92-4.13-1.53-7.18-.3-1.15.46-2.83,1.91-4.43,3.59-.08.08-.23.15-.3.23-2.6,2.75-5.04,5.96-4.81,6.95.46,1.68,2.29,1.37,4.74,2.83,2.45,1.45.54,1.45-.38,4.66-.92,3.21-.61,3.59-1.22,6.34-.69,2.75-4.81,5.04-5.81,6.03-.99.99-3.44,3.44-5.96,3.06-2.52-.46-2.52,1.83-4.43,5.12-1.83,3.29-.46,2.37-.08,4.2.38,1.76-1.6,6.11-3.06,7.56-1.37,1.45-2.67-1.22-1.99-4.13.61-2.98-.84-1.53-2.45-2.06-1.68-.61,1.15-1.76.84-3.29-.23-1.53-2.14-.15-2.83.15-.69.38-1.53.99-2.9-.46-1.22-1.22-.99-1.76-.92-1.83-.23.23-1.76,1.76-3.67,3.51-2.14,1.99.38.84,2.75,1.45,2.37.53,1.37,0,3.44.99,2.06,1.07-1.53,1.15-2.98,1.68-1.37.46-1.3,1.3.3,2.45,1.53,1.15,2.52,2.98,3.21,7.34.76,4.35-1.99,5.35-4.51,8.56-2.6,3.29-7.34,4.74-10.54,5.65-3.29.92-2.45,2.21-5.2,1.76-2.67-.54-1.6-1.07-3.9-.3-2.29.84,0,2.67,2.22,5.27,2.22,2.6-.61,8.56-2.14,9.32-1.53.69-1.91,3.06-3.9,2.75-2.06-.3-1.53-1.91-3.44-2.9-1.99-1.07-.23,2.68,1.22,6.8,1.37,3.97,2.9,3.9,3.44,6.11,0,.08.08.23.08.38.23,1.6-1.45,1.3-3.51,0-.23-.15-.38-.23-.61-.38-1.22-.84-2.45-1.91-3.59-3.13-3.29-3.59-3.06-3.06-4.13-6.88-1.07-3.82-.99-4.2-2.37-5.2-1.37-1.07-1.07-1.76-.76-3.44.3-1.76-6.95-9.93-9.86-10.24-2.98-.31-2.06.76-3.51,2.45-1.45,1.76-4.74,3.36-7.11,4.97-2.37,1.68-2.22,2.83-2.22,7.41s-1.3,4.35-5.73,5.65c-4.43,1.3-2.29-3.59-3.67-4.66-1.37-.99-2.98-6.04-3.74-11.38-.84-5.42-1.45-1.15-5.42-2.29-3.9-1.15-2.22-5.35-4.81-6.8-2.6-1.45-3.59-.84-6.04.31-2.44,1.15-5.04-.31-6.65-2.37-1.53-2.06-3.59-.76-6.42-1.37-2.83-.54-1.91-1.3-4.43-1.68-2.52-.46.23,2.22,1.99,4.81,1.68,2.6,3.74,1.3,9.7,3.59,5.96,2.29.61,3.29-1.76,5.65-2.37,2.37-4.36,2.68-7.64,4.43-3.29,1.83-4.51,1.99-7.95,3.36-3.36,1.38-4.13.38-6.42-.53-2.29-.92-3.82-5.27-6.42-10.85-2.67-5.65-4.51-9.32-6.49-11.77-1.99-2.45-1.53.54-.92,2.29.69,1.68,2.14,3.97,3.67,8.4,1.61,4.35,1.3,2.83,2.14,5.96.92,3.06,5.35,9.78,8.02,11.23,2.67,1.53,9.09-1.15,12.3-1.22,3.29-.08-.23,1.6-3.13,8.18-2.22,4.97-3.36,4.28-5.58,5.12-.69.31-1.53.76-2.6,1.6-4.28,3.51-4.66,7.34-5.27,11.77-.15,1.53-.08,2.9.08,4.28,0,.15,0,.31.08.38.08.76.15,1.6.31,2.37.08.46.15.99.15,1.53.08.46.15.99.15,1.53.08.69.15,1.53.08,2.29,0,.08,0,.23-.08.31,0,.61-.15,1.14-.46,1.68-.23.76-.76,1.53-1.3,2.22-1.61,2.14-3.9,3.97-5.12,5.5-.31.38-.54.76-.69,1.07-.08.15-.15.31-.15.46-.15.38-.23.76-.31,1.07-.15.53-.23.99-.31,1.53-.31,1.3-.69,3.06-1.99,6.49-.23.54-.38.99-.61,1.38-.31.61-.69,1.15-.99,1.53-.31.46-.69.76-1.07,1.07-1.15.84-2.37,1.07-3.67,1.53-.84.31-1.76.77-2.6,1.53-2.9,2.67-4.2,3.06-7.18,4.2-.38.15-.84.38-1.3.54-4.05,1.68-8.48-.92-8.94-3.29-.46-2.37.76-2.67.23-6.57-.46-3.9-4.81-11.69-6.34-15.51-1.53-3.82-.53-4.58,1.99-8.63,2.44-4.13-1.76-8.56-4.13-13.29-2.37-4.74-2.52-2.14-2.52-5.5s-.23-4.51-2.9-5.88c-2.6-1.38-4.2-2.22-8.71-3.36-4.51-1.15-4.43,1.38-8.79.76-4.43-.69-4.2.69-7.03.38-1.3-.15-2.9-1.15-4.43-2.29v-41.33c1.6-1.22,4.28-1.91,7.95-3.21,5.5-1.91,4.58-.23,9.4-1.6,4.81-1.37,10.7-2.75,13.98-2.52,3.36.23,2.83,2.67,2.83,4.58s.84,1.53,5.04,2.6c4.28,1.07,1.99,2.45,5.12,3.06,3.21.69,2.14-.61,3.67-3.13,1.45-2.52,2.44,0,6.49,1.99,4.13,2.06,3.82.84,8.94.31,5.04-.61,5.5.15,6.65-.38,1.15-.46,1.3-5.73.61-8.1-.76-2.37-1.99-.53-4.66-.53-1.76,0-2.37-.38-2.29-1.3,0-.53.15-1.22.46-2.14.08-.15.08-.3.15-.38.46-1.3.84-1.6,1.83-1.99.54-.23,1.37-.46,2.52-.99.08-.08.23-.08.31-.08v-.08c1.07-.38,2.22-.61,3.36-.69,1.99-.23,3.9-.23,5.35-1.07.31-.23.54-.38.61-.54.46-.84-1.83-1.6-3.29-2.6-.31-.15-.54-.3-.76-.53-.92-.99-.92-1.91-.69-2.98.15-.61.38-1.3.61-2.06.54-2.06-1.3-.61-3.44.61-2.14,1.22.38,1.68-.54,3.36-.46.84-1.22.76-1.91.3-.46-.23-.84-.69-1.15-1.22-.23-.23-.38-.46-.46-.69-.38-.84-.92-.84-1.76-.3-.61.3-1.37.92-2.44,1.68-1.76,1.22-1.15,2.14-.99,3.67.08.46.08.92,0,1.45,0,.31-.15.61-.23.92-.53,1.6-1.45,1.76-2.37,1.68-.92,0-1.83-.15-2.29.69-.99,1.68-.31,2.98-2.14,3.29-1.76.38-1.07,1.38-1.91,2.67-.76,1.3-2.6-.99-2.9-3.51-.31-2.52-3.36-5.27-3.67-6.57-.31-1.3-3.74-2.83-5.58-3.44-1.76-.54-.61,1.3.84,3.06,1.45,1.68,4.2,2.22,4.43,4.05.15,1.91-1.22.92-2.29,1.99-1.07,1.07-.53,3.29-2.14,3.97-1.68.76-1.45-2.06-1.07-4.58.38-2.45-1.99-2.9-3.67-4.51-1.76-1.68-4.43-3.21-5.35-3.97-.84-.69-3.21,1.99-5.81,1.91-2.52-.08-1.53-.53-2.52.61-.99,1.15-2.14,3.13-3.82,3.44-1.68.38-2.52,1.6-2.83,3.51-.38,1.99-1.83,2.14-4.35,3.21-2.52,1.07-5.96-.23-8.1-.99-2.14-.69-1.76-2.29-1.15-3.97.23-.53.3-1.3.53-2.14.38-1.76.99-3.9,3.13-4.66.84-.31,1.45-.38,1.99-.38l.08-.08c1.53-.08,2.29.46,4.05,0,2.37-.69,1.6-1.83,1.53-5.12,0-.15,0-.3-.08-.46-.31-2.6-3.44-1.6-3.9-3.51-.38-1.99,2.75-.69,8.18-1.53.38-.08.76-.15,1.07-.31,2.06-.61,2.83-1.91,3.28-3.29.46-1.37.61-2.9,1.45-3.59,1.91-1.6,3.06-2.14,3.74-5.35.76-3.21,3.28-4.43,5.58-3.51.46.23.76.46.92.76.53,1.07-.84,2.6-.69,4.05.15,1.91,2.44,1.53,3.9,1.91,1.37.31,7.41-.76,9.47-2.29,1.6-1.3,2.75-2.45,4.13-3.51.31-.23.61-.53.99-.76,1.91-1.3.46-2.14.92-2.75.38-.69,1.91-2.45,1.3-4.35-.61-1.6-2.67-.84-3.97-1.83-.15-.15-.31-.38-.46-.61-.76-1.3-.23-2.75.46-4.13.31-.61.61-1.22.92-1.83.23-.54.23-.84.08-.84-.15-.15-.53,0-.99.15-.69.31-1.53.76-2.22,1.07-1.76.84-2.83,2.6-4.43,4.97-.61.92-.92,1.68-.99,2.45l-.08.08c-.23,1.22.08,2.37.15,3.82.15,2.37-3.28,4.66-4.89,4.35-.84-.23-1.3-.99-1.6-1.91-.15-.76-.23-1.68-.31-2.37-.15-1.45-1.15-2.37-2.44-1.91-1.3.54-3.9,1.68-6.42.99-2.52-.61-1.76-4.2-.53-7.34,1.22-3.13,1.91-2.14,5.96-4.2,4.13-1.99,2.98-2.83,6.26-5.65,3.21-2.9,3.9-4.89,7.11-7.26,3.13-2.37,5.27-3.21,13.22-4.05,6.19-.69,4.97.15,5.73,1.6.08.31.31.61.69.92.08.15.23.31.38.38,1.91,1.38,3.36,1.83,5.2,2.22.99.23,2.14.38,3.51.76,3.97.99,3.59,2.29,4.05,3.21.54.92-1.76,2.52-3.82,2.6h-.92v-.08c-1.45-.08-2.29-.61-3.21-.99-1.15-.46-.38,1.07.38,1.99.61.69,1.53.92,2.98.92.38,0,.92-.08,1.37-.15,2.29-.23,5.58-1.83,6.57-1.6.38.08,1.15,0,2.06-.23,1.6-.46,3.82-1.07,5.42-1.53,2.52-.76,2.52-2.37,3.51-3.06.76-.61,2.44-.76,6.11-.46.61.08,1.37.08,2.14.15,5.12.38,4.58-.54,7.87-1.83,1.37-.54,2.37-.61,3.21-.46,1.22.15,2.22.69,3.67.69,2.52,0,6.19-1.53,7.41-3.21.08-.08.08-.15.15-.15,1.07-1.53,1.61-.84,3.51-1.99,2.06-1.22,1.45-1.07,6.88-2.06,5.5-.99,6.95,1.38,9.32,0,2.37-1.38-1.15-4.51-.46-5.35.61-.92,5.88-.15,8.17-1.14,2.29-1.07.92-2.45,1.99-3.67,1.07-1.3,5.27-1.83,9.55-2.22,4.35-.46,4.13,1.07,6.04.53,1.83-.46,1.3-1.83,2.83-2.14,1.53-.23,1.53-1.07,2.45-1.53s4.05-.38,6.49,1.15c2.52,1.53,2.98-.23,5.58,0,2.6.23,1.45,2.52,1.45,3.59s-1.91,3.29-3.51,3.97c-1.53.76-.15,1.76,2.14,1.6s3.74-.99,6.49-1.22c2.67-.15,3.67.38,6.19,1.53,2.52,1.14,4.66,1.14,6.26.76,1.68-.46,1.15-1.91,2.06-2.21.92-.38,5.5,1.53,7.95,2.52,2.45.99-.38,2.14,0,3.21.3.99,3.13,2.83,4.97,2.6,1.76-.23,1.07-2.06,3.97-1.91,2.98.15,3.82.15,6.95-.84,3.21-.92,2.98-1.68,7.64-1.38,4.66.38,4.59.76,6.19.99,1.6.23,2.29-.46,5.5.54,3.13.92,2.14,3.21,2.98,3.67.84.46,2.22.31,5.5.08.92-.08,1.45-.08,1.76,0,.92.15.69.84,2.06,1.76,1.91,1.3.69,1.6,1.91,1.37.23,0,.54-.08.84-.15,1.15-.23,2.6-.69,4.74-.84,2.83-.31,2.75.08,4.36,1.15,1.61.99,2.9.84,4.58.08,1.6-.84.46-1.6.69-1.6.31,0,3.29.61,7.49,1.14,1.22.15,2.14.38,2.98.61,1.91.54,3.13,1.22,5.81,2.22.84.31,1.53.61,1.99.99,1.68,1.07,1.53,2.22,2.83,3.21,1.76,1.3,1.76.23,3.36-.46.15-.08.23-.08.3-.08,1.45-.53,2.22.69,3.44,2.06Z"/>
        <path class="cls-2" d="m235.99,172.68c1.07.39,3.1,2.04,4.33,1.96,1.23-.08,1.88,1.55.9,1.71-.98.16-4.25,1.71-4.25,1.71,0,0-.98-1.23-1.55,0s-.9,2.12-.74,2.86c.16.74,1.31,2.86.65,3.92-.65,1.06-1.55,1.63-1.55,2.94s.82,2.7-.33,3.27-2.29.74-3.27,1.06c-.98.33-1.71.41-2.12,1.31-.41.9-1.39,2.21-3.43,2.12-2.04-.08-2.04-1.71-3.92-.16s-1.96,2.45-2.94,2.04c-.98-.41-.24-.98,0-2.53s-3.35-1.14-.08-2.94c3.27-1.8,3.27-2.04,5.47-2.37,2.21-.33,3.43.74,4.33-1.14.9-1.88,0-2.61,1.8-2.7s2.94.74,3.27-1.31c.33-2.04.08-3.76,0-5.06s-.57-2.53.9-3.02,1.63.41,1.8-.74c.16-1.14-.82-3.51.74-2.94Z"/>
        <path class="cls-2" d="m203.15,216.96c1.55.24,2.29,3.02,1.8,4.17s-.98,2.45.41,2.7c1.39.24,2.37.41,2.37,1.39s.57-1.06,1.63,1.55.08,3.02,1.31,4.98c1.23,1.96,2.7,2.94.98,3.92-1.71.98-.41,2.04-2.21,1.47-1.8-.57-1.06-.24-1.96-1.96-.9-1.71-1.47-.33-2.29-.41-.82-.08-1.06-.08-.41-1.23.65-1.14.98-1.06.24-2.37s.41-2.86-.65-3.1c-1.06-.24-1.39,1.55-3.27,2.7s-4.66,1.47-4.57,1.06,1.14-.98,2.86-3.1c1.71-2.12,2.78-.82,2.45-4.08-.33-3.27-1.47-2.37-.41-4.66,1.06-2.29,1.72-3.02,1.72-3.02Z"/>
        <path class="cls-2" d="m197.93,235.5c1.24,1.24,2.86.9,2.37,2.12-.49,1.23-1.95,1.39-1.14,2.61.81,1.23,1.54,3.02,2.61,2.86,1.06-.16.98-.98,3.59-.98s4.25-.57,4.41.49c.16,1.06-1.14,1.14-2.86,2.7s-3.43,3.1-2.04,4.08c1.39.98,1.96,2.78,1.47,3.43s-.98,1.31.16,2.12c1.14.82,6.62.57,5.31,2.53-1.31,1.96-4.49,3.02-7.84,3.1s-.66-.9-7.43-1.55c-6.78-.65-7.92,1.06-12.66-1.23-4.74-2.29-7.84-.33-10.46-4.49s-1.55-2.12-4.82-6.45c-3.27-4.33-1.71-4.33-4.49-6.04-2.78-1.71-5.15-4.17-3.27-4.17s.98-2.21,6.78,2.61c5.8,4.82,4.25,4.57,8.5,7.43,4.25,2.86,5.64,3.19,7.19,2.86,1.55-.33,3.84,0,2.37-1.88s-2.29-4.25-1.06-4.66,1.14,1.63,3.19-.57c2.04-2.21,2.04-2.78,3.84-3.51,1.8-.74.82,0,2.53-1.06,1.72-1.06,2.37-3.76,3.76-2.37Z"/>
        <path class="cls-2" d="m220.39,244.98c.89,1.14,2.37,2.61,3.02,3.84.65,1.23,1.88-1.04,4.25-.97,2.37.07,5.88,1.38,7.35,2.03,1.47.65,4,1.06,5.55,3.19,1.55,2.12,2.7.9,2.78,3.02.08,2.12.41,1.88,1.8,3.1,1.39,1.23,1.63,3.51-.82,2.53-2.45-.98-3.19-4.33-5.8-4-2.61.33-1.55,1.06-3.59,1.47-2.04.41-2.94-.33-5.39-.49-2.45-.16-4.25.65-3.1-1.55s1.96-2.29-2.04-3.92-5.55-.82-5.55-2.53.65-1.88-.9-3.35c-1.55-1.47-2.04-2.53-1.06-3.27.98-.74,2.94.16,3.51.9Z"/>
        <path class="cls-2" d="m225.13,268.5c2.7,1.39,3.76,4.17,5.06,3.68s.82-1.31,1.8-4.25,1.06-5.96,2.29-4.74.08,3.62,2.04,4.38c1.96.77,2.37,1.34,2.78,3.62.41,2.29.82,1.55,2.86,3.92,2.04,2.37,3.88,1.96,4.23,4.66.35,2.7,3.78,5.47,3.94,8.25.16,2.78.65,4.74-1.39,8.25-2.04,3.51-2.86,5.31-3.51,6.78s-2.61,2.21-4.74,2.21-3.35-.9-4.66-.57-2.21,1.96-3.76.82-2.45-2.61-2.94-3.51c-.49-.9-.74-3.92-3.02-3.59s-1.96,1.47-3.35,0c-1.39-1.47-.41-2.7-4.49-3.35-4.08-.65-5.15-.98-6.86-.57-1.71.41-3.51.98-5.39,2.45-1.88,1.47-4.82.73-6.45,1.47-1.63.73-4.08,2.37-5.88,1.39-1.8-.98-1.14-1.47-1.06-3.76.08-2.29-.08-.73-1.23-4.66-1.14-3.92-.65-3.35-1.71-5.23-1.06-1.88-1.88-.98-.41-3.68,1.47-2.7.98-3.27,1.8-4.17.82-.9,1.55.24,4.33-1.63s3.59-1.06,6.13-2.04c2.53-.98,3.1-4.74,4.66-5.88,1.55-1.14,1.96-2.04,3.1-2.04s2.45.65,4.49,1.47c2.04.82,1.63.9,3.35-.98,1.71-1.88,0-3.68,3.1-3.35s4.25-.16,4.66,1.63c.41,1.8.25,3.02.25,3.02Z"/>
        <path class="cls-2" d="m281.82,307.06c1.63-2.12,2.45-2.37,1.88-4.82-.57-2.45-.41-4.37,1.71-2.19s4.49,3.41,6.13,3.49c1.63.08,5.55,1.31,1.55,4.33-4,3.02-3.27.9-6.45,5.39s-.73,4.57-4.57,6.78-8.09,3.19-7.27,1.23c.82-1.96.41-1.96,3.92-4.58s5.8-4.57,5.8-6.78-2.7-2.86-2.7-2.86Z"/>
        <path class="cls-2" d="m86.75,285.01c-1.47-2.12-1.47-2.78-1.63-6.21-.16-3.43-1.31-5.06,0-7.02,1.31-1.96,4.74-5.23,6.04-7.52,1.31-2.29,1.63-7.19,2.45-2.78.82,4.41,3.43,7.02-.49,12.91-3.92,5.88-6.37,10.62-6.37,10.62Z"/>
        <path class="cls-2" d="m8.17,163.45c-.33-.65,1.14-2.78,1.14-2.78,0,0,1.8-.98,1.31-4.57-.49-3.59-.82-1.47-2.12-4.9s-3.27-2.78-1.31-5.06c1.96-2.29,4.25-5.72,4.74-2.94.49,2.78-.65,4.57.49,5.88,1.14,1.31,3.43,1.58,4.74,3.73,1.31,2.15,6.53,2.97,2.61,5.75-3.92,2.78-5.72.98-7.19,2.94s-4.41,1.96-4.41,1.96Z"/>
        <path class="cls-2" d="m2.94,160.84c2.61-1.47,3.57-1.14,3.42-3.76s1.65-4.9-1.13-5.06c-2.78-.16-3.59,1.47-3.92,2.61-.33,1.14-.33,1.47.49,2.61.82,1.14.98,2.78.65,3.59s.49,0,.49,0Z"/>
        <path class="cls-2" d="m511.97,266.41c-.51,1.2-.79,2.61-.61,5.36.33,4.9.49,4.41-.49,6.86-.98,2.45-4.57,2.77-7.52,4.57-2.94,1.8-3.1.33-5.06,5.23-1.96,4.9-.82,2.29-2.45,6.53-1.63,4.25.66,2.12-4.08,4.57-4.74,2.45-6.53.33-7.02,1.8-.49,1.47,2.78.33-.65,3.43-3.43,3.1-4.9,3.92-7.03,5.23-2.12,1.31-3.43,2.78-2.94,5.56.49,2.77,2.94,2.61.16,5.23-2.69,2.52-3.85.17-4.66,3.84h-12.82v-.42c0-3.92-.49-.98,1.47-7.67,1.96-6.7-1.31-4.42.33-11.76,1.64-7.35,1.31-15.2,2.94-20.59,1.64-5.39,5.23-3.92,1.64-8.82-3.6-4.9-4.25-4.08-7.35-7.35-3.11-3.26-1.15-2.61-2.94-6.53-1.8-3.92-2.94-3.59-4.41-6.53-1.47-2.94-2.29-1.96-.82-6.87,1.47-4.9-1.79-4.74,1.47-6.21,3.27-1.47,2.78-5.06,2.29-6.37-.49-1.3,2.45-1.8-2.12-2.45-4.57-.65-5.88.81-7.51-1.96-1.64-2.77-.33-3.27-3.76-4.9-3.43-1.63-7.19-1.63-8.5-2.94l-1.3-1.31s2.45-.98-3.11-1.63c-5.55-.66-9.64,0-12.41-3.92s-2.12-1.63-2.77-5.23c-.66-3.6-1.47-3.6-4.08-5.88-2.62-2.29-2.62-3.6-5.07-4.57-2.45-.98-2.94-.65-2.94-.16s-.16,2.45,2.12,4.25c2.29,1.8,2.45,3.43,2.45,4.25s-3.11,1.8-3.11,1.8c0,0,0-.98-.98-3.27-.98-2.29-1.31-3.43-3.27-6.21-1.96-2.77-2.45-3.1-2.45-3.1,0,0-2.29-3.59-6.21-8.33-3.92-4.74-5.07-1.8-5.07-7.19s.98-5.39,0-9.15c-.98-3.75-3.26-5.55-1.3-6.21,1.96-.65,3.1-1.63-.49-4.74-3.59-3.11-4.9-1.47-6.21-5.72-1.3-4.25,1.47-3.92-3.92-5.88-5.39-1.96-6.05-3.6-8.5-4.74-2.45-1.15-3.92-1.8-3.92-1.8,0,0,.49-.49-5.39-.98-5.88-.49-5.23-3.26-9.64-1.47-4.14,1.69-4.97,2.08-5.06,2.12.13-.16,2.33-2.93-1.8-2.61-4.25.33-3.26,1.31-3.43,3.27s.49,4.25-2.45,5.39c-2.94,1.14-7.19,4.25-5.56.98,1.64-3.26,5.72-5.55,4.25-6.37-1.47-.81-4.57,1.8-4.9-.81-.33-2.62.33-3.92-3.1-4.08-3.43-.16-6.21-1.63-3.59-2.78,2.61-1.14,5.07-.65,5.88-3.43.81-2.78,6.86-3.43.16-3.27-6.7.16-9.64.16-8.82-1.15.82-1.3.49-3.75,5.23-3.1,4.74.65,4.74-1.31,3.59-2.61-2.55-2.91-6.7-3.11-3.43-4.9,3.27-1.8,5.23-2.94,8.34-3.6,3.1-.65,6.37.66,11.43,1.96,5.07,1.31,13.24.16,16.99,1.31,3.76,1.15,5.55,3.43,6.7,3.27,1.15-.17,4.41-3.6,7.68-3.6s4.9-.49,11.6.33c6.7.81,13.23,1.15,13.39,2.77.16,1.64.16,2.46,2.62,2.46s4.57-1.47,6.05.82c1.47,2.29,3.75,3.92,3.43,2.12s-1.96-3.27-.65-3.92c1.31-.65,5.07-.98,6.05-.65.98.33,4.08.82,5.07.65.98-.16.33-1.8,3.59-.82,3.27.98,3.76,3.43,4.42,3.59.65.17,2.12-2.51,2.29-4.28.16-1.77,1.63-1.77-1.31-4.05s-.29-5.06,1.82-4.08c2.1.98.79,2.29,2.92,4.41,2.12,2.13,2.45,3.92,3.92,3.27,1.47-.65.66-3.43,2.62-1.31s2.45,1.06,4.25.69c1.8-.36.33-1.51,2.45-.36,2.12,1.14,5.72,2.45,3.1,4.57-2.61,2.12-6.53,1.8-9.31,3.43-2.78,1.63-1.96,1.14-2.78,3.1-.81,1.96-.49,2.12-3.75,2.94-3.27.81-4.25.16-4.08,2.94.16,2.77-.17,3.11-1.31,4.57-1.15,1.47-.49,2.78.82,3.43,1.31.65,2.78-.49,2.78,1.47s2.45,3.43,5.72,3.43,4.74.82,6.7,3.27c1.96,2.45-.82,2.61,2.45,5.72,3.27,3.1,6.37,4.57,6.86,1.8.49-2.78,0-3.43.49-6.7.49-3.27,3.6-3.6,1.96-6.54-1.64-2.94-4.08-4.25-1.8-5.88,2.29-1.63-.49-3.14,3.43-3.94,3.92-.8,6.53-1.45,8.17,1.49,1.63,2.94-.16,4.9,1.47,6.21,1.64,1.31,6.7-.65,7.68-1.8.98-1.14,3.76-.98,4.74,3.27.98,4.25,1.63,5.39,3.1,5.88,1.47.49,1.47,1.47,3.27,3.1,1.8,1.63,5.23,4.25,0,4.74-5.23.49-9.48-.16-11.44,1.63-1.96,1.79-2.12.49-.81,2.94,1.3,2.45.33.81,1.3,3.92.98,3.11,5.88,3.11,2.29,5.23-3.59,2.12-2.94,2.61-5.06,1.96-2.12-.66-2.61-5.35-5.07-1.53-2.45,3.82-2.12,5.28-4.25,6.43-2.12,1.15-2.29-1.15-4.25,2.45-1.96,3.6,1.15,3.92-3.26,8-4.42,4.09-6.54,2.12-6.86,5.56-.33,3.43,1.8,7.52.65,8.33-1.14.82-.98.65-2.29-1.63-1.3-2.29-.65-3.59-5.22-3.92-4.58-.33-4.25-1.47-6.05.49-1.8,1.96.65,2.61-4.42,1.96-5.06-.66-5.71-6.7-6.7.33-.98,7.02-1.14,7.84.49,9.8,1.64,1.96,6.05,6.7,8.01,4.57,1.96-2.12-.49-4.74,3.27-3.92,3.76.81,4.74-.16,4.08,1.96-.65,2.12-5.72,2.45-1.64,4.41,4.08,1.96,7.52-.33,7.84,2.77.33,3.11-.49,3.92-.33,5.72.16,1.8.98,3.11,4.74,3.11s3.6-1.47,4.58.49c.98,1.96,4.08.98,5.39-1.8,1.31-2.77,2.29-5.88,4.25-2.61s2.29,3.92,4.25,2.61l1.96-1.3s2.13-1.96,3.92-.33c1.8,1.63,4.74-.16,5.39,2.12.65,2.29-.33,2.62,2.45,3.43,2.78.82,6.05-.49,7.68,1.8,1.64,2.29-2.77.82,1.96,3.6,4.74,2.77,6.21,3.1,5.88,4.9-.33,1.8.98,2.12,5.23,3.11,4.25.98,3.59.49,7.02,3.1.97.74,1.89,1.18,2.73,1.46v15.07h0Z"/>
      </g>
      <g>
        <path class="cls-4" d="m49.7,84.15v-.05c-.05-.78-.23-1.51-.5-2.15-.27-.69-.64-1.23-1.19-1.74-.05-.14-.23-.27-.37-.41-.64-.59-1.37-1.05-2.24-1.37-.14-.05-.27-.09-.41-.09-.23-.14-.5-.18-.73-.23-.5-.09-1.05-.14-1.55-.14-.96,0-1.87.14-2.74.46s-1.6.78-2.24,1.37c-.69.55-1.19,1.28-1.6,2.15-.37.87-.55,1.87-.55,2.97v9.88c0,1.01.14,1.92.46,2.65,0,.09.05.18.09.27.41.87.91,1.6,1.6,2.19.64.59,1.37,1.05,2.24,1.37.87.27,1.78.46,2.74.46s1.83-.18,2.7-.46c.87-.32,1.6-.78,2.24-1.37.69-.59,1.19-1.33,1.55-2.19.37-.82.59-1.83.59-2.93v-9.88c0-.28,0-.5-.09-.78Zm-4.21,10.61c0,.96-.23,1.74-.73,2.29-.55.59-1.23.87-2.06.87-.87,0-1.55-.27-2.1-.87-.5-.55-.78-1.33-.78-2.29v-9.74c0-.91.23-1.65.69-2.19,0-.05.05-.09.09-.14.09-.09.14-.14.23-.18.05-.09.14-.14.23-.18.46-.37,1.01-.5,1.65-.5.82,0,1.51.27,2.06.87.5.55.73,1.33.73,2.33v9.74Z"/>
        <path class="cls-4" d="m60.53,78.16l-4.75,4.16v4.57l4.75-4.12v18.75h4.25v-23.36h-4.25Z"/>
        <path class="cls-4" d="m72.69,78.16v7.54h4.07v-3.7h6.17l-7.59,19.52h4.62l7.59-19.52v-3.84s-14.86,0-14.86,0Z"/>
        <path class="cls-4" d="m105.11,81.96c-.37-.87-.87-1.6-1.55-2.15-.64-.59-1.37-1.05-2.24-1.37-.87-.32-1.78-.46-2.7-.46-.96,0-1.87.14-2.74.46-.87.32-1.6.78-2.24,1.37-.69.55-1.19,1.28-1.55,2.15-.41.87-.59,1.87-.59,2.97v9.88c0,1.1.18,2.1.59,2.93.37.87.87,1.6,1.55,2.19.64.59,1.37,1.05,2.24,1.37.87.27,1.78.46,2.74.46s1.83-.18,2.7-.46c.87-.32,1.6-.78,2.24-1.37.69-.59,1.19-1.33,1.55-2.19.41-.82.59-1.83.59-2.93v-9.88c0-1.1-.18-2.1-.59-2.97Zm-3.7,12.8c0,.96-.23,1.74-.73,2.29-.55.59-1.23.87-2.06.87-.87,0-1.55-.27-2.06-.87-.55-.55-.82-1.33-.82-2.29v-9.74c0-1.01.27-1.78.82-2.33.5-.59,1.19-.87,2.06-.87.82,0,1.51.27,2.06.87.5.55.73,1.33.73,2.33v9.74Z"/>
        <path class="cls-4" d="m140.91,91.56c-.37-.87-.82-1.6-1.42-2.19-.55-.59-1.23-1.05-1.97-1.37-.73-.32-1.46-.46-2.29-.46-.27,0-.55,0-.87.05-.27.05-.55.14-.87.23l4.89-9.65h-4.66l-4.94,10.1c-.5,1.1-.96,2.15-1.37,3.16-.41,1.01-.59,2.01-.59,3.11s.18,2.19.55,3.06c.37.91.91,1.65,1.55,2.29.64.59,1.42,1.05,2.33,1.37.87.32,1.83.5,2.84.5s2.01-.18,2.88-.5c.91-.32,1.65-.82,2.33-1.42.64-.64,1.14-1.42,1.51-2.29.41-.91.59-1.92.59-3.11,0-1.05-.18-2.01-.5-2.88Zm-4.62,5.44c-.59.59-1.33.91-2.19.91s-1.6-.32-2.15-.91c-.55-.59-.87-1.42-.87-2.51s.32-1.92.87-2.51c.55-.59,1.28-.91,2.15-.91.91,0,1.65.32,2.19.96.55.59.82,1.42.82,2.47s-.27,1.92-.82,2.52Z"/>
        <path class="cls-4" d="m159.93,91.61v-.05c-.05-.37-.09-.78-.18-1.14-.23-1.05-.82-2.06-1.74-2.97-.5-.5-1.1-.87-1.83-1.14-.69-.32-1.55-.46-2.56-.46-.78,0-1.46.14-2.1.37-.64.23-1.1.5-1.37.82v-5.03h9.42v-3.84h-13.3v13.21h3.89c.18-.46.46-.91.87-1.28.46-.41,1.1-.64,1.97-.64,1.05,0,1.78.37,2.19,1.1.41.69.59,1.55.64,2.79v.32c0,.73-.05,1.42-.14,2.01-.14.59-.37,1.1-.78,1.46-.5.5-1.14.78-2.01.78-.91,0-1.55-.27-2.01-.78-.46-.5-.73-1.19-.87-2.1h-4.25v.14c.09.78.23,1.6.46,2.38.23.82.73,1.6,1.46,2.33.5.5,1.19.91,2.06,1.33.87.37,1.92.55,3.15.55s2.24-.18,3.11-.55c.82-.41,1.51-.82,2.06-1.37.82-.87,1.37-1.78,1.65-2.74.27-.96.41-2.1.41-3.43,0-.69-.04-1.37-.18-2.06Z"/>
        <path class="cls-4" d="m164.18,78.16v7.54h4.07v-3.7h6.17l-4.07,10.42-3.52,9.1h4.62l4.53-11.66v-.05h.05l3.02-7.82v-3.84h-14.86Z"/>
        <path class="cls-4" d="m197.23,83.38c-.09-.46-.18-.87-.37-1.28-.37-.87-.91-1.65-1.55-2.24-.64-.59-1.42-1.1-2.33-1.42-.87-.27-1.83-.46-2.83-.46s-2.01.18-2.88.5c-.91.32-1.65.78-2.33,1.42-.5.5-.91,1.05-1.23,1.74-.14.18-.23.37-.32.55-.37.91-.55,1.97-.55,3.06v.05c0,1.1.18,2.06.55,2.88.32.87.78,1.6,1.37,2.19.55.59,1.23,1.01,1.97,1.33.73.32,1.51.5,2.29.5.27,0,.59-.05.87-.09.32-.05.59-.09.87-.23l-4.85,9.65h4.62l4.98-10.1s.05-.09.05-.14c.32-.69.64-1.33.91-1.97.14-.37.23-.69.37-1.01.32-.82.5-1.65.55-2.51.05-.18.05-.41.05-.59,0-.64-.05-1.23-.18-1.83Zm-4.94,4.39c-.59.59-1.28.87-2.15.87-.96,0-1.69-.27-2.24-.91-.37-.41-.59-.96-.69-1.6h-.05c0-.27-.05-.55-.05-.87,0-.82.14-1.46.46-2.01.09-.23.23-.37.37-.55.59-.59,1.28-.87,2.19-.87s1.55.27,2.15.87c.5.55.82,1.33.87,2.33v.5c-.04,1.01-.37,1.69-.87,2.24Z"/>
        <path class="cls-4" d="m224.8,78.16l-2.7,2.33h-.05l-2.01,1.83v4.57l4.75-4.12v18.75h4.3v-23.36h-4.3Z"/>
        <path class="cls-4" d="m236.96,78.16v7.54h4.07v-3.7h6.17l-.09.18-7.5,19.34h4.62l7.59-19.52v-3.84s-14.86,0-14.86,0Z"/>
        <path class="cls-4" d="m262.11,78.16l-.46.41-3.02,2.61-1.28,1.14v4.57l4.76-4.12v18.75h4.25v-23.36h-4.25Z"/>
        <path class="cls-4" d="m288.26,82.1c-.37-.87-.87-1.65-1.51-2.24-.69-.59-1.46-1.1-2.33-1.42-.87-.27-1.83-.46-2.88-.46s-1.97.18-2.88.5c-.87.32-1.65.78-2.29,1.42-.69.64-1.19,1.37-1.55,2.29s-.55,1.97-.55,3.06.18,2.1.5,2.93c.37.87.82,1.6,1.42,2.19.23.23.46.46.69.59.37.32.82.55,1.28.73.73.32,1.51.5,2.29.5.27,0,.55-.05.87-.09.27-.05.59-.09.87-.23l-4.85,9.65h4.62l3.29-6.72,1.65-3.38c.55-1.05,1.01-2.1,1.37-3.11.37-1.01.59-2.06.59-3.11,0-1.14-.18-2.19-.59-3.11Zm-8.87.59c.55-.59,1.28-.87,2.15-.87s1.6.27,2.19.87c.55.59.82,1.46.82,2.56s-.27,1.92-.82,2.51c-.59.59-1.33.87-2.19.87-.91,0-1.65-.27-2.19-.91-.55-.59-.82-1.42-.82-2.47s.27-1.97.87-2.56Z"/>
      </g>
      <g>
        <path class="cls-4" d="m52.8,280.62c-.46-.99-.99-1.76-1.76-2.45-.76-.69-1.6-1.22-2.6-1.53-.99-.38-1.99-.53-3.06-.53-1.15,0-2.14.15-3.13.53-.99.3-1.83.84-2.6,1.53-.76.69-1.37,1.45-1.83,2.45-.38.99-.61,2.14-.61,3.44v11.23c0,1.3.23,2.45.61,3.44.46.99,1.07,1.83,1.83,2.45.76.69,1.61,1.22,2.6,1.61.99.3,1.99.46,3.13.46,1.07,0,2.06-.15,3.06-.46.99-.38,1.83-.92,2.6-1.61.76-.61,1.3-1.45,1.76-2.45.46-.99.69-2.14.69-3.44v-11.23c0-1.3-.23-2.45-.69-3.44Zm-4.2,14.67c0,1.07-.3,1.99-.92,2.6-.54.69-1.37.99-2.29.99-.99,0-1.83-.31-2.37-.99-.61-.61-.92-1.53-.92-2.6v-11.16c0-1.15.31-2.06.92-2.67.54-.69,1.37-.99,2.37-.99.92,0,1.76.3,2.29.99.61.61.92,1.53.92,2.67v11.16Z"/>
        <path class="cls-4" d="m74.57,290.32c-.23-1.22-.92-2.37-1.99-3.44-.54-.54-1.22-.99-2.06-1.3-.84-.31-1.76-.46-2.9-.46-.92,0-1.68.08-2.45.38-.69.3-1.22.61-1.61.92v-5.73h10.85v-4.36h-15.28v15.05h4.51c.15-.54.46-.99.99-1.45.46-.46,1.22-.69,2.22-.69,1.22,0,2.06.38,2.52,1.22.54.84.76,1.99.76,3.59,0,.84-.08,1.61-.23,2.29-.15.69-.38,1.22-.84,1.68-.54.54-1.37.84-2.29.84-1.07,0-1.83-.31-2.37-.84-.46-.61-.84-1.45-.92-2.45h-4.89c.08.92.23,1.91.54,2.83.23.99.84,1.91,1.61,2.67.61.61,1.37,1.07,2.37,1.53,1.07.46,2.22.61,3.67.61,1.37,0,2.52-.15,3.52-.61.99-.46,1.76-.92,2.37-1.53.99-.99,1.61-2.06,1.91-3.13.3-1.14.46-2.45.46-3.9,0-1.3-.15-2.52-.46-3.74Z"/>
        <path class="cls-4" d="m88.48,273.51l-10.7,32.32h4.58l10.7-32.32h-4.58Z"/>
        <path class="cls-4" d="m103.15,276.34l-5.42,4.74v5.2l5.42-4.74v21.47h4.89v-26.67h-4.89Z"/>
        <path class="cls-4" d="m124.47,276.34l-5.42,4.74v5.2l5.42-4.74v21.47h4.89v-26.67h-4.89Z"/>
        <path class="cls-4" d="m138.76,290.02v4.58h11.54v-4.58h-11.54Z"/>
        <path class="cls-4" d="m171.08,280.62c-.38-.99-.99-1.76-1.76-2.45-.69-.69-1.6-1.22-2.6-1.53-.99-.38-1.99-.53-3.06-.53-1.15,0-2.14.15-3.13.53-.99.3-1.83.84-2.6,1.53-.76.69-1.37,1.45-1.76,2.45-.46.99-.69,2.14-.69,3.44v11.23c0,1.3.23,2.45.69,3.44.38.99.99,1.83,1.76,2.45.76.69,1.61,1.22,2.6,1.61.99.3,1.99.46,3.13.46,1.07,0,2.06-.15,3.06-.46.99-.38,1.91-.92,2.6-1.61.76-.61,1.38-1.45,1.76-2.45.46-.99.69-2.14.69-3.44v-11.23c0-1.3-.23-2.45-.69-3.44Zm-4.2,14.67c0,1.07-.31,1.99-.92,2.6-.54.69-1.3.99-2.29.99s-1.76-.31-2.37-.99c-.61-.61-.92-1.53-.92-2.6v-11.16c0-1.15.31-2.06.92-2.67.61-.69,1.37-.99,2.37-.99s1.76.3,2.29.99c.61.61.92,1.53.92,2.67v11.16Z"/>
        <path class="cls-4" d="m192.39,280.62c-.38-.99-.99-1.76-1.76-2.45-.69-.69-1.61-1.22-2.6-1.53-.99-.38-1.99-.53-3.06-.53-1.15,0-2.14.15-3.13.53-.08,0-.15.08-.23.08-.92.3-1.68.84-2.37,1.45-.76.69-1.3,1.45-1.76,2.45-.46.99-.69,2.14-.69,3.44v11.23c0,1.3.23,2.45.69,3.44.08.08.08.23.15.31.46.84.92,1.6,1.61,2.14.76.69,1.6,1.22,2.6,1.61.99.3,1.99.46,3.13.46,1.07,0,2.06-.15,3.06-.46.99-.38,1.91-.92,2.6-1.61.76-.61,1.37-1.45,1.76-2.45.46-.99.69-2.14.69-3.44v-11.23c0-1.3-.23-2.44-.69-3.44Zm-4.2,14.67c0,1.07-.31,1.99-.84,2.6-.61.69-1.37.99-2.37.99s-1.76-.31-2.37-.99c-.61-.61-.92-1.53-.92-2.6v-11.16c0-1.15.3-2.06.92-2.67.61-.69,1.37-.99,2.37-.99s1.76.3,2.37.99c.54.61.84,1.53.84,2.67v11.16Z"/>
      </g>
      <g>
        <path class="cls-4" d="m33.24,105.78v2.45h3.67v11.54h2.67v-11.54h3.67v-2.45h-10.01Z"/>
        <path class="cls-4" d="m55.7,110.97c0-.54-.08-.99-.15-1.45-.08-.46-.23-.92-.38-1.3-.08-.08-.08-.15-.15-.23-.15-.23-.38-.53-.69-.84-.15-.15-.31-.31-.46-.38-.31-.31-.69-.54-1.15-.69-.31-.15-.69-.23-1.07-.3-.31-.08-.61-.08-.99-.08-.84,0-1.53.15-2.14.38-.61.23-1.15.61-1.6,1.07-.38.38-.61.76-.84,1.07-.15.38-.31.84-.38,1.3s-.15.92-.15,1.45c-.08.54-.08,1.15-.08,1.83,0,.61,0,1.22.08,1.76,0,.23,0,.46.08.61,0,.31,0,.61.08.84.08.46.23.92.38,1.3.23.38.46.69.84,1.07.46.46.99.84,1.6,1.07.53.31,1.15.38,1.91.38h.23c.76,0,1.45-.08,2.06-.38.61-.23,1.15-.61,1.61-1.07.38-.38.61-.69.84-1.07.15-.38.31-.84.38-1.3.08-.38.15-.92.15-1.45v-.38c.08-.38.08-.92.08-1.37,0-.69,0-1.3-.07-1.84Zm-2.83,4.51c0,.3-.08.53-.15.69-.15.23-.23.38-.38.46-.15.23-.38.46-.69.61-.15.08-.38.15-.61.08-.08.08-.23.08-.38.08-.38,0-.76,0-1.07-.15-.23-.15-.53-.38-.76-.61-.08-.08-.23-.23-.31-.46-.08-.15-.15-.38-.15-.69-.08-.23-.15-.61-.15-1.07v-3.29c0-.46.08-.76.15-1.07,0-.3.08-.54.15-.69.08-.23.23-.38.31-.54.23-.23.53-.38.76-.54.31-.08.69-.15,1.07-.15.3,0,.69.08.99.15.31.15.54.31.69.54.15.15.23.31.38.54.08.15.15.38.15.69.08.31.08.61.15,1.07v3.29c-.08.38-.08.69-.15.92v.15Z"/>
        <path class="cls-4" d="m68.69,108.45c-.23-.54-.46-.99-.92-1.37-.38-.38-.84-.69-1.37-.92-.61-.23-1.22-.38-1.99-.38h-5.35v13.98h2.67v-5.27h2.68c.76,0,1.37-.08,1.99-.31.53-.23.99-.54,1.37-.99.46-.38.69-.84.92-1.38.23-.54.31-1.07.31-1.68,0-.53-.08-1.14-.31-1.68Zm-2.9,3.06c-.23.23-.46.38-.76.38-.23.15-.46.15-.76.15h-2.52v-3.82h2.52c.69,0,1.15.23,1.53.54.31.38.54.84.54,1.37,0,.61-.23,1.07-.54,1.37Z"/>
        <path class="cls-4" d="m80.99,108.22v-2.45h-9.17v13.98h9.17v-2.45h-6.49v-3.36h5.5v-2.45h-5.5v-3.29h6.49Z"/>
        <path class="cls-4" d="m90.39,116.86c-.38.38-.92.53-1.6.53-.38,0-.69,0-.99-.15-.31-.15-.54-.31-.76-.54-.08-.15-.23-.31-.31-.46-.08-.23-.15-.46-.23-.76,0-.23-.08-.61-.08-1.07-.08-.46-.08-.99-.08-1.6,0-.69,0-1.22.08-1.68,0-.46.08-.76.08-1.07.08-.3.15-.54.23-.69.08-.23.23-.38.31-.54.23-.23.46-.38.76-.54.31-.08.61-.15.99-.15.69,0,1.22.15,1.53.54.38.38.69.84.76,1.45h2.83c-.31-1.53-.84-2.6-1.76-3.36-.92-.69-2.06-1.07-3.36-1.07-.84,0-1.53.15-2.14.38-.54.23-1.15.61-1.6,1.07-.31.38-.61.76-.76,1.07-.23.38-.38.84-.46,1.3s-.15.92-.15,1.45v3.59c0,.54.08,1.07.15,1.45.08.46.23.92.46,1.3.15.38.46.69.76,1.07.46.46,1.07.84,1.6,1.07.61.31,1.3.38,2.14.38,1.3,0,2.44-.38,3.36-1.07.92-.76,1.45-1.84,1.76-3.29h-2.75c-.15.54-.46,1-.77,1.38Z"/>
        <path class="cls-4" d="m106.36,109.52c-.08-.46-.23-.92-.46-1.3-.15-.31-.46-.69-.76-1.07-.46-.46-.99-.84-1.6-1.07-.61-.23-1.3-.38-2.14-.38s-1.53.15-2.14.38-1.15.61-1.61,1.07c-.31.38-.61.76-.76,1.07-.23.38-.38.84-.46,1.3s-.15.92-.15,1.45v3.59c0,.54.08,1.07.15,1.45.08.46.23.92.46,1.3.15.38.46.69.76,1.07.46.46.99.84,1.61,1.07.61.31,1.3.38,2.14.38s1.53-.08,2.14-.38c.61-.23,1.15-.61,1.6-1.07.31-.38.61-.69.76-1.07.23-.38.38-.84.46-1.3.08-.38.15-.92.15-1.45v-3.59c0-.53-.08-.99-.15-1.45Zm-2.6,4.89c0,.46-.08.84-.08,1.07-.08.3-.15.53-.23.69-.08.23-.15.38-.31.46-.23.23-.46.46-.76.61-.31.15-.61.15-.99.15s-.69,0-.99-.15c-.31-.15-.54-.38-.76-.61-.15-.08-.23-.23-.31-.46-.08-.15-.15-.38-.23-.69-.08-.23-.08-.61-.08-1.07-.08-.46-.08-.99-.08-1.6,0-.69,0-1.22.08-1.68,0-.46,0-.76.08-1.07.08-.3.15-.54.23-.69.08-.23.15-.38.31-.54.23-.23.46-.38.76-.54.31-.08.61-.15.99-.15s.69.08.99.15c.31.15.54.31.76.54.15.15.23.31.31.54.08.15.15.38.23.69,0,.31.08.61.08,1.07.08.46.08.99.08,1.68,0,.61,0,1.15-.08,1.6Z"/>
        <path class="cls-4" d="m117.74,105.78v8.56l-5.5-8.56h-2.44v13.98h2.75v-8.56l5.5,8.56h2.45v-13.98h-2.75Z"/>
        <path class="cls-4" d="m139.14,114.41c-.15-.38-.38-.76-.69-1.07-.15-.15-.31-.3-.46-.38-.15-.08-.31-.23-.61-.38,1.15-.61,1.76-1.6,1.76-2.9,0-.61-.15-1.15-.3-1.6-.23-.46-.54-.84-.92-1.22-.31-.31-.76-.61-1.3-.76-.54-.15-1.15-.3-1.83-.3h-5.58v13.98h5.81c.69,0,1.3-.15,1.83-.31.46-.23.92-.46,1.3-.84.38-.31.69-.76.84-1.22.23-.46.3-1.07.3-1.68,0-.46-.08-.91-.16-1.3Zm-7.18-6.19h2.67c.54,0,.99.15,1.3.46s.46.69.46,1.15c0,.54-.15.92-.46,1.22-.3.23-.76.38-1.3.38h-2.67v-3.21Zm4.13,8.63c-.31.3-.76.46-1.3.46h-2.83v-3.44h2.83c.54,0,.99.15,1.3.46.3.31.54.69.54,1.22s-.23.99-.54,1.3Z"/>
        <path class="cls-4" d="m148.23,105.78h-2.14l-5.04,13.98h2.83l.84-2.52h4.97l.84,2.52h2.83l-5.12-13.98Zm-2.75,9.17l1.76-5.04,1.68,5.04h-3.44Z"/>
        <path class="cls-4" d="m163.44,105.78v8.56l-5.5-8.56h-2.37v13.98h2.67v-8.56l5.5,8.56h2.45v-13.98h-2.75Z"/>
        <path class="cls-4" d="m176.27,111.35l4.59-5.58h-3.29l-4.97,6.11v-6.11h-2.67v13.98h2.67v-4.2l1.83-2.14,3.59,6.34h3.13l-4.89-8.4Z"/>
      </g>
      <g>
        <path class="cls-14" d="m107.54,133.46v53.62c0,2.16-1.77,3.92-3.92,3.92H37.57c-2.16,0-3.92-1.77-3.92-3.92v-53.62c0-2.16,1.76-3.92,3.92-3.92h66.05c2.16,0,3.92,1.77,3.92,3.92Z"/>
        <path class="cls-3" d="m93.05,142.5l11.46-11.46h-3.74l-12.53,12.53-1.53,1.53-4.74,4.81-1.53,1.53h-17.11l-7.87-7.87-2.52-2.6-9.93-9.93h-3.67l9.86,9.93,1.53,1.53h-15.74v2.6h18.41l4.89,4.97,1.3,1.38v3.06h-24.6v2.6h24.6v9.4h-24.6v2.6h24.6v3.06h.08l-4.74,4.81-1.53,1.53h-18.41v2.6h15.82l-9.93,9.93h3.67l9.93-9.93,8.94-8.94h17.04l18.8,18.87h3.74l-9.93-9.93h14.52v-2.6h-17.12l-6.34-6.34h.15v-3.06h23.3v-2.6h-23.3v-9.4h23.3v-2.6h-23.3v-3.06h-.15l6.34-6.34h17.11v-2.6h-14.52Zm-11.46,27.04h-19.41v-15.51h19.41s0,15.51,0,15.51Z"/>
        <g>
          <path class="cls-10" d="m62.03,149.92l1.53,1.53h.08l1.07,1.07h11.84l2.6-2.6h-17.11Zm0,0l1.53,1.53h.08l1.07,1.07h11.84l2.6-2.6h-17.11Zm0,0l1.53,1.53h.08l1.07,1.07h11.84l2.6-2.6h-17.11Zm0,0l1.53,1.53h.08l1.07,1.07h11.84l2.6-2.6h-17.11Zm0,0l1.53,1.53h.08l1.07,1.07h11.84l2.6-2.6h-17.11Zm0,0l1.53,1.53h.08l1.07,1.07h11.84l2.6-2.6h-17.11Zm-3.74,0v20.71h24.68v-20.71h-24.68Zm22,18.11h-19.41v-15.51h19.41v15.51Zm-18.26-18.11l1.53,1.53h.08l1.07,1.07h11.84l2.6-2.6h-17.11Zm15.97,19.64l-1.53-1.53h-11.77l-1.53,1.53h-.08l-.99,1.07h17.04l-1.15-1.07Zm-15.97-19.64l1.53,1.53h.08l1.07,1.07h11.84l2.6-2.6h-17.11Zm0,0l1.53,1.53h.08l1.07,1.07h11.84l2.6-2.6h-17.11Zm0,0l1.53,1.53h.08l1.07,1.07h11.84l2.6-2.6h-17.11Zm0,0l1.53,1.53h.08l1.07,1.07h11.84l2.6-2.6h-17.11Z"/>
          <g>
            <g>
              <polygon class="cls-10" points="53.15 140.98 55.77 143.6 33.65 143.6 33.65 140.98 53.15 140.98"/>
              <polygon class="cls-10" points="107.54 140.98 107.54 143.6 85.42 143.6 88.04 140.98 107.54 140.98"/>
            </g>
            <g>
              <rect class="cls-10" x="33.65" y="152.97" width="27.22" height="2.62"/>
              <rect class="cls-10" x="80.32" y="152.97" width="27.22" height="2.62"/>
            </g>
            <g>
              <rect class="cls-10" x="33.65" y="164.96" width="27.22" height="2.62"/>
              <rect class="cls-10" x="80.32" y="164.96" width="27.22" height="2.62"/>
            </g>
            <g>
              <polygon class="cls-10" points="55.77 176.95 53.15 179.56 33.65 179.56 33.65 176.95 55.77 176.95"/>
              <polygon class="cls-10" points="107.54 176.95 107.54 179.56 88.03 179.56 85.42 176.95 107.54 176.95"/>
            </g>
          </g>
          <g>
            <polygon class="cls-10" points="64.68 168.04 41.71 191.01 38.01 191.01 60.98 168.04 64.68 168.04"/>
            <polygon class="cls-10" points="103.18 129.54 80.21 152.51 76.51 152.51 99.48 129.54 103.18 129.54"/>
          </g>
          <g>
            <polygon class="cls-10" points="64.67 152.51 60.98 152.51 38.01 129.54 41.71 129.54 64.67 152.51"/>
            <polygon class="cls-10" points="103.18 191.01 99.48 191.01 79.12 170.65 78.03 169.56 76.51 168.04 80.21 168.04 81.63 169.46 82.82 170.65 84.24 172.08 89.12 176.95 90.64 178.47 91.73 179.56 93.26 181.09 103.18 191.01"/>
          </g>
        </g>
      </g>
      <g>
        <path class="cls-17" d="m104.3,202.91H38.25c-2.16,0-3.92,1.76-3.92,3.9v53.31c0,2.15,1.77,3.9,3.92,3.9h66.05c2.16,0,3.92-1.76,3.92-3.9v-53.31c0-2.14-1.77-3.9-3.92-3.9Z"/>
        <path class="cls-9" d="m108.23,226.99v33.13c0,2.15-1.77,3.9-3.93,3.9h-45.75l-24.22-24.08v-33.14c0-2.14,1.77-3.9,3.93-3.9h45.75l24.22,24.08Z"/>
        <path class="cls-7" d="m104.29,202.91h-2.29l-61.58,61.11h63.87c2.16,0,3.93-1.75,3.93-3.9v-53.31c0-2.14-1.77-3.9-3.93-3.9Z"/>
      </g>
      <path class="cls-5" d="m255.97,323.37c0-107.76.06-215.61.06-323.37h239.69c8.94,0,16.28,7.34,16.28,16.27v292.03c0,9.02-7.33,16.35-16.27,16.35-79.04,0-158.3,0-237.33,0"/>
      <text class="cls-8" transform="translate(35.71 69.9)"><tspan x="0" y="0">NAE</tspan><tspan class="cls-20" x="75.42" y="0">B</tspan><tspan x="99.54" y="0">A</tspan><tspan class="cls-19" x="125.41" y="0">L</tspan><tspan class="cls-12" x="144.05" y="0">O</tspan><tspan class="cls-13" x="173.2" y="0">V</tspan><tspan class="cls-18" x="198.19" y="0">O</tspan></text>
    </g>
  </g>
</svg>