<?xml version="1.0" encoding="UTF-8"?>
<svg id="_Слой_2" data-name="Слой 2" xmlns="http://www.w3.org/2000/svg" width="512" height="324.65" xmlns:xlink="http://www.w3.org/1999/xlink" viewBox="0 0 512 324.65">
  <defs>
    <style>
      .cls-1, .cls-2 {
        fill: #fff;
      }

      .cls-3 {
        fill: #dc3b39;
      }

      .cls-4 {
        fill: #cececf;
      }

      .cls-5, .cls-6 {
        opacity: .1;
      }

      .cls-5, .cls-7 {
        fill: #040000;
      }

      .cls-5, .cls-7, .cls-2 {
        isolation: isolate;
      }

      .cls-8 {
        fill: #d67261;
      }

      .cls-9 {
        fill: #717070;
      }

      .cls-10 {
        letter-spacing: 0em;
      }

      .cls-11 {
        fill: #e6ab2d;
      }

      .cls-12 {
        letter-spacing: -.01em;
      }

      .cls-13 {
        fill: #ffd54f;
      }

      .cls-14 {
        fill: url(#_Безымянный_градиент_75);
      }

      .cls-15 {
        fill: #ecedf7;
      }

      .cls-16 {
        letter-spacing: 0em;
      }

      .cls-7, .cls-2 {
        opacity: .2;
      }

      .cls-17, .cls-18 {
        fill: #ff3eff;
      }

      .cls-19 {
        fill: url(#_Безымянный_градиент_75-2);
      }

      .cls-20 {
        letter-spacing: -.04em;
      }

      .cls-21 {
        letter-spacing: 0em;
      }

      .cls-18 {
        font-family: MyriadPro-BoldIt, 'Myriad Pro';
        font-size: 41.88px;
        font-style: italic;
        font-weight: 700;
      }
    </style>
    <linearGradient id="_Безымянный_градиент_75" data-name="Безымянный градиент 75" x1="256" y1="324.63" x2="256" y2="0" gradientUnits="userSpaceOnUse">
      <stop offset="0" stop-color="#cd00ff"/>
      <stop offset="1" stop-color="#00f9ff"/>
    </linearGradient>
    <linearGradient id="_Безымянный_градиент_75-2" data-name="Безымянный градиент 75" x1="399.24" y1="324.29" x2="399.24" y2="93.73" xlink:href="#_Безымянный_градиент_75"/>
  </defs>
  <g id="design-2">
    <g>
      <g>
        <g>
          <path class="cls-14" d="m278.52,324.29v-63.6c0-4.38,3.57-7.95,7.95-7.95h23.85v-23.6c0-13.94,6.92-26.87,18.52-34.61,5.14-3.42,11.08-5.69,17.19-6.57l16.73-2.39,2.31-9.24c-6.82-4.26-11.89-11.02-13.96-19h-1.05c-8.77,0-15.9-7.13-15.9-15.9,0-3.21.97-6.19,2.61-8.69-1.3-4.5-2.61-10.21-2.61-15.17,0-7.89,5.79-14.47,13.34-15.69l.36-.73c4.75-9.49,14.28-15.38,24.89-15.38h32.96c8.77,0,15.9,7.13,15.9,15.9,0,.36-.08.7-.11,1.05,5.13,5.02,8.06,11.85,8.06,19.1,0,2.88-.46,5.73-1.37,8.47l-.98,2.93c1.46,2.4,2.35,5.19,2.35,8.2,0,8.77-7.13,15.9-15.9,15.9h-1.05c-2.07,7.98-7.14,14.74-13.96,19l2.31,9.24,16.73,2.39c6.11.87,12.05,3.14,17.19,6.57,7.13,4.76,12.64,11.71,15.72,19.7,6.65,2.97,12.8,7.11,18.11,12.41l2.25,2.24h41.03v-23.85h-2.92v7.95h-7.95v-8.35c-9.06-1.85-15.9-9.87-15.9-19.47v-11.93h7.95v11.93c0,6.57,5.35,11.93,11.93,11.93h6.9v-21.64c-1.95-1.39-4.33-2.21-6.9-2.21-10.96,0-19.88-8.92-19.88-19.88v-19.88h15.9v-7.95h7.95v8.35c1.01.21,1.98.5,2.92.85V15.19c0-8.38-7.38-15.19-16.36-15.19H16.36C7.38,0,0,6.82,0,15.19v294.18c0,8.38,7.38,15.26,16.36,15.26h262.18c0-.11-.02-.23-.02-.34Zm222.61-230.56h7.95v7.95h-7.95v-7.95Zm0,15.9h7.95v7.95h-7.95v-7.95Zm-198.76,95.4h-7.95v-7.95h7.95v7.95Zm0-15.9h-7.95v-7.95h7.95v7.95Zm-23.85-55.65h7.95v11.93c0,6.57,5.35,11.93,11.93,11.93h11.93v-11.93c0-6.57-5.35-11.93-11.93-11.93-10.96,0-19.88-8.92-19.88-19.88v-19.88h15.9v-7.95h7.95v8.35c9.06,1.85,15.9,9.88,15.9,19.47v11.93h-7.95v-11.93c0-6.57-5.35-11.93-11.93-11.93h-11.93v11.93c0,6.57,5.35,11.93,11.93,11.93,10.96,0,19.88,8.92,19.88,19.88v19.88h-15.9v7.95h-7.95v-8.35c-9.06-1.85-15.9-9.88-15.9-19.47v-11.93Z"/>
          <path class="cls-19" d="m505.1,141.43c2.57,0,4.95.83,6.9,2.21v22.89c-2.15-.8-4.47-1.26-6.9-1.26-6.57,0-11.93-5.35-11.93-11.93v-11.93h11.93Zm-147.08,7.95v-15.41c0-5.4,3.61-10.08,8.8-11.49,2.08,6.36,8,11,15.05,11h23.85v15.9c0,13.15-10.7,23.85-23.85,23.85s-23.85-10.7-23.85-23.85Zm31.8-7.95c0,2.19,1.78,3.98,3.98,3.98s3.98-1.78,3.98-3.98-1.78-3.98-3.98-3.98-3.98,1.78-3.98,3.98Zm-15.9,10.99l-.42-.84-7.11,3.56.42.84c2.87,5.74,8.64,9.31,15.06,9.31,6.42,0,12.19-3.57,15.06-9.31l.42-.84-7.11-3.56-.42.84c-1.51,3.03-4.56,4.91-7.95,4.91s-6.44-1.88-7.95-4.91Zm-7.95-10.99c0,2.19,1.78,3.98,3.98,3.98s3.98-1.78,3.98-3.98-1.78-3.98-3.98-3.98-3.98,1.78-3.98,3.98Zm139.69,166.95h6.33v-9.05c-3.08,2.13-5.36,5.31-6.33,9.05Zm-8.16-71.55h-22.96c11.51,8.09,18.63,21.4,18.63,35.78s-7.4,27.86-18.67,35.78h23c1.39-8.22,6.98-15,14.49-18.07v-35.41c-7.5-3.08-13.1-9.85-14.49-18.07Zm-99.74,2.13c0,4.81-1.88,9.35-5.28,12.74l-18.52,18.52c.26,13.57,5.63,26.29,15.25,35.92l.6.6,73.88-73.88-.6-.6c-9.87-9.87-22.99-15.3-36.94-15.3-11.74,0-23,3.94-32.15,11.11,2.33,3.03,3.76,6.79,3.76,10.9Zm41.99-28.35c-2.46-3.7-5.55-6.98-9.27-9.46-2.72-1.81-5.73-3.18-8.87-4.14v12.21c1.51-.11,3.02-.21,4.54-.21,4.64,0,9.19.58,13.6,1.6Zm-26.09-77.12v15.9c4.38,0,7.95-3.57,7.95-7.95s-3.57-7.95-7.95-7.95Zm-80.42,67.66c-9.38,6.25-14.98,16.72-14.98,27.99v47.65c0,8.66,7.04,15.7,15.7,15.7,4.19,0,8.14-1.63,11.1-4.6l31.18-31.18-14.25-14.25-32.97,32.97-5.62-5.62,10.76-10.76v-34.13h7.95v26.18l15.56-15.56-8.22-4.69,3.12-12.51-10.47-2.09v-19.23c-3.14.96-6.15,2.33-8.87,4.14Zm176.91,115.19h-121.98l-4.57-4.57c-9.37-9.37-15.2-21.29-16.99-34.18l-15.92,15.92c-4.47,4.47-10.41,6.93-16.72,6.93-13.04,0-23.65-10.61-23.65-23.65v-16.1h-23.85v63.6h212.58c4.83-.97,8.88-3.96,11.11-7.95Zm-168.04-174.9c0,4.38,3.57,7.95,7.95,7.95v-15.41c0-.17.04-.32.04-.49h-.04c-4.38,0-7.95,3.57-7.95,7.95Zm23-26.74l1.17-.29c1.48-7.25,7.9-12.72,15.58-12.72,8.77,0,15.9,7.13,15.9,15.9h-7.95c0-4.38-3.57-7.95-7.95-7.95s-7.95,3.57-7.95,7.95,3.57,7.95,7.95,7.95h31.8c2.57,0,4.96.67,7.11,1.75.54-1.78.84-3.6.84-5.45,0-3.83-1.18-7.49-3.28-10.58-2.91,3.82-7.46,6.33-12.62,6.33v-7.95c4.38,0,7.95-3.57,7.95-7.95s-3.57-7.95-7.95-7.95h-32.96c-7.58,0-14.39,4.21-17.78,10.99l-2.46,4.91h-2.46c-4.38,0-7.95,3.57-7.95,7.95,0,2.93.63,6.38,1.35,9.42,2.02-.93,4.24-1.47,6.6-1.47h1.94c2.48-5.27,7.17-9.35,13.11-10.84Zm146.87,131.19v-9.05h-6.33c.97,3.73,3.26,6.92,6.33,9.05Zm-122.79-48.02l10.23,8.18,6.69-11.7-7.68-1.1-9.23,4.62Zm2.12-18.11c-2.99.93-6.17,1.43-9.46,1.43s-6.47-.5-9.46-1.43l-1.81,7.25,11.27,5.64,11.27-5.64-1.81-7.25Zm4.11,33.28l-4.77-3.82,2.75,7.35,2.02-3.53Zm18.23-2.67v-13.21l-9.06,15.85c2.94-1.12,5.97-1.99,9.06-2.64Zm-49.36-4.32l10.23-8.18-9.23-4.62-7.68,1.1,6.69,11.7Zm-14.24,3.69l8.12,1.62-8.12-14.2v12.58Zm10.32,10.17l-1.76,7.03,4.87,2.78,3.3-3.3-3.38-5.91-3.03-.6Zm21.48,31.19l5-5c1.9-1.91,2.95-4.44,2.95-7.13,0-5.55-4.52-10.08-10.08-10.08-2.69,0-5.22,1.05-7.13,2.95l-5,5,14.25,14.25Zm84.66-9.81l-12.41,12.41c4.26,1.82,7.26,6.05,7.26,10.97v3.98h-7.95v-3.98c0-2.19-1.78-3.98-3.98-3.98h-2.33l-1.65,1.65v2.33c0,2.19,1.78,3.98,3.98,3.98,6.57,0,11.93,5.35,11.93,11.93v11.93h-7.95v7.95h-7.95v-8.68c-4.62-1.65-7.95-6.02-7.95-11.19v-3.98h7.95v3.98c0,2.19,1.78,3.98,3.98,3.98h3.98v-3.98c0-2.19-1.78-3.98-3.98-3.98-4.92,0-9.15-3-10.97-7.26l-20.36,20.36c6.23,11.4,18.21,18.69,31.34,18.69,19.72,0,35.78-16.05,35.78-35.78,0-13.13-7.29-25.1-18.7-31.34Zm-54.28,54.28l-12.83,12.83h24.96c-4.82-3.37-8.97-7.72-12.13-12.83Zm-25.06-72.97l-5.32-14.18-4.79,12.78c.88-.13,1.76-.26,2.66-.26,2.66,0,5.17.62,7.45,1.65Zm-18.89-9.56l2.02,3.53,2.75-7.35-4.77,3.82Z"/>
        </g>
        <g class="cls-6">
          <path class="cls-1" d="m307.69,128.21s-1.3.92-2.06,1.99c-.31.46-1.15.69-1.99.76h-.08c-1.37.15-2.98,0-3.82-.38-1.53-.53-2.06-1.53-2.98-1.22-.23.08-.3.15-.46.23-.54.38-.76.84-2.22,1.3-1.91.46-1.76,1.07-1.83,2.45-.08,1.37.38,2.22-.15,3.13-.46.99-3.67.61-5.65.46-.54-.08-1.07,0-1.53.23h-.08v.08c-1.15.38-2.14,1.3-3.52,2.6-1.91,1.91-1.3,1.99-3.82,1.6-.61-.15-1.3-.08-2.06.08-1.99.23-4.13,1.3-6.04,2.37-2.52,1.38-.84,1.99-1.07,4.74-.23,2.68-.84,4.05-2.37,5.2-1.53,1.15-2.75,1.3-5.12,4.36-.23.23-.38.46-.54.69-1.91,2.37-2.22,2.6-2.98,2.45-.92-.08-.31-5.73-.31-7.49s.92-3.67,3.21-5.58l.08-.08c2.22-1.76,3.74-2.14,5.58-4.51,1.76-2.45,1.99-3.9,1.3-5.12-.69-1.22-2.6,2.22-4.05,2.9-1.53.61-1.68-.38-2.83-1.38l-.08-.08c-.53-.38-1.37-.23-2.22.08v.08c-1.15.38-2.37,1.15-2.98,1.22-.99.08-2.14.61-3.9,1.68-.08,0-.23.08-.31.15-1.83,1.15-2.52.23-4.58-.61-1.99-.92-4.13-1.53-7.18-.3-1.15.46-2.83,1.91-4.43,3.59-.08.08-.23.15-.3.23-2.6,2.75-5.04,5.96-4.81,6.95.46,1.68,2.29,1.37,4.74,2.83,2.45,1.45.54,1.45-.38,4.66-.92,3.21-.61,3.59-1.22,6.34-.69,2.75-4.81,5.04-5.81,6.03-.99.99-3.44,3.44-5.96,3.06-2.52-.46-2.52,1.83-4.43,5.12-1.83,3.29-.46,2.37-.08,4.2.38,1.76-1.6,6.11-3.06,7.56-1.37,1.45-2.67-1.22-1.99-4.13.61-2.98-.84-1.53-2.45-2.06-1.68-.61,1.15-1.76.84-3.29-.23-1.53-2.14-.15-2.83.15-.69.38-1.53.99-2.9-.46-1.22-1.22-.99-1.76-.92-1.83-.23.23-1.76,1.76-3.67,3.51-2.14,1.99.38.84,2.75,1.45,2.37.53,1.37,0,3.44.99,2.06,1.07-1.53,1.15-2.98,1.68-1.37.46-1.3,1.3.3,2.45,1.53,1.15,2.52,2.98,3.21,7.34.76,4.35-1.99,5.35-4.51,8.56-2.6,3.29-7.34,4.74-10.54,5.65-3.29.92-2.45,2.21-5.2,1.76-2.67-.54-1.6-1.07-3.9-.3-2.29.84,0,2.67,2.22,5.27,2.22,2.6-.61,8.56-2.14,9.32-1.53.69-1.91,3.06-3.9,2.75-2.06-.3-1.53-1.91-3.44-2.9-1.99-1.07-.23,2.68,1.22,6.8,1.37,3.97,2.9,3.9,3.44,6.11,0,.08.08.23.08.38.23,1.6-1.45,1.3-3.51,0-.23-.15-.38-.23-.61-.38-1.22-.84-2.45-1.91-3.59-3.13-3.29-3.59-3.06-3.06-4.13-6.88-1.07-3.82-.99-4.2-2.37-5.2-1.37-1.07-1.07-1.76-.76-3.44.3-1.76-6.95-9.93-9.86-10.24-2.98-.31-2.06.76-3.51,2.45-1.45,1.76-4.74,3.36-7.11,4.97-2.37,1.68-2.22,2.83-2.22,7.41s-1.3,4.35-5.73,5.65c-4.43,1.3-2.29-3.59-3.67-4.66-1.37-.99-2.98-6.04-3.74-11.38-.84-5.42-1.45-1.15-5.42-2.29-3.9-1.15-2.22-5.35-4.81-6.8-2.6-1.45-3.59-.84-6.04.31-2.44,1.15-5.04-.31-6.65-2.37-1.53-2.06-3.59-.76-6.42-1.37-2.83-.54-1.91-1.3-4.43-1.68-2.52-.46.23,2.22,1.99,4.81,1.68,2.6,3.74,1.3,9.7,3.59,5.96,2.29.61,3.29-1.76,5.65-2.37,2.37-4.35,2.68-7.64,4.43-3.29,1.83-4.51,1.99-7.95,3.36-3.36,1.38-4.13.38-6.42-.53-2.29-.92-3.82-5.27-6.42-10.85-2.67-5.65-4.51-9.32-6.49-11.77-1.99-2.45-1.53.54-.92,2.29.69,1.68,2.14,3.97,3.67,8.4,1.61,4.35,1.3,2.83,2.14,5.96.92,3.06,5.35,9.78,8.02,11.23,2.67,1.53,9.09-1.15,12.3-1.22,3.29-.08-.23,1.6-3.13,8.18-2.22,4.97-3.36,4.28-5.58,5.12-.69.31-1.53.76-2.6,1.6-4.28,3.51-4.66,7.34-5.27,11.77-.15,1.53-.08,2.9.08,4.28,0,.15,0,.31.08.38.08.76.15,1.6.31,2.37.08.46.15.99.15,1.53.08.46.15.99.15,1.53.08.69.15,1.53.08,2.29,0,.08,0,.23-.08.31,0,.61-.15,1.14-.46,1.68-.23.76-.76,1.53-1.3,2.22-1.61,2.14-3.9,3.97-5.12,5.5-.31.38-.54.76-.69,1.07-.08.15-.15.31-.15.46-.15.38-.23.76-.31,1.07-.15.53-.23.99-.31,1.53-.31,1.3-.69,3.06-1.99,6.49-.23.54-.38.99-.61,1.38-.31.61-.69,1.15-.99,1.53-.31.46-.69.76-1.07,1.07-1.15.84-2.37,1.07-3.67,1.53-.84.31-1.76.77-2.6,1.53-2.9,2.67-4.2,3.06-7.18,4.2-.38.15-.84.38-1.3.54-4.05,1.68-8.48-.92-8.94-3.29-.46-2.37.76-2.67.23-6.57-.46-3.9-4.81-11.69-6.34-15.51-1.53-3.82-.53-4.58,1.99-8.63,2.44-4.13-1.76-8.56-4.13-13.29-2.37-4.74-2.52-2.14-2.52-5.5s-.23-4.51-2.9-5.88c-2.6-1.38-4.2-2.22-8.71-3.36-4.51-1.15-4.43,1.38-8.79.76-4.43-.69-4.2.69-7.03.38-1.3-.15-2.9-1.15-4.43-2.29v-41.33c1.6-1.22,4.28-1.91,7.95-3.21,5.5-1.91,4.58-.23,9.4-1.6,4.81-1.37,10.7-2.75,13.98-2.52,3.36.23,2.83,2.67,2.83,4.58s.84,1.53,5.04,2.6c4.28,1.07,1.99,2.45,5.12,3.06,3.21.69,2.14-.61,3.67-3.13,1.45-2.52,2.44,0,6.49,1.99,4.13,2.06,3.82.84,8.94.31,5.04-.61,5.5.15,6.65-.38,1.15-.46,1.3-5.73.61-8.1-.76-2.37-1.99-.53-4.66-.53-1.76,0-2.37-.38-2.29-1.3,0-.53.15-1.22.46-2.14.08-.15.08-.3.15-.38.46-1.3.84-1.6,1.83-1.99.54-.23,1.37-.46,2.52-.99.08-.08.23-.08.31-.08v-.08c1.07-.38,2.22-.61,3.36-.69,1.99-.23,3.9-.23,5.35-1.07.31-.23.54-.38.61-.54.46-.84-1.83-1.6-3.29-2.6-.31-.15-.54-.3-.76-.53-.92-.99-.92-1.91-.69-2.98.15-.61.38-1.3.61-2.06.54-2.06-1.3-.61-3.44.61-2.14,1.22.38,1.68-.54,3.36-.46.84-1.22.76-1.91.3-.46-.23-.84-.69-1.15-1.22-.23-.23-.38-.46-.46-.69-.38-.84-.92-.84-1.76-.3-.61.3-1.37.92-2.44,1.68-1.76,1.22-1.15,2.14-.99,3.67.08.46.08.92,0,1.45,0,.31-.15.61-.23.92-.53,1.6-1.45,1.76-2.37,1.68-.92,0-1.83-.15-2.29.69-.99,1.68-.31,2.98-2.14,3.29-1.76.38-1.07,1.38-1.91,2.67-.76,1.3-2.6-.99-2.9-3.51-.31-2.52-3.36-5.27-3.67-6.57-.31-1.3-3.74-2.83-5.58-3.44-1.76-.54-.61,1.3.84,3.06,1.45,1.68,4.2,2.22,4.43,4.05.15,1.91-1.22.92-2.29,1.99-1.07,1.07-.53,3.29-2.14,3.97-1.68.76-1.45-2.06-1.07-4.58.38-2.45-1.99-2.9-3.67-4.51-1.76-1.68-4.43-3.21-5.35-3.97-.84-.69-3.21,1.99-5.81,1.91-2.52-.08-1.53-.53-2.52.61-.99,1.15-2.14,3.13-3.82,3.44-1.68.38-2.52,1.6-2.83,3.51-.38,1.99-1.83,2.14-4.35,3.21-2.52,1.07-5.96-.23-8.1-.99-2.14-.69-1.76-2.29-1.15-3.97.23-.53.3-1.3.53-2.14.38-1.76.99-3.9,3.13-4.66.84-.31,1.45-.38,1.99-.38l.08-.08c1.53-.08,2.29.46,4.05,0,2.37-.69,1.6-1.83,1.53-5.12,0-.15,0-.3-.08-.46-.31-2.6-3.44-1.6-3.9-3.51-.38-1.99,2.75-.69,8.18-1.53.38-.08.76-.15,1.07-.31,2.06-.61,2.83-1.91,3.28-3.29.46-1.37.61-2.9,1.45-3.59,1.91-1.6,3.06-2.14,3.74-5.35.76-3.21,3.28-4.43,5.58-3.51.46.23.76.46.92.76.53,1.07-.84,2.6-.69,4.05.15,1.91,2.44,1.53,3.9,1.91,1.37.31,7.41-.76,9.47-2.29,1.6-1.3,2.75-2.45,4.13-3.51.31-.23.61-.53.99-.76,1.91-1.3.46-2.14.92-2.75.38-.69,1.91-2.45,1.3-4.35-.61-1.6-2.67-.84-3.97-1.83-.15-.15-.31-.38-.46-.61-.76-1.3-.23-2.75.46-4.13.31-.61.61-1.22.92-1.83.23-.54.23-.84.08-.84-.15-.15-.53,0-.99.15-.69.31-1.53.76-2.22,1.07-1.76.84-2.83,2.6-4.43,4.97-.61.92-.92,1.68-.99,2.45l-.08.08c-.23,1.22.08,2.37.15,3.82.15,2.37-3.28,4.66-4.89,4.35-.84-.23-1.3-.99-1.6-1.91-.15-.76-.23-1.68-.31-2.37-.15-1.45-1.15-2.37-2.44-1.91-1.3.54-3.9,1.68-6.42.99-2.52-.61-1.76-4.2-.53-7.34,1.22-3.13,1.91-2.14,5.96-4.2,4.13-1.99,2.98-2.83,6.26-5.65,3.21-2.9,3.9-4.89,7.11-7.26,3.13-2.37,5.27-3.21,13.22-4.05,6.19-.69,4.97.15,5.73,1.6.08.31.31.61.69.92.08.15.23.31.38.38,1.91,1.38,3.36,1.83,5.2,2.22.99.23,2.14.38,3.51.76,3.97.99,3.59,2.29,4.05,3.21.54.92-1.76,2.52-3.82,2.6h-.92v-.08c-1.45-.08-2.29-.61-3.21-.99-1.15-.46-.38,1.07.38,1.99.61.69,1.53.92,2.98.92.38,0,.92-.08,1.37-.15,2.29-.23,5.58-1.83,6.57-1.6.38.08,1.15,0,2.06-.23,1.6-.46,3.82-1.07,5.42-1.53,2.52-.76,2.52-2.37,3.51-3.06.76-.61,2.44-.76,6.11-.46.61.08,1.37.08,2.14.15,5.12.38,4.58-.54,7.87-1.83,1.37-.54,2.37-.61,3.21-.46,1.22.15,2.22.69,3.67.69,2.52,0,6.19-1.53,7.41-3.21.08-.08.08-.15.15-.15,1.07-1.53,1.61-.84,3.51-1.99,2.06-1.22,1.45-1.07,6.88-2.06,5.5-.99,6.95,1.38,9.32,0,2.37-1.38-1.15-4.51-.46-5.35.61-.92,5.88-.15,8.17-1.14,2.29-1.07.92-2.45,1.99-3.67,1.07-1.3,5.27-1.83,9.55-2.22,4.35-.46,4.13,1.07,6.04.53,1.83-.46,1.3-1.83,2.83-2.14,1.53-.23,1.53-1.07,2.45-1.53s4.05-.38,6.49,1.15c2.52,1.53,2.98-.23,5.58,0,2.6.23,1.45,2.52,1.45,3.59s-1.91,3.29-3.51,3.97c-1.53.76-.15,1.76,2.14,1.6s3.74-.99,6.49-1.22c2.67-.15,3.67.38,6.19,1.53,2.52,1.14,4.66,1.14,6.26.76,1.68-.46,1.15-1.91,2.06-2.21.92-.38,5.5,1.53,7.95,2.52,2.45.99-.38,2.14,0,3.21.3.99,3.13,2.83,4.97,2.6,1.76-.23,1.07-2.06,3.97-1.91,2.98.15,3.82.15,6.95-.84,3.21-.92,2.98-1.68,7.64-1.38,4.66.38,4.59.76,6.19.99,1.6.23,2.29-.46,5.5.54,3.13.92,2.14,3.21,2.98,3.67.84.46,2.22.31,5.5.08.92-.08,1.45-.08,1.76,0,.92.15.69.84,2.06,1.76,1.91,1.3.69,1.6,1.91,1.37.23,0,.54-.08.84-.15,1.15-.23,2.6-.69,4.74-.84,2.83-.31,2.75.08,4.36,1.15,1.61.99,2.9.84,4.58.08,1.6-.84.46-1.6.69-1.6.31,0,3.29.61,7.49,1.14,1.22.15,2.14.38,2.98.61,1.91.54,3.13,1.22,5.81,2.22.84.31,1.53.61,1.99.99,1.68,1.07,1.53,2.22,2.83,3.21,1.76,1.3,1.76.23,3.36-.46.15-.08.23-.08.3-.08,1.45-.53,2.22.69,3.44,2.06Z"/>
          <path class="cls-1" d="m235.99,172.68c1.07.39,3.1,2.04,4.33,1.96,1.23-.08,1.88,1.55.9,1.71-.98.16-4.25,1.71-4.25,1.71,0,0-.98-1.23-1.55,0s-.9,2.12-.73,2.86c.16.74,1.31,2.86.65,3.92-.65,1.06-1.55,1.63-1.55,2.94s.82,2.7-.33,3.27-2.29.74-3.27,1.06c-.98.33-1.71.41-2.12,1.31-.41.9-1.39,2.21-3.43,2.12-2.04-.08-2.04-1.71-3.92-.16s-1.96,2.45-2.94,2.04c-.98-.41-.24-.98,0-2.53s-3.35-1.14-.08-2.94c3.27-1.8,3.27-2.04,5.47-2.37,2.21-.33,3.43.74,4.33-1.14.9-1.88,0-2.61,1.8-2.7s2.94.74,3.27-1.31c.33-2.04.08-3.76,0-5.06s-.57-2.53.9-3.02,1.63.41,1.8-.74c.16-1.14-.82-3.51.74-2.94Z"/>
          <path class="cls-1" d="m203.15,216.96c1.55.24,2.29,3.02,1.8,4.17s-.98,2.45.41,2.7c1.39.24,2.37.41,2.37,1.39s.57-1.06,1.63,1.55.08,3.02,1.31,4.98c1.23,1.96,2.7,2.94.98,3.92-1.71.98-.41,2.04-2.21,1.47-1.8-.57-1.06-.24-1.96-1.96-.9-1.71-1.47-.33-2.29-.41-.82-.08-1.06-.08-.41-1.23.65-1.14.98-1.06.24-2.37s.41-2.86-.65-3.1c-1.06-.24-1.39,1.55-3.27,2.7s-4.66,1.47-4.57,1.06,1.14-.98,2.86-3.1c1.71-2.12,2.78-.82,2.45-4.08-.33-3.27-1.47-2.37-.41-4.66,1.06-2.29,1.72-3.02,1.72-3.02Z"/>
          <path class="cls-1" d="m197.93,235.5c1.24,1.24,2.86.9,2.37,2.12-.49,1.23-1.95,1.39-1.14,2.61.81,1.23,1.54,3.02,2.61,2.86,1.06-.16.98-.98,3.59-.98s4.25-.57,4.41.49c.16,1.06-1.14,1.14-2.86,2.7s-3.43,3.1-2.04,4.08c1.39.98,1.96,2.78,1.47,3.43s-.98,1.31.16,2.12c1.14.82,6.62.57,5.31,2.53-1.31,1.96-4.49,3.02-7.84,3.1s-.66-.9-7.43-1.55c-6.78-.65-7.92,1.06-12.66-1.23-4.74-2.29-7.84-.33-10.46-4.49s-1.55-2.12-4.82-6.45c-3.27-4.33-1.71-4.33-4.49-6.04-2.78-1.71-5.15-4.17-3.27-4.17s.98-2.21,6.78,2.61c5.8,4.82,4.25,4.57,8.5,7.43,4.25,2.86,5.64,3.19,7.19,2.86,1.55-.33,3.84,0,2.37-1.88s-2.29-4.25-1.06-4.66,1.14,1.63,3.19-.57c2.04-2.21,2.04-2.78,3.84-3.51,1.8-.74.82,0,2.53-1.06,1.72-1.06,2.37-3.76,3.76-2.37Z"/>
          <path class="cls-1" d="m220.39,244.98c.89,1.14,2.37,2.61,3.02,3.84.65,1.23,1.88-1.04,4.25-.97,2.37.07,5.88,1.38,7.35,2.03,1.47.65,4,1.06,5.55,3.19,1.55,2.12,2.7.9,2.78,3.02.08,2.12.41,1.88,1.8,3.1,1.39,1.23,1.63,3.51-.82,2.53-2.45-.98-3.19-4.33-5.8-4-2.61.33-1.55,1.06-3.59,1.47-2.04.41-2.94-.33-5.39-.49-2.45-.16-4.25.65-3.1-1.55s1.96-2.29-2.04-3.92-5.55-.82-5.55-2.53.65-1.88-.9-3.35c-1.55-1.47-2.04-2.53-1.06-3.27.98-.74,2.94.16,3.51.9Z"/>
          <path class="cls-1" d="m225.13,268.5c2.7,1.39,3.76,4.17,5.06,3.68s.82-1.31,1.8-4.25,1.06-5.96,2.29-4.74.08,3.62,2.04,4.38c1.96.77,2.37,1.34,2.78,3.62.41,2.29.82,1.55,2.86,3.92,2.04,2.37,3.88,1.96,4.23,4.66.35,2.7,3.78,5.47,3.94,8.25.16,2.78.65,4.74-1.39,8.25-2.04,3.51-2.86,5.31-3.51,6.78s-2.61,2.21-4.74,2.21-3.35-.9-4.66-.57-2.21,1.96-3.76.82-2.45-2.61-2.94-3.51c-.49-.9-.73-3.92-3.02-3.59s-1.96,1.47-3.35,0c-1.39-1.47-.41-2.7-4.49-3.35-4.08-.65-5.15-.98-6.86-.57-1.71.41-3.51.98-5.39,2.45-1.88,1.47-4.82.73-6.45,1.47-1.63.73-4.08,2.37-5.88,1.39-1.8-.98-1.14-1.47-1.06-3.76.08-2.29-.08-.73-1.23-4.66-1.14-3.92-.65-3.35-1.71-5.23-1.06-1.88-1.88-.98-.41-3.68,1.47-2.7.98-3.27,1.8-4.17.82-.9,1.55.24,4.33-1.63,2.78-1.88,3.59-1.06,6.13-2.04,2.53-.98,3.1-4.74,4.66-5.88,1.55-1.14,1.96-2.04,3.1-2.04s2.45.65,4.49,1.47c2.04.82,1.63.9,3.35-.98,1.71-1.88,0-3.68,3.1-3.35,3.1.33,4.25-.16,4.66,1.63.41,1.8.25,3.02.25,3.02Z"/>
          <path class="cls-1" d="m281.82,307.06c1.63-2.12,2.45-2.37,1.88-4.82-.57-2.45-.41-4.37,1.71-2.19s4.49,3.41,6.13,3.49c1.63.08,5.55,1.31,1.55,4.33-4,3.02-3.27.9-6.45,5.39s-.73,4.57-4.57,6.78c-3.84,2.21-8.09,3.19-7.27,1.23.82-1.96.41-1.96,3.92-4.58s5.8-4.57,5.8-6.78-2.7-2.86-2.7-2.86Z"/>
          <path class="cls-1" d="m86.75,285.01c-1.47-2.12-1.47-2.78-1.63-6.21-.16-3.43-1.31-5.06,0-7.02,1.31-1.96,4.74-5.23,6.04-7.52,1.31-2.29,1.63-7.19,2.45-2.78.82,4.41,3.43,7.02-.49,12.91-3.92,5.88-6.37,10.62-6.37,10.62Z"/>
          <path class="cls-1" d="m8.17,163.45c-.33-.65,1.14-2.78,1.14-2.78,0,0,1.8-.98,1.31-4.57-.49-3.59-.82-1.47-2.12-4.9-1.31-3.43-3.27-2.78-1.31-5.06,1.96-2.29,4.25-5.72,4.74-2.94.49,2.78-.65,4.57.49,5.88,1.14,1.31,3.43,1.58,4.74,3.73,1.31,2.15,6.53,2.97,2.61,5.75-3.92,2.78-5.72.98-7.19,2.94s-4.41,1.96-4.41,1.96Z"/>
          <path class="cls-1" d="m2.94,160.84c2.61-1.47,3.57-1.14,3.42-3.76s1.65-4.9-1.13-5.06c-2.78-.16-3.59,1.47-3.92,2.61-.33,1.14-.33,1.47.49,2.61.82,1.14.98,2.78.65,3.59s.49,0,.49,0Z"/>
          <path class="cls-1" d="m511.97,266.41c-.51,1.2-.79,2.61-.61,5.36.33,4.9.49,4.41-.49,6.86-.98,2.45-4.57,2.77-7.52,4.57-2.94,1.8-3.1.33-5.06,5.23-1.96,4.9-.82,2.29-2.45,6.53-1.63,4.25.66,2.12-4.08,4.57-4.74,2.45-6.53.33-7.02,1.8-.49,1.47,2.78.33-.65,3.43-3.43,3.1-4.9,3.92-7.03,5.23-2.12,1.31-3.43,2.78-2.94,5.56.49,2.77,2.94,2.61.16,5.23-2.69,2.52-3.85.17-4.66,3.84h-12.82v-.42c0-3.92-.49-.98,1.47-7.67,1.96-6.7-1.31-4.42.33-11.76,1.64-7.35,1.31-15.2,2.94-20.59,1.64-5.39,5.23-3.92,1.64-8.82-3.6-4.9-4.25-4.08-7.35-7.35-3.11-3.26-1.15-2.61-2.94-6.53-1.8-3.92-2.94-3.59-4.41-6.53-1.47-2.94-2.29-1.96-.82-6.87,1.47-4.9-1.79-4.74,1.47-6.21,3.27-1.47,2.78-5.06,2.29-6.37-.49-1.3,2.45-1.8-2.12-2.45-4.57-.65-5.88.81-7.51-1.96-1.64-2.77-.33-3.27-3.76-4.9-3.43-1.63-7.19-1.63-8.5-2.94l-1.3-1.31s2.45-.98-3.11-1.63c-5.55-.66-9.64,0-12.41-3.92s-2.12-1.63-2.77-5.23c-.66-3.6-1.47-3.6-4.08-5.88-2.62-2.29-2.62-3.6-5.07-4.57-2.45-.98-2.94-.65-2.94-.16s-.16,2.45,2.12,4.25c2.29,1.8,2.45,3.43,2.45,4.25s-3.11,1.8-3.11,1.8c0,0,0-.98-.98-3.27-.98-2.29-1.31-3.43-3.27-6.21-1.96-2.77-2.45-3.1-2.45-3.1,0,0-2.29-3.59-6.21-8.33-3.92-4.74-5.07-1.8-5.07-7.19s.98-5.39,0-9.15c-.98-3.75-3.26-5.55-1.3-6.21,1.96-.65,3.1-1.63-.49-4.74-3.59-3.11-4.9-1.47-6.21-5.72-1.3-4.25,1.47-3.92-3.92-5.88-5.39-1.96-6.05-3.6-8.5-4.74-2.45-1.15-3.92-1.8-3.92-1.8,0,0,.49-.49-5.39-.98-5.88-.49-5.23-3.26-9.64-1.47-4.14,1.69-4.97,2.08-5.06,2.12.13-.16,2.33-2.93-1.8-2.61-4.25.33-3.26,1.31-3.43,3.27s.49,4.25-2.45,5.39c-2.94,1.14-7.19,4.25-5.56.98,1.64-3.26,5.72-5.55,4.25-6.37-1.47-.81-4.57,1.8-4.9-.81-.33-2.62.33-3.92-3.1-4.08-3.43-.16-6.21-1.63-3.59-2.78,2.61-1.14,5.07-.65,5.88-3.43.81-2.78,6.86-3.43.16-3.27-6.7.16-9.64.16-8.82-1.15.82-1.3.49-3.75,5.23-3.1,4.74.65,4.74-1.31,3.59-2.61-2.55-2.91-6.7-3.11-3.43-4.9,3.27-1.8,5.23-2.94,8.34-3.6,3.1-.65,6.37.66,11.43,1.96,5.07,1.31,13.24.16,16.99,1.31,3.76,1.15,5.55,3.43,6.7,3.27,1.15-.17,4.41-3.6,7.68-3.6s4.9-.49,11.6.33c6.7.81,13.23,1.15,13.39,2.77.16,1.64.16,2.46,2.62,2.46s4.57-1.47,6.05.82c1.47,2.29,3.75,3.92,3.43,2.12s-1.96-3.27-.65-3.92c1.31-.65,5.07-.98,6.05-.65.98.33,4.08.82,5.07.65.98-.16.33-1.8,3.59-.82,3.27.98,3.76,3.43,4.42,3.59.65.17,2.12-2.51,2.29-4.28.16-1.77,1.63-1.77-1.31-4.05s-.29-5.06,1.82-4.08c2.1.98.79,2.29,2.92,4.41,2.12,2.13,2.45,3.92,3.92,3.27,1.47-.65.66-3.43,2.62-1.31s2.45,1.06,4.25.69c1.8-.36.33-1.51,2.45-.36,2.12,1.14,5.72,2.45,3.1,4.57-2.61,2.12-6.53,1.8-9.31,3.43-2.78,1.63-1.96,1.14-2.78,3.1-.81,1.96-.49,2.12-3.75,2.94-3.27.81-4.25.16-4.08,2.94.16,2.77-.17,3.11-1.31,4.57-1.15,1.47-.49,2.78.82,3.43,1.31.65,2.78-.49,2.78,1.47s2.45,3.43,5.72,3.43,4.74.82,6.7,3.27c1.96,2.45-.82,2.61,2.45,5.72,3.27,3.1,6.37,4.57,6.86,1.8.49-2.78,0-3.43.49-6.7.49-3.27,3.6-3.6,1.96-6.54-1.64-2.94-4.08-4.25-1.8-5.88,2.29-1.63-.49-3.14,3.43-3.94,3.92-.8,6.53-1.45,8.17,1.49,1.63,2.94-.16,4.9,1.47,6.21,1.64,1.31,6.7-.65,7.68-1.8.98-1.14,3.76-.98,4.74,3.27.98,4.25,1.63,5.39,3.1,5.88,1.47.49,1.47,1.47,3.27,3.1,1.8,1.63,5.23,4.25,0,4.74-5.23.49-9.48-.16-11.44,1.63-1.96,1.79-2.12.49-.81,2.94,1.3,2.45.33.81,1.3,3.92.98,3.11,5.88,3.11,2.29,5.23-3.59,2.12-2.94,2.61-5.06,1.96-2.12-.66-2.61-5.35-5.07-1.53-2.45,3.82-2.12,5.28-4.25,6.43-2.12,1.15-2.29-1.15-4.25,2.45-1.96,3.6,1.15,3.92-3.26,8-4.42,4.09-6.54,2.12-6.86,5.56-.33,3.43,1.8,7.52.65,8.33-1.14.82-.98.65-2.29-1.63-1.3-2.29-.65-3.59-5.22-3.92-4.58-.33-4.25-1.47-6.05.49-1.8,1.96.65,2.61-4.42,1.96-5.06-.66-5.71-6.7-6.7.33-.98,7.02-1.14,7.84.49,9.8,1.64,1.96,6.05,6.7,8.01,4.57,1.96-2.12-.49-4.74,3.27-3.92,3.76.81,4.74-.16,4.08,1.96-.65,2.12-5.72,2.45-1.64,4.41,4.08,1.96,7.52-.33,7.84,2.77.33,3.11-.49,3.92-.33,5.72.16,1.8.98,3.11,4.74,3.11s3.6-1.47,4.58.49c.98,1.96,4.08.98,5.39-1.8,1.31-2.77,2.29-5.88,4.25-2.61s2.29,3.92,4.25,2.61l1.96-1.3s2.13-1.96,3.92-.33c1.8,1.63,4.74-.16,5.39,2.12.65,2.29-.33,2.62,2.45,3.43,2.78.82,6.05-.49,7.68,1.8,1.64,2.29-2.77.82,1.96,3.6,4.74,2.77,6.21,3.1,5.88,4.9-.33,1.8.98,2.12,5.23,3.11,4.25.98,3.59.49,7.02,3.1.97.74,1.89,1.18,2.73,1.46v15.07h0Z"/>
        </g>
        <g>
          <path class="cls-4" d="m45.38,82.27v-.03c-.03-.54-.16-1.05-.35-1.49-.19-.48-.44-.86-.83-1.21-.03-.1-.16-.19-.25-.29-.44-.41-.95-.73-1.56-.95-.1-.03-.19-.06-.29-.06-.16-.1-.35-.13-.51-.16-.35-.06-.73-.1-1.08-.1-.67,0-1.3.1-1.9.32s-1.11.54-1.56.95c-.48.38-.83.89-1.11,1.49-.25.6-.38,1.3-.38,2.06v6.86c0,.7.1,1.33.32,1.84,0,.06.03.13.06.19.29.6.63,1.11,1.11,1.52.44.41.95.73,1.56.95.6.19,1.24.32,1.9.32s1.27-.13,1.87-.32c.6-.22,1.11-.54,1.56-.95.48-.41.83-.92,1.08-1.52.25-.57.41-1.27.41-2.03v-6.86c0-.19,0-.35-.06-.54Zm-2.92,7.36c0,.67-.16,1.21-.51,1.59-.38.41-.86.6-1.43.6-.6,0-1.08-.19-1.46-.6-.35-.38-.54-.92-.54-1.59v-6.76c0-.63.16-1.14.48-1.52,0-.03.03-.06.06-.1.06-.06.1-.1.16-.13.03-.06.1-.1.16-.13.32-.25.7-.35,1.14-.35.57,0,1.05.19,1.43.6.35.38.51.92.51,1.62v6.76Z"/>
          <path class="cls-4" d="m52.9,78.11l-3.3,2.89v3.17l3.3-2.86v13.01h2.95v-16.22h-2.95Z"/>
          <path class="cls-4" d="m61.34,78.11v5.24h2.82v-2.57h4.28l-5.27,13.55h3.21l5.27-13.55v-2.67s-10.31,0-10.31,0Z"/>
          <path class="cls-4" d="m83.84,80.74c-.25-.6-.6-1.11-1.08-1.49-.44-.41-.95-.73-1.56-.95-.6-.22-1.24-.32-1.87-.32-.67,0-1.3.1-1.9.32-.6.22-1.11.54-1.56.95-.48.38-.83.89-1.08,1.49-.29.6-.41,1.3-.41,2.06v6.86c0,.76.13,1.46.41,2.03.25.6.6,1.11,1.08,1.52.44.41.95.73,1.56.95.6.19,1.24.32,1.9.32s1.27-.13,1.87-.32c.6-.22,1.11-.54,1.56-.95.48-.41.83-.92,1.08-1.52.29-.57.41-1.27.41-2.03v-6.86c0-.76-.13-1.46-.41-2.06Zm-2.57,8.89c0,.67-.16,1.21-.51,1.59-.38.41-.86.6-1.43.6-.6,0-1.08-.19-1.43-.6-.38-.38-.57-.92-.57-1.59v-6.76c0-.7.19-1.24.57-1.62.35-.41.83-.6,1.43-.6.57,0,1.05.19,1.43.6.35.38.51.92.51,1.62v6.76Z"/>
          <path class="cls-4" d="m108.7,87.41c-.25-.6-.57-1.11-.98-1.52-.38-.41-.86-.73-1.36-.95-.51-.22-1.02-.32-1.59-.32-.19,0-.38,0-.6.03-.19.03-.38.1-.6.16l3.4-6.7h-3.24l-3.43,7.01c-.35.76-.67,1.49-.95,2.19-.29.7-.41,1.4-.41,2.16s.13,1.52.38,2.13c.25.64.63,1.14,1.08,1.59.44.41.98.73,1.62.95.6.22,1.27.35,1.97.35s1.4-.13,2-.35c.63-.22,1.14-.57,1.62-.98.44-.44.79-.98,1.05-1.59.29-.63.41-1.33.41-2.16,0-.73-.13-1.4-.35-2Zm-3.21,3.78c-.41.41-.92.63-1.52.63s-1.11-.22-1.49-.63c-.38-.41-.6-.98-.6-1.75s.22-1.33.6-1.75c.38-.41.89-.63,1.49-.63.63,0,1.14.22,1.52.67.38.41.57.98.57,1.71s-.19,1.33-.57,1.75Z"/>
          <path class="cls-4" d="m121.9,87.44v-.03c-.03-.25-.06-.54-.13-.79-.16-.73-.57-1.43-1.21-2.06-.35-.35-.76-.6-1.27-.79-.48-.22-1.08-.32-1.78-.32-.54,0-1.02.1-1.46.25-.44.16-.76.35-.95.57v-3.49h6.54v-2.67h-9.24v9.17h2.7c.13-.32.32-.64.6-.89.32-.29.76-.44,1.36-.44.73,0,1.24.25,1.52.76.29.48.41,1.08.44,1.94v.22c0,.51-.03.98-.1,1.4-.1.41-.25.76-.54,1.02-.35.35-.79.54-1.4.54-.63,0-1.08-.19-1.4-.54-.32-.35-.51-.83-.6-1.46h-2.95v.1c.06.54.16,1.11.32,1.65.16.57.51,1.11,1.02,1.62.35.35.83.64,1.43.92.6.25,1.33.38,2.19.38s1.56-.13,2.16-.38c.57-.29,1.05-.57,1.43-.95.57-.6.95-1.24,1.14-1.9.19-.67.29-1.46.29-2.38,0-.48-.03-.95-.13-1.43Z"/>
          <path class="cls-4" d="m124.85,78.11v5.24h2.82v-2.57h4.28l-2.82,7.24-2.44,6.32h3.21l3.14-8.09v-.03h.03l2.09-5.43v-2.67h-10.32Z"/>
          <path class="cls-4" d="m147.8,81.73c-.06-.32-.13-.6-.25-.89-.25-.6-.63-1.14-1.08-1.56-.44-.41-.98-.76-1.62-.98-.6-.19-1.27-.32-1.97-.32s-1.4.13-2,.35c-.63.22-1.14.54-1.62.98-.35.35-.63.73-.86,1.21-.1.13-.16.25-.22.38-.25.63-.38,1.36-.38,2.13v.03c0,.76.13,1.43.38,2,.22.6.54,1.11.95,1.52.38.41.86.7,1.36.92.51.22,1.05.35,1.59.35.19,0,.41-.03.6-.06.22-.03.41-.06.6-.16l-3.36,6.7h3.21l3.46-7.01s.03-.06.03-.1c.22-.48.44-.92.63-1.36.1-.25.16-.48.25-.7.22-.57.35-1.14.38-1.75.03-.13.03-.29.03-.41,0-.44-.03-.86-.13-1.27Zm-3.43,3.05c-.41.41-.89.6-1.49.6-.67,0-1.17-.19-1.56-.63-.25-.29-.41-.67-.48-1.11h-.03c0-.19-.03-.38-.03-.6,0-.57.1-1.02.32-1.4.06-.16.16-.25.25-.38.41-.41.89-.6,1.52-.6s1.08.19,1.49.6c.35.38.57.92.6,1.62v.35c-.03.7-.25,1.17-.6,1.56Z"/>
          <path class="cls-4" d="m166.94,78.11l-1.87,1.62h-.03l-1.4,1.27v3.17l3.3-2.86v13.01h2.98v-16.22h-2.98Z"/>
          <path class="cls-4" d="m175.38,78.11v5.24h2.82v-2.57h4.28l-.06.13-5.21,13.43h3.21l5.27-13.55v-2.67s-10.32,0-10.32,0Z"/>
          <path class="cls-4" d="m192.84,78.11l-.32.29-2.09,1.81-.89.79v3.17l3.3-2.86v13.01h2.95v-16.22h-2.95Z"/>
          <path class="cls-4" d="m210.99,80.84c-.25-.6-.6-1.14-1.05-1.56-.48-.41-1.02-.76-1.62-.98-.6-.19-1.27-.32-2-.32s-1.37.13-2,.35c-.6.22-1.14.54-1.59.98-.48.44-.83.95-1.08,1.59s-.38,1.36-.38,2.13.13,1.46.35,2.03c.25.6.57,1.11.98,1.52.16.16.32.32.48.41.25.22.57.38.89.51.51.22,1.05.35,1.59.35.19,0,.38-.03.6-.06.19-.03.41-.06.6-.16l-3.36,6.7h3.21l2.29-4.67,1.14-2.35c.38-.73.7-1.46.95-2.16.25-.7.41-1.43.41-2.16,0-.79-.13-1.52-.41-2.16Zm-6.16.41c.38-.41.89-.6,1.49-.6s1.11.19,1.52.6c.38.41.57,1.02.57,1.78s-.19,1.33-.57,1.75c-.41.41-.92.6-1.52.6-.63,0-1.14-.19-1.52-.63-.38-.41-.57-.98-.57-1.71s.19-1.36.6-1.78Z"/>
        </g>
        <g>
          <path class="cls-4" d="m37.15,230.77c-.66-1.43-1.43-2.53-2.53-3.52-1.1-.99-2.31-1.76-3.74-2.2-1.43-.55-2.86-.77-4.4-.77-1.65,0-3.08.22-4.51.77-1.43.44-2.64,1.21-3.74,2.2-1.1.99-1.98,2.09-2.64,3.52-.55,1.43-.88,3.08-.88,4.95v16.17c0,1.87.33,3.52.88,4.95.66,1.43,1.54,2.64,2.64,3.52,1.1.99,2.31,1.76,3.74,2.31,1.43.44,2.86.66,4.51.66,1.54,0,2.97-.22,4.4-.66,1.43-.55,2.64-1.32,3.74-2.31,1.1-.88,1.87-2.09,2.53-3.52.66-1.43.99-3.08.99-4.95v-16.17c0-1.87-.33-3.52-.99-4.95Zm-6.05,21.13c0,1.54-.44,2.86-1.32,3.74-.77.99-1.98,1.43-3.3,1.43-1.43,0-2.64-.44-3.41-1.43-.88-.88-1.32-2.2-1.32-3.74v-16.07c0-1.65.44-2.97,1.32-3.85.77-.99,1.98-1.43,3.41-1.43,1.32,0,2.53.44,3.3,1.43.88.88,1.32,2.2,1.32,3.85v16.07Z"/>
          <path class="cls-4" d="m68.51,244.74c-.33-1.76-1.32-3.41-2.86-4.95-.77-.77-1.76-1.43-2.97-1.87-1.21-.44-2.53-.66-4.18-.66-1.32,0-2.42.11-3.52.55-.99.44-1.76.88-2.31,1.32v-8.25h15.62v-6.27h-22.01v21.68h6.49c.22-.77.66-1.43,1.43-2.09.66-.66,1.76-.99,3.19-.99,1.76,0,2.97.55,3.63,1.76.77,1.21,1.1,2.86,1.1,5.17,0,1.21-.11,2.31-.33,3.3-.22.99-.55,1.76-1.21,2.42-.77.77-1.98,1.21-3.3,1.21-1.54,0-2.64-.44-3.41-1.21-.66-.88-1.21-2.09-1.32-3.52h-7.04c.11,1.32.33,2.75.77,4.07.33,1.43,1.21,2.75,2.31,3.85.88.88,1.98,1.54,3.41,2.2,1.54.66,3.19.88,5.28.88,1.98,0,3.63-.22,5.06-.88,1.43-.66,2.53-1.32,3.41-2.2,1.43-1.43,2.31-2.97,2.75-4.51.44-1.65.66-3.52.66-5.61,0-1.87-.22-3.63-.66-5.39Z"/>
          <path class="cls-4" d="m88.54,220.53l-15.4,46.54h6.6l15.4-46.54h-6.6Z"/>
          <path class="cls-4" d="m109.67,224.61l-7.81,6.82v7.48l7.81-6.82v30.92h7.04v-38.4h-7.04Z"/>
          <path class="cls-4" d="m140.36,224.61l-7.81,6.82v7.48l7.81-6.82v30.92h7.04v-38.4h-7.04Z"/>
          <path class="cls-4" d="m160.94,244.3v6.6h16.62v-6.6h-16.62Z"/>
          <path class="cls-4" d="m207.48,230.77c-.55-1.43-1.43-2.53-2.53-3.52-.99-.99-2.31-1.76-3.74-2.2-1.43-.55-2.86-.77-4.4-.77-1.65,0-3.08.22-4.51.77-1.43.44-2.64,1.21-3.74,2.2-1.1.99-1.98,2.09-2.53,3.52-.66,1.43-.99,3.08-.99,4.95v16.17c0,1.87.33,3.52.99,4.95.55,1.43,1.43,2.64,2.53,3.52,1.1.99,2.31,1.76,3.74,2.31,1.43.44,2.86.66,4.51.66,1.54,0,2.97-.22,4.4-.66,1.43-.55,2.75-1.32,3.74-2.31,1.1-.88,1.98-2.09,2.53-3.52.66-1.43.99-3.08.99-4.95v-16.17c0-1.87-.33-3.52-.99-4.95Zm-6.05,21.13c0,1.54-.44,2.86-1.32,3.74-.77.99-1.87,1.43-3.3,1.43s-2.53-.44-3.41-1.43c-.88-.88-1.32-2.2-1.32-3.74v-16.07c0-1.65.44-2.97,1.32-3.85.88-.99,1.98-1.43,3.41-1.43s2.53.44,3.3,1.43c.88.88,1.32,2.2,1.32,3.85v16.07Z"/>
          <path class="cls-4" d="m238.18,230.77c-.55-1.43-1.43-2.53-2.53-3.52-.99-.99-2.31-1.76-3.74-2.2-1.43-.55-2.86-.77-4.4-.77-1.65,0-3.08.22-4.51.77-.11,0-.22.11-.33.11-1.32.44-2.42,1.21-3.41,2.09-1.1.99-1.87,2.09-2.53,3.52-.66,1.43-.99,3.08-.99,4.95v16.17c0,1.87.33,3.52.99,4.95.11.11.11.33.22.44.66,1.21,1.32,2.31,2.31,3.08,1.1.99,2.31,1.76,3.74,2.31,1.43.44,2.86.66,4.51.66,1.54,0,2.97-.22,4.4-.66,1.43-.55,2.75-1.32,3.74-2.31,1.1-.88,1.98-2.09,2.53-3.52.66-1.43.99-3.08.99-4.95v-16.17c0-1.87-.33-3.52-.99-4.95Zm-6.05,21.13c0,1.54-.44,2.86-1.21,3.74-.88.99-1.98,1.43-3.41,1.43s-2.53-.44-3.41-1.43c-.88-.88-1.32-2.2-1.32-3.74v-16.07c0-1.65.44-2.97,1.32-3.85.88-.99,1.98-1.43,3.41-1.43s2.53.44,3.41,1.43c.77.88,1.21,2.2,1.21,3.85v16.07Z"/>
        </g>
        <g>
          <path class="cls-4" d="m33.24,102.52v3.58h5.38v16.91h3.92v-16.91h5.38v-3.58h-14.67Z"/>
          <path class="cls-4" d="m66.17,110.14c0-.78-.11-1.46-.22-2.13-.11-.67-.34-1.34-.56-1.9-.11-.11-.11-.22-.22-.34-.22-.34-.56-.78-1.01-1.23-.22-.22-.45-.45-.67-.56-.45-.45-1.01-.78-1.68-1.01-.45-.22-1.01-.34-1.57-.45-.45-.11-.9-.11-1.46-.11-1.23,0-2.24.22-3.14.56-.9.34-1.68.9-2.35,1.57-.56.56-.9,1.12-1.23,1.57-.22.56-.45,1.23-.56,1.9s-.22,1.34-.22,2.13c-.11.78-.11,1.68-.11,2.69,0,.9,0,1.79.11,2.58,0,.34,0,.67.11.9,0,.45,0,.9.11,1.23.11.67.34,1.34.56,1.9.34.56.67,1.01,1.23,1.57.67.67,1.46,1.23,2.35,1.57.78.45,1.68.56,2.8.56h.34c1.12,0,2.13-.11,3.02-.56.9-.34,1.68-.9,2.35-1.57.56-.56.9-1.01,1.23-1.57.22-.56.45-1.23.56-1.9.11-.56.22-1.34.22-2.13v-.56c.11-.56.11-1.34.11-2.02,0-1.01,0-1.91-.11-2.69Zm-4.14,6.61c0,.45-.11.78-.22,1.01-.22.34-.34.56-.56.67-.22.34-.56.67-1.01.9-.22.11-.56.22-.9.11-.11.11-.34.11-.56.11-.56,0-1.12,0-1.57-.22-.34-.22-.78-.56-1.12-.9-.11-.11-.34-.34-.45-.67-.11-.22-.22-.56-.22-1.01-.11-.34-.22-.9-.22-1.57v-4.82c0-.67.11-1.12.22-1.57,0-.45.11-.78.22-1.01.11-.34.34-.56.45-.78.34-.34.78-.56,1.12-.78.45-.11,1.01-.22,1.57-.22.45,0,1.01.11,1.46.22.45.22.78.45,1.01.78.22.22.34.45.56.78.11.22.22.56.22,1.01.11.45.11.9.22,1.57v4.82c-.11.56-.11,1.01-.22,1.34v.22Z"/>
          <path class="cls-4" d="m85.21,106.44c-.34-.78-.67-1.46-1.34-2.02-.56-.56-1.23-1.01-2.02-1.35-.9-.34-1.79-.56-2.91-.56h-7.84v20.5h3.92v-7.73h3.92c1.12,0,2.02-.11,2.91-.45.78-.34,1.46-.78,2.02-1.46.67-.56,1.01-1.23,1.34-2.02.34-.78.45-1.57.45-2.46,0-.78-.11-1.68-.45-2.46Zm-4.26,4.48c-.34.34-.67.56-1.12.56-.34.22-.67.22-1.12.22h-3.7v-5.6h3.7c1.01,0,1.68.34,2.24.78.45.56.78,1.23.78,2.02,0,.9-.34,1.57-.78,2.02Z"/>
          <path class="cls-4" d="m103.24,106.1v-3.58h-13.44v20.5h13.44v-3.58h-9.52v-4.93h8.06v-3.58h-8.06v-4.82h9.52Z"/>
          <path class="cls-4" d="m117.02,118.76c-.56.56-1.34.78-2.35.78-.56,0-1.01,0-1.46-.22-.45-.22-.78-.45-1.12-.78-.11-.22-.34-.45-.45-.67-.11-.34-.22-.67-.34-1.12,0-.34-.11-.9-.11-1.57-.11-.67-.11-1.46-.11-2.35,0-1.01,0-1.79.11-2.46,0-.67.11-1.12.11-1.57.11-.45.22-.78.34-1.01.11-.34.34-.56.45-.78.34-.34.67-.56,1.12-.78.45-.11.9-.22,1.46-.22,1.01,0,1.79.22,2.24.78.56.56,1.01,1.23,1.12,2.13h4.14c-.45-2.24-1.23-3.81-2.58-4.93-1.34-1.01-3.02-1.57-4.93-1.57-1.23,0-2.24.22-3.14.56-.78.34-1.68.9-2.35,1.57-.45.56-.9,1.12-1.12,1.57-.34.56-.56,1.23-.67,1.9s-.22,1.34-.22,2.13v5.26c0,.78.11,1.57.22,2.13.11.67.34,1.34.67,1.9.22.56.67,1.01,1.12,1.57.67.67,1.57,1.23,2.35,1.57.9.45,1.9.56,3.14.56,1.9,0,3.58-.56,4.93-1.57,1.34-1.12,2.13-2.69,2.58-4.82h-4.03c-.23.79-.67,1.46-1.12,2.02Z"/>
          <path class="cls-4" d="m140.43,108.01c-.11-.67-.34-1.34-.67-1.9-.22-.45-.67-1.01-1.12-1.57-.67-.67-1.46-1.23-2.35-1.57-.9-.34-1.9-.56-3.14-.56s-2.24.22-3.14.56-1.68.9-2.35,1.57c-.45.56-.9,1.12-1.12,1.57-.34.56-.56,1.23-.67,1.9s-.22,1.34-.22,2.13v5.26c0,.78.11,1.57.22,2.13.11.67.34,1.34.67,1.9.22.56.67,1.01,1.12,1.57.67.67,1.46,1.23,2.35,1.57.9.45,1.9.56,3.14.56s2.24-.11,3.14-.56c.9-.34,1.68-.9,2.35-1.57.45-.56.9-1.01,1.12-1.57.34-.56.56-1.23.67-1.9.11-.56.22-1.34.22-2.13v-5.26c0-.78-.11-1.46-.22-2.13Zm-3.81,7.17c0,.67-.11,1.23-.11,1.57-.11.45-.22.78-.34,1.01-.11.34-.22.56-.45.67-.34.34-.67.67-1.12.9-.45.22-.9.22-1.46.22s-1.01,0-1.46-.22c-.45-.22-.78-.56-1.12-.9-.22-.11-.34-.34-.45-.67-.11-.22-.22-.56-.34-1.01-.11-.34-.11-.9-.11-1.57-.11-.67-.11-1.46-.11-2.35,0-1.01,0-1.79.11-2.46,0-.67,0-1.12.11-1.57.11-.45.22-.78.34-1.01.11-.34.22-.56.45-.78.34-.34.67-.56,1.12-.78.45-.11.9-.22,1.46-.22s1.01.11,1.46.22c.45.22.78.45,1.12.78.22.22.34.45.45.78.11.22.22.56.34,1.01,0,.45.11.9.11,1.57.11.67.11,1.45.11,2.46,0,.89,0,1.68-.11,2.35Z"/>
          <path class="cls-4" d="m157.12,102.52v12.54l-8.06-12.54h-3.58v20.5h4.03v-12.54l8.06,12.54h3.58v-20.5h-4.03Z"/>
          <path class="cls-4" d="m188.48,115.18c-.22-.56-.56-1.12-1.01-1.57-.22-.22-.45-.45-.67-.56-.22-.11-.45-.34-.9-.56,1.68-.9,2.58-2.35,2.58-4.26,0-.9-.22-1.68-.45-2.35-.34-.67-.78-1.23-1.34-1.79-.45-.45-1.12-.9-1.9-1.12-.78-.22-1.68-.45-2.69-.45h-8.18v20.5h8.51c1.01,0,1.9-.22,2.69-.45.67-.34,1.34-.67,1.9-1.23.56-.45,1.01-1.12,1.23-1.79.34-.67.45-1.57.45-2.47,0-.67-.12-1.34-.23-1.9Zm-10.53-9.07h3.92c.78,0,1.46.22,1.9.67s.67,1.01.67,1.68c0,.78-.22,1.35-.67,1.79-.45.34-1.12.56-1.9.56h-3.92v-4.71Zm6.05,12.66c-.45.45-1.12.67-1.9.67h-4.14v-5.04h4.14c.78,0,1.46.22,1.9.67.45.45.78,1.01.78,1.79s-.34,1.46-.78,1.91Z"/>
          <path class="cls-4" d="m201.81,102.52h-3.14l-7.39,20.5h4.14l1.23-3.7h7.28l1.23,3.7h4.14l-7.5-20.5Zm-4.03,13.44l2.58-7.39,2.46,7.39h-5.04Z"/>
          <path class="cls-4" d="m224.1,102.52v12.54l-8.06-12.54h-3.47v20.5h3.92v-12.54l8.06,12.54h3.58v-20.5h-4.03Z"/>
          <path class="cls-4" d="m242.91,110.7l6.72-8.18h-4.82l-7.28,8.96v-8.96h-3.92v20.5h3.92v-6.16l2.69-3.14,5.26,9.3h4.59l-7.17-12.32Z"/>
        </g>
        <g>
          <path class="cls-13" d="m187.23,134.38v53.62c0,2.16-1.77,3.92-3.92,3.92h-66.05c-2.16,0-3.92-1.77-3.92-3.92v-53.62c0-2.16,1.76-3.92,3.92-3.92h66.05c2.16,0,3.92,1.77,3.92,3.92Z"/>
          <path class="cls-2" d="m172.74,143.42l11.46-11.46h-3.74l-12.53,12.53-1.53,1.53-4.74,4.81-1.53,1.53h-17.11l-7.87-7.87-2.52-2.6-9.93-9.93h-3.67l9.86,9.93,1.53,1.53h-15.74v2.6h18.41l4.89,4.97,1.3,1.38v3.06h-24.6v2.6h24.6v9.4h-24.6v2.6h24.6v3.06h.08l-4.74,4.81-1.53,1.53h-18.41v2.6h15.82l-9.93,9.93h3.67l9.93-9.93,8.94-8.94h17.04l18.8,18.87h3.74l-9.93-9.93h14.52v-2.6h-17.12l-6.34-6.34h.15v-3.06h23.3v-2.6h-23.3v-9.4h23.3v-2.6h-23.3v-3.06h-.15l6.34-6.34h17.11v-2.6h-14.52Zm-11.46,27.04h-19.41v-15.51h19.41s0,15.51,0,15.51Z"/>
          <g>
            <path class="cls-9" d="m141.72,150.84l1.53,1.53h.08l1.07,1.07h11.84l2.6-2.6h-17.11Zm0,0l1.53,1.53h.08l1.07,1.07h11.84l2.6-2.6h-17.11Zm0,0l1.53,1.53h.08l1.07,1.07h11.84l2.6-2.6h-17.11Zm0,0l1.53,1.53h.08l1.07,1.07h11.84l2.6-2.6h-17.11Zm0,0l1.53,1.53h.08l1.07,1.07h11.84l2.6-2.6h-17.11Zm0,0l1.53,1.53h.08l1.07,1.07h11.84l2.6-2.6h-17.11Zm-3.74,0v20.71h24.68v-20.71h-24.68Zm22,18.11h-19.41v-15.51h19.41v15.51Zm-18.26-18.11l1.53,1.53h.08l1.07,1.07h11.84l2.6-2.6h-17.11Zm15.97,19.64l-1.53-1.53h-11.77l-1.53,1.53h-.08l-.99,1.07h17.04l-1.15-1.07Zm-15.97-19.64l1.53,1.53h.08l1.07,1.07h11.84l2.6-2.6h-17.11Zm0,0l1.53,1.53h.08l1.07,1.07h11.84l2.6-2.6h-17.11Zm0,0l1.53,1.53h.08l1.07,1.07h11.84l2.6-2.6h-17.11Zm0,0l1.53,1.53h.08l1.07,1.07h11.84l2.6-2.6h-17.11Z"/>
            <g>
              <g>
                <polygon class="cls-9" points="132.83 141.9 135.45 144.52 113.33 144.52 113.33 141.9 132.83 141.9"/>
                <polygon class="cls-9" points="187.23 141.9 187.23 144.52 165.11 144.52 167.72 141.9 187.23 141.9"/>
              </g>
              <g>
                <rect class="cls-9" x="113.33" y="153.89" width="27.22" height="2.62"/>
                <rect class="cls-9" x="160.01" y="153.89" width="27.22" height="2.62"/>
              </g>
              <g>
                <rect class="cls-9" x="113.33" y="165.88" width="27.22" height="2.62"/>
                <rect class="cls-9" x="160.01" y="165.88" width="27.22" height="2.62"/>
              </g>
              <g>
                <polygon class="cls-9" points="135.45 177.87 132.84 180.48 113.33 180.48 113.33 177.87 135.45 177.87"/>
                <polygon class="cls-9" points="187.23 177.87 187.23 180.48 167.72 180.48 165.1 177.87 187.23 177.87"/>
              </g>
            </g>
            <g>
              <polygon class="cls-9" points="144.36 168.96 121.39 191.93 117.7 191.93 140.67 168.96 144.36 168.96"/>
              <polygon class="cls-9" points="182.86 130.46 159.89 153.43 156.2 153.43 179.17 130.46 182.86 130.46"/>
            </g>
            <g>
              <polygon class="cls-9" points="144.36 153.43 140.66 153.43 117.69 130.46 121.39 130.46 144.36 153.43"/>
              <polygon class="cls-9" points="182.86 191.93 179.16 191.93 158.81 171.57 157.72 170.49 156.19 168.96 159.89 168.96 161.31 170.38 162.51 171.57 163.93 173 168.8 177.87 170.33 179.4 171.42 180.48 172.94 182.01 182.86 191.93"/>
            </g>
          </g>
        </g>
        <g>
          <path class="cls-15" d="m104.12,130.65H38.07c-2.16,0-3.92,1.76-3.92,3.9v53.31c0,2.15,1.77,3.9,3.92,3.9h66.05c2.16,0,3.92-1.76,3.92-3.9v-53.31c0-2.14-1.77-3.9-3.92-3.9Z"/>
          <path class="cls-17" d="m108.04,154.73v33.13c0,2.15-1.77,3.9-3.93,3.9h-45.75l-24.22-24.08v-33.14c0-2.14,1.77-3.9,3.93-3.9h45.75l24.22,24.08Z"/>
          <path class="cls-7" d="m104.11,130.65h-2.29l-61.58,61.11h63.87c2.16,0,3.93-1.75,3.93-3.9v-53.31c0-2.14-1.77-3.9-3.93-3.9Z"/>
        </g>
        <path class="cls-5" d="m512,16.27v292.03c0,9.02-7.33,16.35-16.27,16.35h-239.69V0h239.69C504.67,0,512,7.34,512,16.27Z"/>
        <text class="cls-18" transform="translate(35.72 69.9)"><tspan x="0" y="0">NAE</tspan><tspan class="cls-21" x="75.42" y="0">B</tspan><tspan x="99.54" y="0">A</tspan><tspan class="cls-20" x="125.42" y="0">L</tspan><tspan class="cls-10" x="144.05" y="0">O</tspan><tspan class="cls-12" x="173.2" y="0">V</tspan><tspan class="cls-16" x="198.19" y="0">O</tspan></text>
      </g>
      <g>
        <path class="cls-3" d="m421.89,38.89c0-8.19,3.38-15.58,8.81-20.88-5.26-5.13-12.44-8.3-20.37-8.3-16.11,0-29.17,13.06-29.17,29.17s13.06,29.17,29.17,29.17c7.93,0,15.11-3.17,20.37-8.3-5.43-5.3-8.81-12.69-8.81-20.88Z"/>
        <path class="cls-11" d="m451.07,9.72c-7.93,0-15.11,3.17-20.37,8.3,5.43,5.3,8.81,12.69,8.81,20.88s-3.38,15.58-8.81,20.88c5.26,5.13,12.44,8.3,20.37,8.3,16.11,0,29.17-13.06,29.17-29.17,0-16.11-13.06-29.17-29.17-29.17Z"/>
        <path class="cls-8" d="m439.5,38.89c0-8.19-3.38-15.58-8.81-20.88-5.43,5.3-8.81,12.69-8.81,20.88s3.38,15.58,8.81,20.88c5.43-5.3,8.81-12.69,8.81-20.88Z"/>
        <g>
          <path class="cls-11" d="m439.5,38.89c0-.62-.03-1.23-.06-1.83l-13.31-13.31c-.97,1.6-1.8,3.3-2.46,5.09l15.34,15.34c.32-1.72.49-3.48.49-5.29Z"/>
          <path class="cls-11" d="m422.19,34.76c-.19,1.35-.3,2.73-.3,4.13,0,1.12.07,2.22.19,3.31l12.65,12.65c1.02-1.55,1.89-3.2,2.6-4.94l-15.15-15.15Z"/>
        </g>
      </g>
    </g>
  </g>
</svg>