<?xml version="1.0" encoding="UTF-8"?>
<svg id="_Слой_2" data-name="Слой 2" xmlns="http://www.w3.org/2000/svg" width="512" height="324.65" viewBox="0 0 512 324.65">
  <defs>
    <style>
      .cls-1 {
        fill: #ff8d40;
      }

      .cls-2 {
        letter-spacing: -.01em;
      }

      .cls-3, .cls-4, .cls-5 {
        fill: #fff;
      }

      .cls-6 {
        fill: #cececf;
      }

      .cls-7, .cls-8 {
        opacity: .1;
      }

      .cls-7, .cls-9 {
        fill: #040000;
      }

      .cls-7, .cls-9, .cls-5 {
        isolation: isolate;
      }

      .cls-10 {
        fill: #717070;
      }

      .cls-11 {
        letter-spacing: 0em;
      }

      .cls-12 {
        letter-spacing: 0em;
      }

      .cls-4 {
        font-family: MyriadPro-BoldIt, 'Myriad Pro';
        font-size: 32.44px;
        font-style: italic;
        font-weight: 700;
      }

      .cls-13 {
        fill: #ffd54f;
      }

      .cls-14 {
        fill: #1e69a0;
      }

      .cls-15 {
        fill: #ecedf7;
      }

      .cls-9, .cls-5 {
        opacity: .2;
      }

      .cls-16 {
        letter-spacing: -.04em;
      }
    </style>
  </defs>
  <g id="design-3">
    <g>
      <g>
        <polygon class="cls-14" points="218.9 62.47 161.72 119.65 218.9 119.65 218.9 62.47"/>
        <polygon class="cls-14" points="429.35 62.47 429.35 119.65 486.52 119.65 429.35 62.47"/>
        <polygon class="cls-14" points="399.04 144.65 249.2 144.65 314.2 324.65 334.04 324.65 399.04 144.65"/>
        <path class="cls-14" d="m121.37,139.39c-.11-.16-.23-.32-.33-.49-.11-.16-.21-.33-.3-.5-.1-.17-.19-.34-.28-.51-.09-.18-.18-.36-.26-.53-.08-.17-.16-.35-.23-.53-.08-.19-.14-.39-.21-.58-.06-.17-.12-.34-.18-.52-.07-.22-.12-.45-.17-.67-.04-.15-.08-.3-.11-.46-.08-.38-.14-.77-.18-1.15,0-.05,0-.11,0-.16-.03-.35-.05-.69-.05-1.04,0-.03,0-.06,0-.09,0-.11.01-.21.02-.31,0-.26.02-.52.04-.78.01-.17.04-.34.06-.51.03-.22.06-.43.1-.64.03-.19.07-.37.11-.55.04-.19.09-.39.15-.58.05-.19.1-.37.17-.55.06-.19.13-.37.2-.56.07-.17.13-.35.21-.52.09-.2.18-.39.28-.58.08-.15.15-.31.23-.46.12-.21.25-.42.38-.63.08-.12.14-.24.22-.36.16-.24.34-.47.52-.69.06-.08.12-.16.18-.24.25-.3.51-.59.79-.87L222.56,23.46s.01,0,.02-.01c.28-.28.58-.55.89-.81.08-.06.16-.12.24-.18.24-.19.49-.38.74-.55.07-.05.15-.09.22-.13.27-.17.55-.34.83-.5.05-.03.11-.05.16-.08.31-.16.62-.31.95-.45.04-.01.07-.03.11-.04.34-.14.69-.26,1.04-.37.04-.01.08-.02.13-.03.35-.1.7-.19,1.06-.27.1-.02.21-.03.32-.05.3-.05.59-.1.9-.13.41-.04.83-.06,1.25-.06h185.45c.42,0,.83.02,1.25.06.3.03.6.08.9.13.11.02.21.03.32.05.36.07.71.16,1.06.27.04.01.08.02.13.03.35.11.7.23,1.04.37.04.01.07.03.11.04.32.13.64.29.95.45.05.03.11.05.16.08.28.15.56.32.83.5.07.05.15.09.22.14.26.17.5.36.74.55.08.06.17.12.24.18.31.25.61.52.89.81,0,0,.01,0,.02.01l86.32,86.32V15.19c0-8.38-7.38-15.19-16.36-15.19H16.36C7.38,0,0,6.82,0,15.19v294.19c0,8.38,7.38,15.26,16.36,15.26h243.94L121.54,139.65c-.06-.08-.11-.17-.17-.25Z"/>
        <path class="cls-14" d="m495.64,324.65c8.98,0,16.36-6.89,16.36-15.26v-150.14l-124.05,165.4h107.69Z"/>
        <polygon class="cls-14" points="156.54 144.65 283.98 314.57 222.62 144.65 156.54 144.65"/>
        <polygon class="cls-14" points="243.9 44.79 243.9 100.32 295.46 44.79 243.9 44.79"/>
        <polygon class="cls-14" points="425.62 144.65 364.26 314.57 491.7 144.65 425.62 144.65"/>
        <polygon class="cls-14" points="404.35 44.79 352.79 44.79 404.35 100.32 404.35 44.79"/>
        <polygon class="cls-14" points="260.06 119.65 388.18 119.65 324.12 50.66 260.06 119.65"/>
      </g>
      <g class="cls-8">
        <path class="cls-3" d="m307.69,128.21s-1.3.92-2.06,1.99c-.31.46-1.15.69-1.99.76h-.08c-1.37.15-2.98,0-3.82-.38-1.53-.53-2.06-1.53-2.98-1.22-.23.08-.3.15-.46.23-.54.38-.76.84-2.22,1.3-1.91.46-1.76,1.07-1.83,2.45-.08,1.37.38,2.22-.15,3.13-.46.99-3.67.61-5.65.46-.54-.08-1.07,0-1.53.23h-.08v.08c-1.15.38-2.14,1.3-3.52,2.6-1.91,1.91-1.3,1.99-3.82,1.6-.61-.15-1.3-.08-2.06.08-1.99.23-4.13,1.3-6.04,2.37-2.52,1.38-.84,1.99-1.07,4.74-.23,2.68-.84,4.05-2.37,5.2-1.53,1.15-2.75,1.3-5.12,4.36-.23.23-.38.46-.54.69-1.91,2.37-2.22,2.6-2.98,2.45-.92-.08-.31-5.73-.31-7.49s.92-3.67,3.21-5.58l.08-.08c2.22-1.76,3.74-2.14,5.58-4.51,1.76-2.45,1.99-3.9,1.3-5.12-.69-1.22-2.6,2.22-4.05,2.9-1.53.61-1.68-.38-2.83-1.38l-.08-.08c-.53-.38-1.37-.23-2.22.08v.08c-1.15.38-2.37,1.15-2.98,1.22-.99.08-2.14.61-3.9,1.68-.08,0-.23.08-.31.15-1.83,1.15-2.52.23-4.58-.61-1.99-.92-4.13-1.53-7.18-.3-1.15.46-2.83,1.91-4.43,3.59-.08.08-.23.15-.3.23-2.6,2.75-5.04,5.96-4.81,6.95.46,1.68,2.29,1.37,4.74,2.83,2.45,1.45.54,1.45-.38,4.66-.92,3.21-.61,3.59-1.22,6.34-.69,2.75-4.81,5.04-5.81,6.03-.99.99-3.44,3.44-5.96,3.06-2.52-.46-2.52,1.83-4.43,5.12-1.83,3.29-.46,2.37-.08,4.2.38,1.76-1.6,6.11-3.06,7.56-1.37,1.45-2.67-1.22-1.99-4.13.61-2.98-.84-1.53-2.45-2.06-1.68-.61,1.15-1.76.84-3.29-.23-1.53-2.14-.15-2.83.15-.69.38-1.53.99-2.9-.46-1.22-1.22-.99-1.76-.92-1.83-.23.23-1.76,1.76-3.67,3.51-2.14,1.99.38.84,2.75,1.45,2.37.53,1.37,0,3.44.99,2.06,1.07-1.53,1.15-2.98,1.68-1.37.46-1.3,1.3.3,2.45,1.53,1.15,2.52,2.98,3.21,7.34.76,4.35-1.99,5.35-4.51,8.56-2.6,3.29-7.34,4.74-10.54,5.65-3.29.92-2.45,2.21-5.2,1.76-2.67-.54-1.6-1.07-3.9-.3-2.29.84,0,2.67,2.22,5.27,2.22,2.6-.61,8.56-2.14,9.32-1.53.69-1.91,3.06-3.9,2.75-2.06-.3-1.53-1.91-3.44-2.9-1.99-1.07-.23,2.68,1.22,6.8,1.37,3.97,2.9,3.9,3.44,6.11,0,.08.08.23.08.38.23,1.6-1.45,1.3-3.51,0-.23-.15-.38-.23-.61-.38-1.22-.84-2.45-1.91-3.59-3.13-3.29-3.59-3.06-3.06-4.13-6.88-1.07-3.82-.99-4.2-2.37-5.2-1.37-1.07-1.07-1.76-.76-3.44.3-1.76-6.95-9.93-9.86-10.24-2.98-.31-2.06.76-3.51,2.45-1.45,1.76-4.74,3.36-7.11,4.97-2.37,1.68-2.22,2.83-2.22,7.41s-1.3,4.35-5.73,5.65c-4.43,1.3-2.29-3.59-3.67-4.66-1.37-.99-2.98-6.04-3.74-11.38-.84-5.42-1.45-1.15-5.42-2.29-3.9-1.15-2.22-5.35-4.81-6.8-2.6-1.45-3.59-.84-6.04.31-2.44,1.15-5.04-.31-6.65-2.37-1.53-2.06-3.59-.76-6.42-1.37-2.83-.54-1.91-1.3-4.43-1.68-2.52-.46.23,2.22,1.99,4.81,1.68,2.6,3.74,1.3,9.7,3.59,5.96,2.29.61,3.29-1.76,5.65-2.37,2.37-4.35,2.68-7.64,4.43-3.29,1.83-4.51,1.99-7.95,3.36-3.36,1.38-4.13.38-6.42-.53-2.29-.92-3.82-5.27-6.42-10.85-2.67-5.65-4.51-9.32-6.49-11.77-1.99-2.45-1.53.54-.92,2.29.69,1.68,2.14,3.97,3.67,8.4,1.61,4.35,1.3,2.83,2.14,5.96.92,3.06,5.35,9.78,8.02,11.23,2.67,1.53,9.09-1.15,12.3-1.22,3.29-.08-.23,1.6-3.13,8.18-2.22,4.97-3.36,4.28-5.58,5.12-.69.31-1.53.76-2.6,1.6-4.28,3.51-4.66,7.34-5.27,11.77-.15,1.53-.08,2.9.08,4.28,0,.15,0,.31.08.38.08.76.15,1.6.31,2.37.08.46.15.99.15,1.53.08.46.15.99.15,1.53.08.69.15,1.53.08,2.29,0,.08,0,.23-.08.31,0,.61-.15,1.14-.46,1.68-.23.76-.76,1.53-1.3,2.22-1.61,2.14-3.9,3.97-5.12,5.5-.31.38-.54.76-.69,1.07-.08.15-.15.31-.15.46-.15.38-.23.76-.31,1.07-.15.53-.23.99-.31,1.53-.31,1.3-.69,3.06-1.99,6.49-.23.54-.38.99-.61,1.38-.31.61-.69,1.15-.99,1.53-.31.46-.69.76-1.07,1.07-1.15.84-2.37,1.07-3.67,1.53-.84.31-1.76.77-2.6,1.53-2.9,2.67-4.2,3.06-7.18,4.2-.38.15-.84.38-1.3.54-4.05,1.68-8.48-.92-8.94-3.29-.46-2.37.76-2.67.23-6.57-.46-3.9-4.81-11.69-6.34-15.51-1.53-3.82-.53-4.58,1.99-8.63,2.44-4.13-1.76-8.56-4.13-13.29-2.37-4.74-2.52-2.14-2.52-5.5s-.23-4.51-2.9-5.88c-2.6-1.38-4.2-2.22-8.71-3.36-4.51-1.15-4.43,1.38-8.79.76-4.43-.69-4.2.69-7.03.38-1.3-.15-2.9-1.15-4.43-2.29v-41.33c1.6-1.22,4.28-1.91,7.95-3.21,5.5-1.91,4.58-.23,9.4-1.6,4.81-1.37,10.7-2.75,13.98-2.52,3.36.23,2.83,2.67,2.83,4.58s.84,1.53,5.04,2.6c4.28,1.07,1.99,2.45,5.12,3.06,3.21.69,2.14-.61,3.67-3.13,1.45-2.52,2.44,0,6.49,1.99,4.13,2.06,3.82.84,8.94.31,5.04-.61,5.5.15,6.65-.38,1.15-.46,1.3-5.73.61-8.1-.76-2.37-1.99-.53-4.66-.53-1.76,0-2.37-.38-2.29-1.3,0-.53.15-1.22.46-2.14.08-.15.08-.3.15-.38.46-1.3.84-1.6,1.83-1.99.54-.23,1.37-.46,2.52-.99.08-.08.23-.08.31-.08v-.08c1.07-.38,2.22-.61,3.36-.69,1.99-.23,3.9-.23,5.35-1.07.31-.23.54-.38.61-.54.46-.84-1.83-1.6-3.29-2.6-.31-.15-.54-.3-.76-.53-.92-.99-.92-1.91-.69-2.98.15-.61.38-1.3.61-2.06.54-2.06-1.3-.61-3.44.61-2.14,1.22.38,1.68-.54,3.36-.46.84-1.22.76-1.91.3-.46-.23-.84-.69-1.15-1.22-.23-.23-.38-.46-.46-.69-.38-.84-.92-.84-1.76-.3-.61.3-1.37.92-2.44,1.68-1.76,1.22-1.15,2.14-.99,3.67.08.46.08.92,0,1.45,0,.31-.15.61-.23.92-.53,1.6-1.45,1.76-2.37,1.68-.92,0-1.83-.15-2.29.69-.99,1.68-.31,2.98-2.14,3.29-1.76.38-1.07,1.38-1.91,2.67-.76,1.3-2.6-.99-2.9-3.51-.31-2.52-3.36-5.27-3.67-6.57-.31-1.3-3.74-2.83-5.58-3.44-1.76-.54-.61,1.3.84,3.06,1.45,1.68,4.2,2.22,4.43,4.05.15,1.91-1.22.92-2.29,1.99-1.07,1.07-.53,3.29-2.14,3.97-1.68.76-1.45-2.06-1.07-4.58.38-2.45-1.99-2.9-3.67-4.51-1.76-1.68-4.43-3.21-5.35-3.97-.84-.69-3.21,1.99-5.81,1.91-2.52-.08-1.53-.53-2.52.61-.99,1.15-2.14,3.13-3.82,3.44-1.68.38-2.52,1.6-2.83,3.51-.38,1.99-1.83,2.14-4.35,3.21-2.52,1.07-5.96-.23-8.1-.99-2.14-.69-1.76-2.29-1.15-3.97.23-.53.3-1.3.53-2.14.38-1.76.99-3.9,3.13-4.66.84-.31,1.45-.38,1.99-.38l.08-.08c1.53-.08,2.29.46,4.05,0,2.37-.69,1.6-1.83,1.53-5.12,0-.15,0-.3-.08-.46-.31-2.6-3.44-1.6-3.9-3.51-.38-1.99,2.75-.69,8.18-1.53.38-.08.76-.15,1.07-.31,2.06-.61,2.83-1.91,3.28-3.29.46-1.37.61-2.9,1.45-3.59,1.91-1.6,3.06-2.14,3.74-5.35.76-3.21,3.28-4.43,5.58-3.51.46.23.76.46.92.76.53,1.07-.84,2.6-.69,4.05.15,1.91,2.44,1.53,3.9,1.91,1.37.31,7.41-.76,9.47-2.29,1.6-1.3,2.75-2.45,4.13-3.51.31-.23.61-.53.99-.76,1.91-1.3.46-2.14.92-2.75.38-.69,1.91-2.45,1.3-4.35-.61-1.6-2.67-.84-3.97-1.83-.15-.15-.31-.38-.46-.61-.76-1.3-.23-2.75.46-4.13.31-.61.61-1.22.92-1.83.23-.54.23-.84.08-.84-.15-.15-.53,0-.99.15-.69.31-1.53.76-2.22,1.07-1.76.84-2.83,2.6-4.43,4.97-.61.92-.92,1.68-.99,2.45l-.08.08c-.23,1.22.08,2.37.15,3.82.15,2.37-3.28,4.66-4.89,4.35-.84-.23-1.3-.99-1.6-1.91-.15-.76-.23-1.68-.31-2.37-.15-1.45-1.15-2.37-2.44-1.91-1.3.54-3.9,1.68-6.42.99-2.52-.61-1.76-4.2-.53-7.34,1.22-3.13,1.91-2.14,5.96-4.2,4.13-1.99,2.98-2.83,6.26-5.65,3.21-2.9,3.9-4.89,7.11-7.26,3.13-2.37,5.27-3.21,13.22-4.05,6.19-.69,4.97.15,5.73,1.6.08.31.31.61.69.92.08.15.23.31.38.38,1.91,1.38,3.36,1.83,5.2,2.22.99.23,2.14.38,3.51.76,3.97.99,3.59,2.29,4.05,3.21.54.92-1.76,2.52-3.82,2.6h-.92v-.08c-1.45-.08-2.29-.61-3.21-.99-1.15-.46-.38,1.07.38,1.99.61.69,1.53.92,2.98.92.38,0,.92-.08,1.37-.15,2.29-.23,5.58-1.83,6.57-1.6.38.08,1.15,0,2.06-.23,1.6-.46,3.82-1.07,5.42-1.53,2.52-.76,2.52-2.37,3.51-3.06.76-.61,2.44-.76,6.11-.46.61.08,1.37.08,2.14.15,5.12.38,4.58-.54,7.87-1.83,1.37-.54,2.37-.61,3.21-.46,1.22.15,2.22.69,3.67.69,2.52,0,6.19-1.53,7.41-3.21.08-.08.08-.15.15-.15,1.07-1.53,1.61-.84,3.51-1.99,2.06-1.22,1.45-1.07,6.88-2.06,5.5-.99,6.95,1.38,9.32,0,2.37-1.38-1.15-4.51-.46-5.35.61-.92,5.88-.15,8.17-1.14,2.29-1.07.92-2.45,1.99-3.67,1.07-1.3,5.27-1.83,9.55-2.22,4.35-.46,4.13,1.07,6.04.53,1.83-.46,1.3-1.83,2.83-2.14,1.53-.23,1.53-1.07,2.45-1.53s4.05-.38,6.49,1.15c2.52,1.53,2.98-.23,5.58,0,2.6.23,1.45,2.52,1.45,3.59s-1.91,3.29-3.51,3.97c-1.53.76-.15,1.76,2.14,1.6s3.74-.99,6.49-1.22c2.67-.15,3.67.38,6.19,1.53,2.52,1.14,4.66,1.14,6.26.76,1.68-.46,1.15-1.91,2.06-2.21.92-.38,5.5,1.53,7.95,2.52,2.45.99-.38,2.14,0,3.21.3.99,3.13,2.83,4.97,2.6,1.76-.23,1.07-2.06,3.97-1.91,2.98.15,3.82.15,6.95-.84,3.21-.92,2.98-1.68,7.64-1.38,4.66.38,4.59.76,6.19.99,1.6.23,2.29-.46,5.5.54,3.13.92,2.14,3.21,2.98,3.67.84.46,2.22.31,5.5.08.92-.08,1.45-.08,1.76,0,.92.15.69.84,2.06,1.76,1.91,1.3.69,1.6,1.91,1.37.23,0,.54-.08.84-.15,1.15-.23,2.6-.69,4.74-.84,2.83-.31,2.75.08,4.36,1.15,1.61.99,2.9.84,4.58.08,1.6-.84.46-1.6.69-1.6.31,0,3.29.61,7.49,1.14,1.22.15,2.14.38,2.98.61,1.91.54,3.13,1.22,5.81,2.22.84.31,1.53.61,1.99.99,1.68,1.07,1.53,2.22,2.83,3.21,1.76,1.3,1.76.23,3.36-.46.15-.08.23-.08.3-.08,1.45-.53,2.22.69,3.44,2.06Z"/>
        <path class="cls-3" d="m235.99,172.68c1.07.39,3.1,2.04,4.33,1.96,1.23-.08,1.88,1.55.9,1.71-.98.16-4.25,1.71-4.25,1.71,0,0-.98-1.23-1.55,0s-.9,2.12-.73,2.86c.16.74,1.31,2.86.65,3.92-.65,1.06-1.55,1.63-1.55,2.94s.82,2.7-.33,3.27-2.29.74-3.27,1.06c-.98.33-1.71.41-2.12,1.31-.41.9-1.39,2.21-3.43,2.12-2.04-.08-2.04-1.71-3.92-.16s-1.96,2.45-2.94,2.04c-.98-.41-.24-.98,0-2.53s-3.35-1.14-.08-2.94c3.27-1.8,3.27-2.04,5.47-2.37,2.21-.33,3.43.74,4.33-1.14.9-1.88,0-2.61,1.8-2.7s2.94.74,3.27-1.31c.33-2.04.08-3.76,0-5.06s-.57-2.53.9-3.02,1.63.41,1.8-.74c.16-1.14-.82-3.51.74-2.94Z"/>
        <path class="cls-3" d="m203.15,216.96c1.55.24,2.29,3.02,1.8,4.17s-.98,2.45.41,2.7c1.39.24,2.37.41,2.37,1.39s.57-1.06,1.63,1.55.08,3.02,1.31,4.98c1.23,1.96,2.7,2.94.98,3.92-1.71.98-.41,2.04-2.21,1.47-1.8-.57-1.06-.24-1.96-1.96-.9-1.71-1.47-.33-2.29-.41-.82-.08-1.06-.08-.41-1.23.65-1.14.98-1.06.24-2.37s.41-2.86-.65-3.1c-1.06-.24-1.39,1.55-3.27,2.7s-4.66,1.47-4.57,1.06,1.14-.98,2.86-3.1c1.71-2.12,2.78-.82,2.45-4.08-.33-3.27-1.47-2.37-.41-4.66,1.06-2.29,1.72-3.02,1.72-3.02Z"/>
        <path class="cls-3" d="m197.93,235.5c1.24,1.24,2.86.9,2.37,2.12-.49,1.23-1.95,1.39-1.14,2.61.81,1.23,1.54,3.02,2.61,2.86,1.06-.16.98-.98,3.59-.98s4.25-.57,4.41.49c.16,1.06-1.14,1.14-2.86,2.7s-3.43,3.1-2.04,4.08c1.39.98,1.96,2.78,1.47,3.43s-.98,1.31.16,2.12c1.14.82,6.62.57,5.31,2.53-1.31,1.96-4.49,3.02-7.84,3.1s-.66-.9-7.43-1.55c-6.78-.65-7.92,1.06-12.66-1.23-4.74-2.29-7.84-.33-10.46-4.49s-1.55-2.12-4.82-6.45c-3.27-4.33-1.71-4.33-4.49-6.04-2.78-1.71-5.15-4.17-3.27-4.17s.98-2.21,6.78,2.61c5.8,4.82,4.25,4.57,8.5,7.43,4.25,2.86,5.64,3.19,7.19,2.86,1.55-.33,3.84,0,2.37-1.88s-2.29-4.25-1.06-4.66,1.14,1.63,3.19-.57c2.04-2.21,2.04-2.78,3.84-3.51,1.8-.74.82,0,2.53-1.06,1.72-1.06,2.37-3.76,3.76-2.37Z"/>
        <path class="cls-3" d="m220.39,244.98c.89,1.14,2.37,2.61,3.02,3.84.65,1.23,1.88-1.04,4.25-.97,2.37.07,5.88,1.38,7.35,2.03,1.47.65,4,1.06,5.55,3.19,1.55,2.12,2.7.9,2.78,3.02.08,2.12.41,1.88,1.8,3.1,1.39,1.23,1.63,3.51-.82,2.53-2.45-.98-3.19-4.33-5.8-4-2.61.33-1.55,1.06-3.59,1.47-2.04.41-2.94-.33-5.39-.49-2.45-.16-4.25.65-3.1-1.55s1.96-2.29-2.04-3.92-5.55-.82-5.55-2.53.65-1.88-.9-3.35c-1.55-1.47-2.04-2.53-1.06-3.27.98-.74,2.94.16,3.51.9Z"/>
        <path class="cls-3" d="m225.13,268.5c2.7,1.39,3.76,4.17,5.06,3.68s.82-1.31,1.8-4.25,1.06-5.96,2.29-4.74.08,3.62,2.04,4.38c1.96.77,2.37,1.34,2.78,3.62.41,2.29.82,1.55,2.86,3.92,2.04,2.37,3.88,1.96,4.23,4.66.35,2.7,3.78,5.47,3.94,8.25.16,2.78.65,4.74-1.39,8.25-2.04,3.51-2.86,5.31-3.51,6.78s-2.61,2.21-4.74,2.21-3.35-.9-4.66-.57-2.21,1.96-3.76.82-2.45-2.61-2.94-3.51c-.49-.9-.73-3.92-3.02-3.59s-1.96,1.47-3.35,0c-1.39-1.47-.41-2.7-4.49-3.35-4.08-.65-5.15-.98-6.86-.57-1.71.41-3.51.98-5.39,2.45-1.88,1.47-4.82.73-6.45,1.47-1.63.73-4.08,2.37-5.88,1.39-1.8-.98-1.14-1.47-1.06-3.76.08-2.29-.08-.73-1.23-4.66-1.14-3.92-.65-3.35-1.71-5.23-1.06-1.88-1.88-.98-.41-3.68,1.47-2.7.98-3.27,1.8-4.17.82-.9,1.55.24,4.33-1.63,2.78-1.88,3.59-1.06,6.13-2.04,2.53-.98,3.1-4.74,4.66-5.88,1.55-1.14,1.96-2.04,3.1-2.04s2.45.65,4.49,1.47c2.04.82,1.63.9,3.35-.98,1.71-1.88,0-3.68,3.1-3.35,3.1.33,4.25-.16,4.66,1.63.41,1.8.25,3.02.25,3.02Z"/>
        <path class="cls-3" d="m281.82,307.06c1.63-2.12,2.45-2.37,1.88-4.82-.57-2.45-.41-4.37,1.71-2.19s4.49,3.41,6.13,3.49c1.63.08,5.55,1.31,1.55,4.33-4,3.02-3.27.9-6.45,5.39s-.73,4.57-4.57,6.78c-3.84,2.21-8.09,3.19-7.27,1.23.82-1.96.41-1.96,3.92-4.58s5.8-4.57,5.8-6.78-2.7-2.86-2.7-2.86Z"/>
        <path class="cls-3" d="m86.75,285.01c-1.47-2.12-1.47-2.78-1.63-6.21-.16-3.43-1.31-5.06,0-7.02,1.31-1.96,4.74-5.23,6.04-7.52,1.31-2.29,1.63-7.19,2.45-2.78.82,4.41,3.43,7.02-.49,12.91-3.92,5.88-6.37,10.62-6.37,10.62Z"/>
        <path class="cls-3" d="m8.17,163.45c-.33-.65,1.14-2.78,1.14-2.78,0,0,1.8-.98,1.31-4.57-.49-3.59-.82-1.47-2.12-4.9-1.31-3.43-3.27-2.78-1.31-5.06,1.96-2.29,4.25-5.72,4.74-2.94.49,2.78-.65,4.57.49,5.88,1.14,1.31,3.43,1.58,4.74,3.73,1.31,2.15,6.53,2.97,2.61,5.75-3.92,2.78-5.72.98-7.19,2.94s-4.41,1.96-4.41,1.96Z"/>
        <path class="cls-3" d="m2.94,160.84c2.61-1.47,3.57-1.14,3.42-3.76s1.65-4.9-1.13-5.06c-2.78-.16-3.59,1.47-3.92,2.61-.33,1.14-.33,1.47.49,2.61.82,1.14.98,2.78.65,3.59s.49,0,.49,0Z"/>
        <path class="cls-3" d="m511.97,266.41c-.51,1.2-.79,2.61-.61,5.36.33,4.9.49,4.41-.49,6.86-.98,2.45-4.57,2.77-7.52,4.57-2.94,1.8-3.1.33-5.06,5.23-1.96,4.9-.82,2.29-2.45,6.53-1.63,4.25.66,2.12-4.08,4.57-4.74,2.45-6.53.33-7.02,1.8-.49,1.47,2.78.33-.65,3.43-3.43,3.1-4.9,3.92-7.03,5.23-2.12,1.31-3.43,2.78-2.94,5.56.49,2.77,2.94,2.61.16,5.23-2.69,2.52-3.85.17-4.66,3.84h-12.82v-.42c0-3.92-.49-.98,1.47-7.67,1.96-6.7-1.31-4.42.33-11.76,1.64-7.35,1.31-15.2,2.94-20.59,1.64-5.39,5.23-3.92,1.64-8.82-3.6-4.9-4.25-4.08-7.35-7.35-3.11-3.26-1.15-2.61-2.94-6.53-1.8-3.92-2.94-3.59-4.41-6.53-1.47-2.94-2.29-1.96-.82-6.87,1.47-4.9-1.79-4.74,1.47-6.21,3.27-1.47,2.78-5.06,2.29-6.37-.49-1.3,2.45-1.8-2.12-2.45-4.57-.65-5.88.81-7.51-1.96-1.64-2.77-.33-3.27-3.76-4.9-3.43-1.63-7.19-1.63-8.5-2.94l-1.3-1.31s2.45-.98-3.11-1.63c-5.55-.66-9.64,0-12.41-3.92s-2.12-1.63-2.77-5.23c-.66-3.6-1.47-3.6-4.08-5.88-2.62-2.29-2.62-3.6-5.07-4.57-2.45-.98-2.94-.65-2.94-.16s-.16,2.45,2.12,4.25c2.29,1.8,2.45,3.43,2.45,4.25s-3.11,1.8-3.11,1.8c0,0,0-.98-.98-3.27-.98-2.29-1.31-3.43-3.27-6.21-1.96-2.77-2.45-3.1-2.45-3.1,0,0-2.29-3.59-6.21-8.33-3.92-4.74-5.07-1.8-5.07-7.19s.98-5.39,0-9.15c-.98-3.75-3.26-5.55-1.3-6.21,1.96-.65,3.1-1.63-.49-4.74-3.59-3.11-4.9-1.47-6.21-5.72-1.3-4.25,1.47-3.92-3.92-5.88-5.39-1.96-6.05-3.6-8.5-4.74-2.45-1.15-3.92-1.8-3.92-1.8,0,0,.49-.49-5.39-.98-5.88-.49-5.23-3.26-9.64-1.47-4.14,1.69-4.97,2.08-5.06,2.12.13-.16,2.33-2.93-1.8-2.61-4.25.33-3.26,1.31-3.43,3.27s.49,4.25-2.45,5.39c-2.94,1.14-7.19,4.25-5.56.98,1.64-3.26,5.72-5.55,4.25-6.37-1.47-.81-4.57,1.8-4.9-.81-.33-2.62.33-3.92-3.1-4.08-3.43-.16-6.21-1.63-3.59-2.78,2.61-1.14,5.07-.65,5.88-3.43.81-2.78,6.86-3.43.16-3.27-6.7.16-9.64.16-8.82-1.15.82-1.3.49-3.75,5.23-3.1,4.74.65,4.74-1.31,3.59-2.61-2.55-2.91-6.7-3.11-3.43-4.9,3.27-1.8,5.23-2.94,8.34-3.6,3.1-.65,6.37.66,11.43,1.96,5.07,1.31,13.24.16,16.99,1.31,3.76,1.15,5.55,3.43,6.7,3.27,1.15-.17,4.41-3.6,7.68-3.6s4.9-.49,11.6.33c6.7.81,13.23,1.15,13.39,2.77.16,1.64.16,2.46,2.62,2.46s4.57-1.47,6.05.82c1.47,2.29,3.75,3.92,3.43,2.12s-1.96-3.27-.65-3.92c1.31-.65,5.07-.98,6.05-.65.98.33,4.08.82,5.07.65.98-.16.33-1.8,3.59-.82,3.27.98,3.76,3.43,4.42,3.59.65.17,2.12-2.51,2.29-4.28.16-1.77,1.63-1.77-1.31-4.05s-.29-5.06,1.82-4.08c2.1.98.79,2.29,2.92,4.41,2.12,2.13,2.45,3.92,3.92,3.27,1.47-.65.66-3.43,2.62-1.31s2.45,1.06,4.25.69c1.8-.36.33-1.51,2.45-.36,2.12,1.14,5.72,2.45,3.1,4.57-2.61,2.12-6.53,1.8-9.31,3.43-2.78,1.63-1.96,1.14-2.78,3.1-.81,1.96-.49,2.12-3.75,2.94-3.27.81-4.25.16-4.08,2.94.16,2.77-.17,3.11-1.31,4.57-1.15,1.47-.49,2.78.82,3.43,1.31.65,2.78-.49,2.78,1.47s2.45,3.43,5.72,3.43,4.74.82,6.7,3.27c1.96,2.45-.82,2.61,2.45,5.72,3.27,3.1,6.37,4.57,6.86,1.8.49-2.78,0-3.43.49-6.7.49-3.27,3.6-3.6,1.96-6.54-1.64-2.94-4.08-4.25-1.8-5.88,2.29-1.63-.49-3.14,3.43-3.94,3.92-.8,6.53-1.45,8.17,1.49,1.63,2.94-.16,4.9,1.47,6.21,1.64,1.31,6.7-.65,7.68-1.8.98-1.14,3.76-.98,4.74,3.27.98,4.25,1.63,5.39,3.1,5.88,1.47.49,1.47,1.47,3.27,3.1,1.8,1.63,5.23,4.25,0,4.74-5.23.49-9.48-.16-11.44,1.63-1.96,1.79-2.12.49-.81,2.94,1.3,2.45.33.81,1.3,3.92.98,3.11,5.88,3.11,2.29,5.23-3.59,2.12-2.94,2.61-5.06,1.96-2.12-.66-2.61-5.35-5.07-1.53-2.45,3.82-2.12,5.28-4.25,6.43-2.12,1.15-2.29-1.15-4.25,2.45-1.96,3.6,1.15,3.92-3.26,8-4.42,4.09-6.54,2.12-6.86,5.56-.33,3.43,1.8,7.52.65,8.33-1.14.82-.98.65-2.29-1.63-1.3-2.29-.65-3.59-5.22-3.92-4.58-.33-4.25-1.47-6.05.49-1.8,1.96.65,2.61-4.42,1.96-5.06-.66-5.71-6.7-6.7.33-.98,7.02-1.14,7.84.49,9.8,1.64,1.96,6.05,6.7,8.01,4.57,1.96-2.12-.49-4.74,3.27-3.92,3.76.81,4.74-.16,4.08,1.96-.65,2.12-5.72,2.45-1.64,4.41,4.08,1.96,7.52-.33,7.84,2.77.33,3.11-.49,3.92-.33,5.72.16,1.8.98,3.11,4.74,3.11s3.6-1.47,4.58.49c.98,1.96,4.08.98,5.39-1.8,1.31-2.77,2.29-5.88,4.25-2.61s2.29,3.92,4.25,2.61l1.96-1.3s2.13-1.96,3.92-.33c1.8,1.63,4.74-.16,5.39,2.12.65,2.29-.33,2.62,2.45,3.43,2.78.82,6.05-.49,7.68,1.8,1.64,2.29-2.77.82,1.96,3.6,4.74,2.77,6.21,3.1,5.88,4.9-.33,1.8.98,2.12,5.23,3.11,4.25.98,3.59.49,7.02,3.1.97.74,1.89,1.18,2.73,1.46v15.07h0Z"/>
      </g>
      <g>
        <path class="cls-6" d="m32.87,283.71c-.46-.99-.99-1.76-1.76-2.45-.76-.69-1.6-1.22-2.6-1.53-.99-.38-1.99-.53-3.06-.53-1.15,0-2.14.15-3.13.53-.99.3-1.83.84-2.6,1.53-.76.69-1.37,1.45-1.83,2.45-.38.99-.61,2.14-.61,3.44v11.23c0,1.3.23,2.45.61,3.44.46.99,1.07,1.83,1.83,2.45.76.69,1.61,1.22,2.6,1.61.99.3,1.99.46,3.13.46,1.07,0,2.06-.15,3.06-.46.99-.38,1.83-.92,2.6-1.61.76-.61,1.3-1.45,1.76-2.45.46-.99.69-2.14.69-3.44v-11.23c0-1.3-.23-2.45-.69-3.44Zm-4.2,14.67c0,1.07-.3,1.99-.92,2.6-.54.69-1.37.99-2.29.99-.99,0-1.83-.31-2.37-.99-.61-.61-.92-1.53-.92-2.6v-11.16c0-1.15.31-2.06.92-2.67.54-.69,1.37-.99,2.37-.99.92,0,1.76.3,2.29.99.61.61.92,1.53.92,2.67v11.16Z"/>
        <path class="cls-6" d="m54.65,293.41c-.23-1.22-.92-2.37-1.99-3.44-.54-.54-1.22-.99-2.06-1.3-.84-.31-1.76-.46-2.9-.46-.92,0-1.68.08-2.45.38-.69.3-1.22.61-1.61.92v-5.73h10.85v-4.36h-15.28v15.05h4.51c.15-.54.46-.99.99-1.45.46-.46,1.22-.69,2.22-.69,1.22,0,2.06.38,2.52,1.22.54.84.76,1.99.76,3.59,0,.84-.08,1.61-.23,2.29-.15.69-.38,1.22-.84,1.68-.54.54-1.37.84-2.29.84-1.07,0-1.83-.31-2.37-.84-.46-.61-.84-1.45-.92-2.45h-4.89c.08.92.23,1.91.54,2.83.23.99.84,1.91,1.61,2.67.61.61,1.37,1.07,2.37,1.53,1.07.46,2.22.61,3.67.61,1.37,0,2.52-.15,3.52-.61.99-.46,1.76-.92,2.37-1.53.99-.99,1.61-2.06,1.91-3.13.3-1.14.46-2.45.46-3.9,0-1.3-.15-2.52-.46-3.74Z"/>
        <path class="cls-6" d="m68.56,276.6l-10.7,32.32h4.58l10.7-32.32h-4.58Z"/>
        <path class="cls-6" d="m83.23,279.43l-5.42,4.74v5.2l5.42-4.74v21.47h4.89v-26.67h-4.89Z"/>
        <path class="cls-6" d="m104.54,279.43l-5.42,4.74v5.2l5.42-4.74v21.47h4.89v-26.67h-4.89Z"/>
        <path class="cls-6" d="m118.83,293.11v4.58h11.54v-4.58h-11.54Z"/>
        <path class="cls-6" d="m151.15,283.71c-.38-.99-.99-1.76-1.76-2.45-.69-.69-1.6-1.22-2.6-1.53-.99-.38-1.99-.53-3.06-.53-1.15,0-2.14.15-3.13.53-.99.3-1.83.84-2.6,1.53-.76.69-1.37,1.45-1.76,2.45-.46.99-.69,2.14-.69,3.44v11.23c0,1.3.23,2.45.69,3.44.38.99.99,1.83,1.76,2.45.76.69,1.61,1.22,2.6,1.61.99.3,1.99.46,3.13.46,1.07,0,2.06-.15,3.06-.46.99-.38,1.91-.92,2.6-1.61.76-.61,1.38-1.45,1.76-2.45.46-.99.69-2.14.69-3.44v-11.23c0-1.3-.23-2.45-.69-3.44Zm-4.2,14.67c0,1.07-.31,1.99-.92,2.6-.54.69-1.3.99-2.29.99s-1.76-.31-2.37-.99c-.61-.61-.92-1.53-.92-2.6v-11.16c0-1.15.31-2.06.92-2.67.61-.69,1.37-.99,2.37-.99s1.76.3,2.29.99c.61.61.92,1.53.92,2.67v11.16Z"/>
        <path class="cls-6" d="m172.47,283.71c-.38-.99-.99-1.76-1.76-2.45-.69-.69-1.61-1.22-2.6-1.53-.99-.38-1.99-.53-3.06-.53-1.15,0-2.14.15-3.13.53-.08,0-.15.08-.23.08-.92.3-1.68.84-2.37,1.45-.76.69-1.3,1.45-1.76,2.45-.46.99-.69,2.14-.69,3.44v11.23c0,1.3.23,2.45.69,3.44.08.08.08.23.15.31.46.84.92,1.6,1.61,2.14.76.69,1.6,1.22,2.6,1.61.99.3,1.99.46,3.13.46,1.07,0,2.06-.15,3.06-.46.99-.38,1.91-.92,2.6-1.61.76-.61,1.37-1.45,1.76-2.45.46-.99.69-2.14.69-3.44v-11.23c0-1.3-.23-2.44-.69-3.44Zm-4.2,14.67c0,1.07-.31,1.99-.84,2.6-.61.69-1.37.99-2.37.99s-1.76-.31-2.37-.99c-.61-.61-.92-1.53-.92-2.6v-11.16c0-1.15.3-2.06.92-2.67.61-.69,1.37-.99,2.37-.99s1.76.3,2.37.99c.54.61.84,1.53.84,2.67v11.16Z"/>
      </g>
      <g>
        <path class="cls-6" d="m15.9,258.71v2.45h3.67v11.54h2.67v-11.54h3.67v-2.45h-10.01Z"/>
        <path class="cls-6" d="m38.36,263.91c0-.54-.08-.99-.15-1.45-.08-.46-.23-.92-.38-1.3-.08-.08-.08-.15-.15-.23-.15-.23-.38-.53-.69-.84-.15-.15-.31-.31-.46-.38-.31-.31-.69-.54-1.15-.69-.31-.15-.69-.23-1.07-.3-.31-.08-.61-.08-.99-.08-.84,0-1.53.15-2.14.38-.61.23-1.15.61-1.6,1.07-.38.38-.61.76-.84,1.07-.15.38-.31.84-.38,1.3s-.15.92-.15,1.45c-.08.54-.08,1.15-.08,1.83,0,.61,0,1.22.08,1.76,0,.23,0,.46.08.61,0,.31,0,.61.08.84.08.46.23.92.38,1.3.23.38.46.69.84,1.07.46.46.99.84,1.6,1.07.53.31,1.15.38,1.91.38h.23c.76,0,1.45-.08,2.06-.38.61-.23,1.15-.61,1.61-1.07.38-.38.61-.69.84-1.07.15-.38.31-.84.38-1.3.08-.38.15-.92.15-1.45v-.38c.08-.38.08-.92.08-1.37,0-.69,0-1.3-.07-1.84Zm-2.83,4.51c0,.3-.08.53-.15.69-.15.23-.23.38-.38.46-.15.23-.38.46-.69.61-.15.08-.38.15-.61.08-.08.08-.23.08-.38.08-.38,0-.76,0-1.07-.15-.23-.15-.53-.38-.76-.61-.08-.08-.23-.23-.31-.46-.08-.15-.15-.38-.15-.69-.08-.23-.15-.61-.15-1.07v-3.29c0-.46.08-.76.15-1.07,0-.3.08-.54.15-.69.08-.23.23-.38.31-.54.23-.23.53-.38.76-.54.31-.08.69-.15,1.07-.15.3,0,.69.08.99.15.31.15.54.31.69.54.15.15.23.31.38.54.08.15.15.38.15.69.08.31.08.61.15,1.07v3.29c-.08.38-.08.69-.15.92v.15Z"/>
        <path class="cls-6" d="m51.35,261.39c-.23-.54-.46-.99-.92-1.37-.38-.38-.84-.69-1.37-.92-.61-.23-1.22-.38-1.99-.38h-5.35v13.98h2.67v-5.27h2.68c.76,0,1.37-.08,1.99-.31.53-.23.99-.54,1.37-.99.46-.38.69-.84.92-1.38.23-.54.31-1.07.31-1.68,0-.53-.08-1.14-.31-1.68Zm-2.9,3.06c-.23.23-.46.38-.76.38-.23.15-.46.15-.76.15h-2.52v-3.82h2.52c.69,0,1.15.23,1.53.54.31.38.54.84.54,1.37,0,.61-.23,1.07-.54,1.37Z"/>
        <path class="cls-6" d="m63.65,261.16v-2.45h-9.17v13.98h9.17v-2.45h-6.49v-3.36h5.5v-2.45h-5.5v-3.29h6.49Z"/>
        <path class="cls-6" d="m73.05,269.79c-.38.38-.92.53-1.6.53-.38,0-.69,0-.99-.15-.31-.15-.54-.31-.76-.54-.08-.15-.23-.31-.31-.46-.08-.23-.15-.46-.23-.76,0-.23-.08-.61-.08-1.07-.08-.46-.08-.99-.08-1.6,0-.69,0-1.22.08-1.68,0-.46.08-.76.08-1.07.08-.3.15-.54.23-.69.08-.23.23-.38.31-.54.23-.23.46-.38.76-.54.31-.08.61-.15.99-.15.69,0,1.22.15,1.53.54.38.38.69.84.76,1.45h2.83c-.31-1.53-.84-2.6-1.76-3.36-.92-.69-2.06-1.07-3.36-1.07-.84,0-1.53.15-2.14.38-.54.23-1.15.61-1.6,1.07-.31.38-.61.76-.76,1.07-.23.38-.38.84-.46,1.3s-.15.92-.15,1.45v3.59c0,.54.08,1.07.15,1.45.08.46.23.92.46,1.3.15.38.46.69.76,1.07.46.46,1.07.84,1.6,1.07.61.31,1.3.38,2.14.38,1.3,0,2.44-.38,3.36-1.07.92-.76,1.45-1.84,1.76-3.29h-2.75c-.15.54-.46,1-.77,1.38Z"/>
        <path class="cls-6" d="m89.02,262.46c-.08-.46-.23-.92-.46-1.3-.15-.31-.46-.69-.76-1.07-.46-.46-.99-.84-1.6-1.07-.61-.23-1.3-.38-2.14-.38s-1.53.15-2.14.38-1.15.61-1.61,1.07c-.31.38-.61.76-.76,1.07-.23.38-.38.84-.46,1.3s-.15.92-.15,1.45v3.59c0,.54.08,1.07.15,1.45.08.46.23.92.46,1.3.15.38.46.69.76,1.07.46.46.99.84,1.61,1.07.61.31,1.3.38,2.14.38s1.53-.08,2.14-.38c.61-.23,1.15-.61,1.6-1.07.31-.38.61-.69.76-1.07.23-.38.38-.84.46-1.3.08-.38.15-.92.15-1.45v-3.59c0-.53-.08-.99-.15-1.45Zm-2.6,4.89c0,.46-.08.84-.08,1.07-.08.3-.15.53-.23.69-.08.23-.15.38-.31.46-.23.23-.46.46-.76.61-.31.15-.61.15-.99.15s-.69,0-.99-.15c-.31-.15-.54-.38-.76-.61-.15-.08-.23-.23-.31-.46-.08-.15-.15-.38-.23-.69-.08-.23-.08-.61-.08-1.07-.08-.46-.08-.99-.08-1.6,0-.69,0-1.22.08-1.68,0-.46,0-.76.08-1.07.08-.3.15-.54.23-.69.08-.23.15-.38.31-.54.23-.23.46-.38.76-.54.31-.08.61-.15.99-.15s.69.08.99.15c.31.15.54.31.76.54.15.15.23.31.31.54.08.15.15.38.23.69,0,.31.08.61.08,1.07.08.46.08.99.08,1.68,0,.61,0,1.15-.08,1.6Z"/>
        <path class="cls-6" d="m100.4,258.71v8.56l-5.5-8.56h-2.44v13.98h2.75v-8.56l5.5,8.56h2.45v-13.98h-2.75Z"/>
        <path class="cls-6" d="m121.8,267.35c-.15-.38-.38-.76-.69-1.07-.15-.15-.31-.3-.46-.38-.15-.08-.31-.23-.61-.38,1.15-.61,1.76-1.6,1.76-2.9,0-.61-.15-1.15-.3-1.6-.23-.46-.54-.84-.92-1.22-.31-.31-.76-.61-1.3-.76-.54-.15-1.15-.3-1.83-.3h-5.58v13.98h5.81c.69,0,1.3-.15,1.83-.31.46-.23.92-.46,1.3-.84.38-.31.69-.76.84-1.22.23-.46.3-1.07.3-1.68,0-.46-.08-.91-.16-1.3Zm-7.18-6.19h2.67c.54,0,.99.15,1.3.46s.46.69.46,1.15c0,.54-.15.92-.46,1.22-.3.23-.76.38-1.3.38h-2.67v-3.21Zm4.13,8.63c-.31.3-.76.46-1.3.46h-2.83v-3.44h2.83c.54,0,.99.15,1.3.46.3.31.54.69.54,1.22s-.23.99-.54,1.3Z"/>
        <path class="cls-6" d="m130.89,258.71h-2.14l-5.04,13.98h2.83l.84-2.52h4.97l.84,2.52h2.83l-5.12-13.98Zm-2.75,9.17l1.76-5.04,1.68,5.04h-3.44Z"/>
        <path class="cls-6" d="m146.09,258.71v8.56l-5.5-8.56h-2.37v13.98h2.67v-8.56l5.5,8.56h2.45v-13.98h-2.75Z"/>
        <path class="cls-6" d="m158.93,264.29l4.59-5.58h-3.29l-4.97,6.11v-6.11h-2.67v13.98h2.67v-4.2l1.83-2.14,3.59,6.34h3.13l-4.89-8.4Z"/>
      </g>
      <g>
        <path class="cls-13" d="m420.95,258.19v53.62c0,2.16-1.77,3.92-3.92,3.92h-66.05c-2.16,0-3.92-1.77-3.92-3.92v-53.62c0-2.16,1.76-3.92,3.92-3.92h66.05c2.16,0,3.92,1.77,3.92,3.92Z"/>
        <path class="cls-5" d="m406.46,267.23l11.46-11.46h-3.74l-12.53,12.53-1.53,1.53-4.74,4.81-1.53,1.53h-17.11l-7.87-7.87-2.52-2.6-9.93-9.93h-3.67l9.86,9.93,1.53,1.53h-15.74v2.6h18.41l4.89,4.97,1.3,1.38v3.06h-24.6v2.6h24.6v9.4h-24.6v2.6h24.6v3.06h.08l-4.74,4.81-1.53,1.53h-18.41v2.6h15.82l-9.93,9.93h3.67l9.93-9.93,8.94-8.94h17.04l18.8,18.87h3.74l-9.93-9.93h14.52v-2.6h-17.12l-6.34-6.34h.15v-3.06h23.3v-2.6h-23.3v-9.4h23.3v-2.6h-23.3v-3.06h-.15l6.34-6.34h17.11v-2.6h-14.52Zm-11.46,27.04h-19.41v-15.51h19.41s0,15.51,0,15.51Z"/>
        <g>
          <path class="cls-10" d="m375.44,274.64l1.53,1.53h.08l1.07,1.07h11.84l2.6-2.6h-17.11Zm0,0l1.53,1.53h.08l1.07,1.07h11.84l2.6-2.6h-17.11Zm0,0l1.53,1.53h.08l1.07,1.07h11.84l2.6-2.6h-17.11Zm0,0l1.53,1.53h.08l1.07,1.07h11.84l2.6-2.6h-17.11Zm0,0l1.53,1.53h.08l1.07,1.07h11.84l2.6-2.6h-17.11Zm0,0l1.53,1.53h.08l1.07,1.07h11.84l2.6-2.6h-17.11Zm-3.74,0v20.71h24.68v-20.71h-24.68Zm22,18.11h-19.41v-15.51h19.41v15.51Zm-18.26-18.11l1.53,1.53h.08l1.07,1.07h11.84l2.6-2.6h-17.11Zm15.97,19.64l-1.53-1.53h-11.77l-1.53,1.53h-.08l-.99,1.07h17.04l-1.15-1.07Zm-15.97-19.64l1.53,1.53h.08l1.07,1.07h11.84l2.6-2.6h-17.11Zm0,0l1.53,1.53h.08l1.07,1.07h11.84l2.6-2.6h-17.11Zm0,0l1.53,1.53h.08l1.07,1.07h11.84l2.6-2.6h-17.11Zm0,0l1.53,1.53h.08l1.07,1.07h11.84l2.6-2.6h-17.11Z"/>
          <g>
            <g>
              <polygon class="cls-10" points="366.56 265.71 369.18 268.32 347.06 268.32 347.06 265.71 366.56 265.71"/>
              <polygon class="cls-10" points="420.95 265.71 420.95 268.32 398.83 268.32 401.45 265.71 420.95 265.71"/>
            </g>
            <g>
              <rect class="cls-10" x="347.06" y="277.7" width="27.22" height="2.62"/>
              <rect class="cls-10" x="393.73" y="277.7" width="27.22" height="2.62"/>
            </g>
            <g>
              <rect class="cls-10" x="347.06" y="289.69" width="27.22" height="2.62"/>
              <rect class="cls-10" x="393.73" y="289.69" width="27.22" height="2.62"/>
            </g>
            <g>
              <polygon class="cls-10" points="369.18 301.67 366.56 304.29 347.06 304.29 347.06 301.67 369.18 301.67"/>
              <polygon class="cls-10" points="420.95 301.67 420.95 304.29 401.45 304.29 398.83 301.67 420.95 301.67"/>
            </g>
          </g>
          <g>
            <polygon class="cls-10" points="378.09 292.76 355.12 315.73 351.42 315.73 374.39 292.76 378.09 292.76"/>
            <polygon class="cls-10" points="416.59 254.26 393.62 277.23 389.92 277.23 412.89 254.26 416.59 254.26"/>
          </g>
          <g>
            <polygon class="cls-10" points="378.09 277.23 374.39 277.23 351.42 254.26 355.12 254.26 378.09 277.23"/>
            <polygon class="cls-10" points="416.59 315.73 412.89 315.73 392.54 295.38 391.45 294.29 389.92 292.76 393.62 292.76 395.04 294.18 396.23 295.38 397.66 296.8 402.53 301.67 404.05 303.2 405.14 304.29 406.67 305.81 416.59 315.73"/>
          </g>
        </g>
      </g>
      <g>
        <path class="cls-15" d="m497.95,254.45h-66.05c-2.16,0-3.92,1.76-3.92,3.9v53.31c0,2.15,1.77,3.9,3.92,3.9h66.05c2.16,0,3.92-1.76,3.92-3.9v-53.31c0-2.14-1.77-3.9-3.92-3.9Z"/>
        <path class="cls-1" d="m501.88,278.53v33.13c0,2.15-1.77,3.9-3.93,3.9h-45.75l-24.22-24.08v-33.14c0-2.14,1.77-3.9,3.93-3.9h45.75l24.22,24.08Z"/>
        <path class="cls-9" d="m497.95,254.45h-2.29l-61.58,61.11h63.87c2.16,0,3.93-1.75,3.93-3.9v-53.31c0-2.14-1.77-3.9-3.93-3.9Z"/>
      </g>
      <path class="cls-7" d="m512,16.27v292.03c0,9.02-7.33,16.35-16.27,16.35h-239.69V0h239.69C504.67,0,512,7.34,512,16.27Z"/>
      <text class="cls-4" transform="translate(6.43 252.02)"><tspan x="0" y="0">NAE</tspan><tspan class="cls-11" x="58.42" y="0">B</tspan><tspan x="77.11" y="0">A</tspan><tspan class="cls-16" x="97.16" y="0">L</tspan><tspan class="cls-12" x="111.59" y="0">O</tspan><tspan class="cls-2" x="134.17" y="0">V</tspan><tspan x="153.54" y="0">O</tspan></text>
    </g>
  </g>
</svg>